%TF.GenerationSoftware,KiCad,Pcbnew,(6.0.9-0)*%
%TF.CreationDate,2022-12-13T13:56:08-05:00*%
%TF.ProjectId,easy-esc,65617379-2d65-4736-932e-6b696361645f,rev?*%
%TF.SameCoordinates,Original*%
%TF.FileFunction,Paste,Top*%
%TF.FilePolarity,Positive*%
%FSLAX46Y46*%
G04 Gerber Fmt 4.6, Leading zero omitted, Abs format (unit mm)*
G04 Created by KiCad (PCBNEW (6.0.9-0)) date 2022-12-13 13:56:08*
%MOMM*%
%LPD*%
G01*
G04 APERTURE LIST*
G04 Aperture macros list*
%AMRoundRect*
0 Rectangle with rounded corners*
0 $1 Rounding radius*
0 $2 $3 $4 $5 $6 $7 $8 $9 X,Y pos of 4 corners*
0 Add a 4 corners polygon primitive as box body*
4,1,4,$2,$3,$4,$5,$6,$7,$8,$9,$2,$3,0*
0 Add four circle primitives for the rounded corners*
1,1,$1+$1,$2,$3*
1,1,$1+$1,$4,$5*
1,1,$1+$1,$6,$7*
1,1,$1+$1,$8,$9*
0 Add four rect primitives between the rounded corners*
20,1,$1+$1,$2,$3,$4,$5,0*
20,1,$1+$1,$4,$5,$6,$7,0*
20,1,$1+$1,$6,$7,$8,$9,0*
20,1,$1+$1,$8,$9,$2,$3,0*%
%AMRotRect*
0 Rectangle, with rotation*
0 The origin of the aperture is its center*
0 $1 length*
0 $2 width*
0 $3 Rotation angle, in degrees counterclockwise*
0 Add horizontal line*
21,1,$1,$2,0,0,$3*%
G04 Aperture macros list end*
%ADD10C,0.010000*%
%ADD11RoundRect,0.167500X-0.167500X-0.167500X0.167500X-0.167500X0.167500X0.167500X-0.167500X0.167500X0*%
%ADD12RoundRect,0.050000X-0.375000X-0.050000X0.375000X-0.050000X0.375000X0.050000X-0.375000X0.050000X0*%
%ADD13RoundRect,0.050000X-0.050000X-0.375000X0.050000X-0.375000X0.050000X0.375000X-0.050000X0.375000X0*%
%ADD14RoundRect,0.250000X0.550000X-1.050000X0.550000X1.050000X-0.550000X1.050000X-0.550000X-1.050000X0*%
%ADD15RoundRect,0.135000X-0.035355X0.226274X-0.226274X0.035355X0.035355X-0.226274X0.226274X-0.035355X0*%
%ADD16RoundRect,0.150000X-0.150000X0.512500X-0.150000X-0.512500X0.150000X-0.512500X0.150000X0.512500X0*%
%ADD17RoundRect,0.150000X-0.150000X0.650000X-0.150000X-0.650000X0.150000X-0.650000X0.150000X0.650000X0*%
%ADD18R,0.750000X1.000000*%
%ADD19RoundRect,0.135000X0.226274X0.035355X0.035355X0.226274X-0.226274X-0.035355X-0.035355X-0.226274X0*%
%ADD20RoundRect,0.250000X1.425000X-0.362500X1.425000X0.362500X-1.425000X0.362500X-1.425000X-0.362500X0*%
%ADD21RoundRect,0.135000X0.135000X0.185000X-0.135000X0.185000X-0.135000X-0.185000X0.135000X-0.185000X0*%
%ADD22RoundRect,0.140000X0.219203X0.021213X0.021213X0.219203X-0.219203X-0.021213X-0.021213X-0.219203X0*%
%ADD23RotRect,1.400000X1.200000X225.000000*%
%ADD24RoundRect,0.135000X0.035355X-0.226274X0.226274X-0.035355X-0.035355X0.226274X-0.226274X0.035355X0*%
%ADD25RoundRect,0.218750X-0.335876X-0.026517X-0.026517X-0.335876X0.335876X0.026517X0.026517X0.335876X0*%
%ADD26RoundRect,0.140000X0.021213X-0.219203X0.219203X-0.021213X-0.021213X0.219203X-0.219203X0.021213X0*%
%ADD27RoundRect,0.140000X-0.140000X-0.170000X0.140000X-0.170000X0.140000X0.170000X-0.140000X0.170000X0*%
%ADD28RoundRect,0.140000X-0.021213X0.219203X-0.219203X0.021213X0.021213X-0.219203X0.219203X-0.021213X0*%
%ADD29RoundRect,0.135000X-0.135000X-0.185000X0.135000X-0.185000X0.135000X0.185000X-0.135000X0.185000X0*%
%ADD30RoundRect,0.200000X-0.053033X0.335876X-0.335876X0.053033X0.053033X-0.335876X0.335876X-0.053033X0*%
%ADD31RoundRect,0.218750X0.218750X0.256250X-0.218750X0.256250X-0.218750X-0.256250X0.218750X-0.256250X0*%
%ADD32RotRect,1.300000X2.000000X45.000000*%
%ADD33RotRect,2.000000X2.000000X45.000000*%
%ADD34RoundRect,0.150000X-0.521491X0.309359X0.309359X-0.521491X0.521491X-0.309359X-0.309359X0.521491X0*%
%ADD35RoundRect,0.140000X0.140000X0.170000X-0.140000X0.170000X-0.140000X-0.170000X0.140000X-0.170000X0*%
%ADD36RoundRect,0.006000X0.226274X0.359210X-0.359210X-0.226274X-0.226274X-0.359210X0.359210X0.226274X0*%
%ADD37RoundRect,0.020000X-0.226274X0.339411X-0.339411X0.226274X0.226274X-0.339411X0.339411X-0.226274X0*%
%ADD38R,1.600000X1.000000*%
%ADD39RoundRect,0.140000X0.170000X-0.140000X0.170000X0.140000X-0.170000X0.140000X-0.170000X-0.140000X0*%
%ADD40R,0.600000X1.450000*%
%ADD41R,0.300000X1.450000*%
G04 APERTURE END LIST*
%TO.C,U104*%
G36*
X134735929Y-122682000D02*
G01*
X133350000Y-124067929D01*
X131964071Y-122682000D01*
X133350000Y-121296071D01*
X134735929Y-122682000D01*
G37*
D10*
X134735929Y-122682000D02*
X133350000Y-124067929D01*
X131964071Y-122682000D01*
X133350000Y-121296071D01*
X134735929Y-122682000D01*
%TD*%
D11*
%TO.C,U101*%
X135480000Y-111350000D03*
X136300000Y-112170000D03*
X136300000Y-111350000D03*
X135480000Y-112170000D03*
D12*
X134440000Y-110960000D03*
X134440000Y-111360000D03*
X134440000Y-111760000D03*
X134440000Y-112160000D03*
X134440000Y-112560000D03*
D13*
X135090000Y-113210000D03*
X135490000Y-113210000D03*
X135890000Y-113210000D03*
X136290000Y-113210000D03*
X136690000Y-113210000D03*
D12*
X137340000Y-112560000D03*
X137340000Y-112160000D03*
X137340000Y-111760000D03*
X137340000Y-111360000D03*
X137340000Y-110960000D03*
D13*
X136690000Y-110310000D03*
X136290000Y-110310000D03*
X135890000Y-110310000D03*
X135490000Y-110310000D03*
X135090000Y-110310000D03*
%TD*%
D14*
%TO.C,C113*%
X137414000Y-107464000D03*
X137414000Y-103864000D03*
%TD*%
D15*
%TO.C,R109*%
X126344624Y-127909376D03*
X125623376Y-128630624D03*
%TD*%
D16*
%TO.C,U105*%
X141412000Y-116210500D03*
X140462000Y-116210500D03*
X139512000Y-116210500D03*
X139512000Y-118485500D03*
X141412000Y-118485500D03*
%TD*%
D17*
%TO.C,U103*%
X151003000Y-123654000D03*
X149733000Y-123654000D03*
X148463000Y-123654000D03*
X147193000Y-123654000D03*
X147193000Y-130854000D03*
X148463000Y-130854000D03*
X149733000Y-130854000D03*
X151003000Y-130854000D03*
%TD*%
D18*
%TO.C,SW101*%
X141127000Y-131620000D03*
X141127000Y-137620000D03*
X144877000Y-131620000D03*
X144877000Y-137620000D03*
%TD*%
D19*
%TO.C,R107*%
X131424624Y-115422624D03*
X130703376Y-114701376D03*
%TD*%
D20*
%TO.C,R105*%
X132588000Y-108626500D03*
X132588000Y-102701500D03*
%TD*%
D21*
%TO.C,R108*%
X147830000Y-132842000D03*
X146810000Y-132842000D03*
%TD*%
D22*
%TO.C,C107*%
X128609411Y-117179411D03*
X127930589Y-116500589D03*
%TD*%
D23*
%TO.C,Y101*%
X126414777Y-117493142D03*
X124859142Y-119048777D03*
X126061223Y-120250858D03*
X127616858Y-118695223D03*
%TD*%
D24*
%TO.C,R104*%
X137815376Y-129900624D03*
X138536624Y-129179376D03*
%TD*%
D22*
%TO.C,C110*%
X139531411Y-128355411D03*
X138852589Y-127676589D03*
%TD*%
D25*
%TO.C,D102*%
X129745153Y-116029153D03*
X130858847Y-117142847D03*
%TD*%
D26*
%TO.C,C104*%
X126660589Y-129625411D03*
X127339411Y-128946589D03*
%TD*%
D27*
%TO.C,C101*%
X139982000Y-110236000D03*
X140942000Y-110236000D03*
%TD*%
D28*
%TO.C,C111*%
X137245411Y-117262589D03*
X136566589Y-117941411D03*
%TD*%
D16*
%TO.C,U106*%
X144968000Y-116210500D03*
X144018000Y-116210500D03*
X143068000Y-116210500D03*
X143068000Y-118485500D03*
X144968000Y-118485500D03*
%TD*%
D22*
%TO.C,C106*%
X129879411Y-129625411D03*
X129200589Y-128946589D03*
%TD*%
D20*
%TO.C,R106*%
X141986000Y-108626500D03*
X141986000Y-102701500D03*
%TD*%
D29*
%TO.C,R101*%
X139952000Y-112776000D03*
X140972000Y-112776000D03*
%TD*%
D30*
%TO.C,R110*%
X135711363Y-127432637D03*
X134544637Y-128599363D03*
%TD*%
D28*
%TO.C,C108*%
X127593411Y-121072589D03*
X126914589Y-121751411D03*
%TD*%
D31*
%TO.C,D101*%
X140741500Y-114300000D03*
X139166500Y-114300000D03*
%TD*%
D32*
%TO.C,RV101*%
X123350959Y-121724614D03*
D33*
X125366214Y-125366214D03*
D32*
X121724614Y-123350959D03*
%TD*%
D15*
%TO.C,R102*%
X135488624Y-115463376D03*
X134767376Y-116184624D03*
%TD*%
D28*
%TO.C,C109*%
X139785411Y-120310589D03*
X139106589Y-120989411D03*
%TD*%
D22*
%TO.C,C112*%
X141309411Y-128355411D03*
X140630589Y-127676589D03*
%TD*%
D34*
%TO.C,U102*%
X122690839Y-127951336D03*
X121347336Y-129294839D03*
X123344913Y-129948913D03*
%TD*%
D19*
%TO.C,R103*%
X131932624Y-129646624D03*
X131211376Y-128925376D03*
%TD*%
%TO.C,R112*%
X121518624Y-126344624D03*
X120797376Y-125623376D03*
%TD*%
D18*
%TO.C,SW102*%
X125065000Y-137668000D03*
X125065000Y-131668000D03*
X121315000Y-131668000D03*
X121315000Y-137668000D03*
%TD*%
D29*
%TO.C,R113*%
X132078000Y-107188000D03*
X133098000Y-107188000D03*
%TD*%
D35*
%TO.C,C103*%
X140942000Y-111506000D03*
X139982000Y-111506000D03*
%TD*%
D36*
%TO.C,U104*%
X137617389Y-122091566D03*
X137334547Y-121808723D03*
X137051704Y-121525880D03*
X136768861Y-121243038D03*
X136486019Y-120960195D03*
X136203176Y-120677352D03*
X135920333Y-120394510D03*
X135637490Y-120111667D03*
X135354648Y-119828824D03*
X135071805Y-119545981D03*
X134788962Y-119263139D03*
X134506120Y-118980296D03*
X134223277Y-118697453D03*
X133940434Y-118414611D03*
D37*
X132759566Y-118414611D03*
X132476723Y-118697453D03*
X132193880Y-118980296D03*
X131911038Y-119263139D03*
X131628195Y-119545981D03*
X131345352Y-119828824D03*
X131062510Y-120111667D03*
X130779667Y-120394510D03*
X130496824Y-120677352D03*
X130213981Y-120960195D03*
X129931139Y-121243038D03*
X129648296Y-121525880D03*
X129365453Y-121808723D03*
X129082611Y-122091566D03*
D36*
X129082611Y-123272434D03*
X129365453Y-123555277D03*
X129648296Y-123838120D03*
X129931139Y-124120962D03*
X130213981Y-124403805D03*
X130496824Y-124686648D03*
X130779667Y-124969490D03*
X131062510Y-125252333D03*
X131345352Y-125535176D03*
X131628195Y-125818019D03*
X131911038Y-126100861D03*
X132193880Y-126383704D03*
X132476723Y-126666547D03*
X132759566Y-126949389D03*
D37*
X133940434Y-126949389D03*
X134223277Y-126666547D03*
X134506120Y-126383704D03*
X134788962Y-126100861D03*
X135071805Y-125818019D03*
X135354648Y-125535176D03*
X135637490Y-125252333D03*
X135920333Y-124969490D03*
X136203176Y-124686648D03*
X136486019Y-124403805D03*
X136768861Y-124120962D03*
X137051704Y-123838120D03*
X137334547Y-123555277D03*
X137617389Y-123272434D03*
%TD*%
D38*
%TO.C,SW103*%
X148120000Y-115856000D03*
X148120000Y-118356000D03*
X148120000Y-120856000D03*
X150520000Y-115856000D03*
X150520000Y-118356000D03*
X150520000Y-120856000D03*
%TD*%
D30*
%TO.C,R111*%
X137235363Y-128194637D03*
X136068637Y-129361363D03*
%TD*%
D29*
%TO.C,R114*%
X141476000Y-107188000D03*
X142496000Y-107188000D03*
%TD*%
D39*
%TO.C,C105*%
X135128000Y-108938000D03*
X135128000Y-107978000D03*
%TD*%
D35*
%TO.C,C102*%
X132560000Y-111760000D03*
X131600000Y-111760000D03*
%TD*%
D40*
%TO.C,J101*%
X130100000Y-131845000D03*
X130900000Y-131845000D03*
D41*
X132100000Y-131845000D03*
X133100000Y-131845000D03*
X133600000Y-131845000D03*
X134600000Y-131845000D03*
D40*
X135800000Y-131845000D03*
X136600000Y-131845000D03*
X136600000Y-131845000D03*
X135800000Y-131845000D03*
D41*
X135100000Y-131845000D03*
X134100000Y-131845000D03*
X132600000Y-131845000D03*
X131600000Y-131845000D03*
D40*
X130900000Y-131845000D03*
X130100000Y-131845000D03*
%TD*%
M02*
