%TF.GenerationSoftware,KiCad,Pcbnew,(6.0.9-0)*%
%TF.CreationDate,2022-12-13T13:55:31-05:00*%
%TF.ProjectId,easy-esc,65617379-2d65-4736-932e-6b696361645f,rev?*%
%TF.SameCoordinates,Original*%
%TF.FileFunction,Drillmap*%
%TF.FilePolarity,Positive*%
%FSLAX45Y45*%
G04 Gerber Fmt 4.5, Leading zero omitted, Abs format (unit mm)*
G04 Created by KiCad (PCBNEW (6.0.9-0)) date 2022-12-13 13:55:31*
%MOMM*%
%LPD*%
G01*
G04 APERTURE LIST*
%ADD10C,0.200000*%
%ADD11C,0.065000*%
G04 APERTURE END LIST*
D10*
D11*
X13013500Y-13296500D02*
X13078500Y-13361500D01*
X13078500Y-13296500D02*
X13013500Y-13361500D01*
X13591500Y-13296500D02*
X13656500Y-13361500D01*
X13656500Y-13296500D02*
X13591500Y-13361500D01*
D10*
X11609719Y-14307576D02*
X11609719Y-14107576D01*
X11657338Y-14107576D01*
X11685909Y-14117100D01*
X11704957Y-14136148D01*
X11714481Y-14155195D01*
X11724005Y-14193290D01*
X11724005Y-14221862D01*
X11714481Y-14259957D01*
X11704957Y-14279005D01*
X11685909Y-14298052D01*
X11657338Y-14307576D01*
X11609719Y-14307576D01*
X11809719Y-14307576D02*
X11809719Y-14174243D01*
X11809719Y-14212338D02*
X11819243Y-14193290D01*
X11828767Y-14183767D01*
X11847814Y-14174243D01*
X11866862Y-14174243D01*
X11933528Y-14307576D02*
X11933528Y-14174243D01*
X11933528Y-14107576D02*
X11924005Y-14117100D01*
X11933528Y-14126624D01*
X11943052Y-14117100D01*
X11933528Y-14107576D01*
X11933528Y-14126624D01*
X12057338Y-14307576D02*
X12038290Y-14298052D01*
X12028767Y-14279005D01*
X12028767Y-14107576D01*
X12162100Y-14307576D02*
X12143052Y-14298052D01*
X12133528Y-14279005D01*
X12133528Y-14107576D01*
X12390671Y-14307576D02*
X12390671Y-14107576D01*
X12457338Y-14250433D01*
X12524005Y-14107576D01*
X12524005Y-14307576D01*
X12704957Y-14307576D02*
X12704957Y-14202814D01*
X12695433Y-14183767D01*
X12676386Y-14174243D01*
X12638290Y-14174243D01*
X12619243Y-14183767D01*
X12704957Y-14298052D02*
X12685909Y-14307576D01*
X12638290Y-14307576D01*
X12619243Y-14298052D01*
X12609719Y-14279005D01*
X12609719Y-14259957D01*
X12619243Y-14240909D01*
X12638290Y-14231386D01*
X12685909Y-14231386D01*
X12704957Y-14221862D01*
X12800195Y-14174243D02*
X12800195Y-14374243D01*
X12800195Y-14183767D02*
X12819243Y-14174243D01*
X12857338Y-14174243D01*
X12876386Y-14183767D01*
X12885909Y-14193290D01*
X12895433Y-14212338D01*
X12895433Y-14269481D01*
X12885909Y-14288528D01*
X12876386Y-14298052D01*
X12857338Y-14307576D01*
X12819243Y-14307576D01*
X12800195Y-14298052D01*
X12981148Y-14288528D02*
X12990671Y-14298052D01*
X12981148Y-14307576D01*
X12971624Y-14298052D01*
X12981148Y-14288528D01*
X12981148Y-14307576D01*
X12981148Y-14183767D02*
X12990671Y-14193290D01*
X12981148Y-14202814D01*
X12971624Y-14193290D01*
X12981148Y-14183767D01*
X12981148Y-14202814D01*
D11*
X11287100Y-14604600D02*
X11352100Y-14669600D01*
X11352100Y-14604600D02*
X11287100Y-14669600D01*
D10*
X11647814Y-14527576D02*
X11666862Y-14527576D01*
X11685909Y-14537100D01*
X11695433Y-14546624D01*
X11704957Y-14565671D01*
X11714481Y-14603767D01*
X11714481Y-14651386D01*
X11704957Y-14689481D01*
X11695433Y-14708528D01*
X11685909Y-14718052D01*
X11666862Y-14727576D01*
X11647814Y-14727576D01*
X11628767Y-14718052D01*
X11619243Y-14708528D01*
X11609719Y-14689481D01*
X11600195Y-14651386D01*
X11600195Y-14603767D01*
X11609719Y-14565671D01*
X11619243Y-14546624D01*
X11628767Y-14537100D01*
X11647814Y-14527576D01*
X11800195Y-14708528D02*
X11809719Y-14718052D01*
X11800195Y-14727576D01*
X11790671Y-14718052D01*
X11800195Y-14708528D01*
X11800195Y-14727576D01*
X11981148Y-14527576D02*
X11943052Y-14527576D01*
X11924005Y-14537100D01*
X11914481Y-14546624D01*
X11895433Y-14575195D01*
X11885909Y-14613290D01*
X11885909Y-14689481D01*
X11895433Y-14708528D01*
X11904957Y-14718052D01*
X11924005Y-14727576D01*
X11962100Y-14727576D01*
X11981148Y-14718052D01*
X11990671Y-14708528D01*
X12000195Y-14689481D01*
X12000195Y-14641862D01*
X11990671Y-14622814D01*
X11981148Y-14613290D01*
X11962100Y-14603767D01*
X11924005Y-14603767D01*
X11904957Y-14613290D01*
X11895433Y-14622814D01*
X11885909Y-14641862D01*
X12181148Y-14527576D02*
X12085909Y-14527576D01*
X12076386Y-14622814D01*
X12085909Y-14613290D01*
X12104957Y-14603767D01*
X12152576Y-14603767D01*
X12171624Y-14613290D01*
X12181148Y-14622814D01*
X12190671Y-14641862D01*
X12190671Y-14689481D01*
X12181148Y-14708528D01*
X12171624Y-14718052D01*
X12152576Y-14727576D01*
X12104957Y-14727576D01*
X12085909Y-14718052D01*
X12076386Y-14708528D01*
X12314481Y-14527576D02*
X12333528Y-14527576D01*
X12352576Y-14537100D01*
X12362100Y-14546624D01*
X12371624Y-14565671D01*
X12381148Y-14603767D01*
X12381148Y-14651386D01*
X12371624Y-14689481D01*
X12362100Y-14708528D01*
X12352576Y-14718052D01*
X12333528Y-14727576D01*
X12314481Y-14727576D01*
X12295433Y-14718052D01*
X12285909Y-14708528D01*
X12276386Y-14689481D01*
X12266862Y-14651386D01*
X12266862Y-14603767D01*
X12276386Y-14565671D01*
X12285909Y-14546624D01*
X12295433Y-14537100D01*
X12314481Y-14527576D01*
X12466862Y-14727576D02*
X12466862Y-14594243D01*
X12466862Y-14613290D02*
X12476386Y-14603767D01*
X12495433Y-14594243D01*
X12524005Y-14594243D01*
X12543052Y-14603767D01*
X12552576Y-14622814D01*
X12552576Y-14727576D01*
X12552576Y-14622814D02*
X12562100Y-14603767D01*
X12581148Y-14594243D01*
X12609719Y-14594243D01*
X12628767Y-14603767D01*
X12638290Y-14622814D01*
X12638290Y-14727576D01*
X12733528Y-14727576D02*
X12733528Y-14594243D01*
X12733528Y-14613290D02*
X12743052Y-14603767D01*
X12762100Y-14594243D01*
X12790671Y-14594243D01*
X12809719Y-14603767D01*
X12819243Y-14622814D01*
X12819243Y-14727576D01*
X12819243Y-14622814D02*
X12828767Y-14603767D01*
X12847814Y-14594243D01*
X12876386Y-14594243D01*
X12895433Y-14603767D01*
X12904957Y-14622814D01*
X12904957Y-14727576D01*
X13295433Y-14518052D02*
X13124005Y-14775195D01*
X13552576Y-14527576D02*
X13571624Y-14527576D01*
X13590671Y-14537100D01*
X13600195Y-14546624D01*
X13609719Y-14565671D01*
X13619243Y-14603767D01*
X13619243Y-14651386D01*
X13609719Y-14689481D01*
X13600195Y-14708528D01*
X13590671Y-14718052D01*
X13571624Y-14727576D01*
X13552576Y-14727576D01*
X13533528Y-14718052D01*
X13524005Y-14708528D01*
X13514481Y-14689481D01*
X13504957Y-14651386D01*
X13504957Y-14603767D01*
X13514481Y-14565671D01*
X13524005Y-14546624D01*
X13533528Y-14537100D01*
X13552576Y-14527576D01*
X13704957Y-14708528D02*
X13714481Y-14718052D01*
X13704957Y-14727576D01*
X13695433Y-14718052D01*
X13704957Y-14708528D01*
X13704957Y-14727576D01*
X13838290Y-14527576D02*
X13857338Y-14527576D01*
X13876386Y-14537100D01*
X13885909Y-14546624D01*
X13895433Y-14565671D01*
X13904957Y-14603767D01*
X13904957Y-14651386D01*
X13895433Y-14689481D01*
X13885909Y-14708528D01*
X13876386Y-14718052D01*
X13857338Y-14727576D01*
X13838290Y-14727576D01*
X13819243Y-14718052D01*
X13809719Y-14708528D01*
X13800195Y-14689481D01*
X13790671Y-14651386D01*
X13790671Y-14603767D01*
X13800195Y-14565671D01*
X13809719Y-14546624D01*
X13819243Y-14537100D01*
X13838290Y-14527576D01*
X13981148Y-14546624D02*
X13990671Y-14537100D01*
X14009719Y-14527576D01*
X14057338Y-14527576D01*
X14076386Y-14537100D01*
X14085909Y-14546624D01*
X14095433Y-14565671D01*
X14095433Y-14584719D01*
X14085909Y-14613290D01*
X13971624Y-14727576D01*
X14095433Y-14727576D01*
X14276386Y-14527576D02*
X14181148Y-14527576D01*
X14171624Y-14622814D01*
X14181148Y-14613290D01*
X14200195Y-14603767D01*
X14247814Y-14603767D01*
X14266862Y-14613290D01*
X14276386Y-14622814D01*
X14285909Y-14641862D01*
X14285909Y-14689481D01*
X14276386Y-14708528D01*
X14266862Y-14718052D01*
X14247814Y-14727576D01*
X14200195Y-14727576D01*
X14181148Y-14718052D01*
X14171624Y-14708528D01*
X14457338Y-14527576D02*
X14419243Y-14527576D01*
X14400195Y-14537100D01*
X14390671Y-14546624D01*
X14371624Y-14575195D01*
X14362100Y-14613290D01*
X14362100Y-14689481D01*
X14371624Y-14708528D01*
X14381148Y-14718052D01*
X14400195Y-14727576D01*
X14438290Y-14727576D01*
X14457338Y-14718052D01*
X14466862Y-14708528D01*
X14476386Y-14689481D01*
X14476386Y-14641862D01*
X14466862Y-14622814D01*
X14457338Y-14613290D01*
X14438290Y-14603767D01*
X14400195Y-14603767D01*
X14381148Y-14613290D01*
X14371624Y-14622814D01*
X14362100Y-14641862D01*
X14552576Y-14527576D02*
X14552576Y-14565671D01*
X14628767Y-14527576D02*
X14628767Y-14565671D01*
X14924005Y-14803767D02*
X14914481Y-14794243D01*
X14895433Y-14765671D01*
X14885909Y-14746624D01*
X14876386Y-14718052D01*
X14866862Y-14670433D01*
X14866862Y-14632338D01*
X14876386Y-14584719D01*
X14885909Y-14556148D01*
X14895433Y-14537100D01*
X14914481Y-14508528D01*
X14924005Y-14499005D01*
X14990671Y-14546624D02*
X15000195Y-14537100D01*
X15019243Y-14527576D01*
X15066862Y-14527576D01*
X15085909Y-14537100D01*
X15095433Y-14546624D01*
X15104957Y-14565671D01*
X15104957Y-14584719D01*
X15095433Y-14613290D01*
X14981148Y-14727576D01*
X15104957Y-14727576D01*
X15343052Y-14727576D02*
X15343052Y-14527576D01*
X15428767Y-14727576D02*
X15428767Y-14622814D01*
X15419243Y-14603767D01*
X15400195Y-14594243D01*
X15371624Y-14594243D01*
X15352576Y-14603767D01*
X15343052Y-14613290D01*
X15552576Y-14727576D02*
X15533528Y-14718052D01*
X15524005Y-14708528D01*
X15514481Y-14689481D01*
X15514481Y-14632338D01*
X15524005Y-14613290D01*
X15533528Y-14603767D01*
X15552576Y-14594243D01*
X15581148Y-14594243D01*
X15600195Y-14603767D01*
X15609719Y-14613290D01*
X15619243Y-14632338D01*
X15619243Y-14689481D01*
X15609719Y-14708528D01*
X15600195Y-14718052D01*
X15581148Y-14727576D01*
X15552576Y-14727576D01*
X15733528Y-14727576D02*
X15714481Y-14718052D01*
X15704957Y-14699005D01*
X15704957Y-14527576D01*
X15885909Y-14718052D02*
X15866862Y-14727576D01*
X15828767Y-14727576D01*
X15809719Y-14718052D01*
X15800195Y-14699005D01*
X15800195Y-14622814D01*
X15809719Y-14603767D01*
X15828767Y-14594243D01*
X15866862Y-14594243D01*
X15885909Y-14603767D01*
X15895433Y-14622814D01*
X15895433Y-14641862D01*
X15800195Y-14660909D01*
X15971624Y-14718052D02*
X15990671Y-14727576D01*
X16028767Y-14727576D01*
X16047814Y-14718052D01*
X16057338Y-14699005D01*
X16057338Y-14689481D01*
X16047814Y-14670433D01*
X16028767Y-14660909D01*
X16000195Y-14660909D01*
X15981148Y-14651386D01*
X15971624Y-14632338D01*
X15971624Y-14622814D01*
X15981148Y-14603767D01*
X16000195Y-14594243D01*
X16028767Y-14594243D01*
X16047814Y-14603767D01*
X16124005Y-14803767D02*
X16133528Y-14794243D01*
X16152576Y-14765671D01*
X16162100Y-14746624D01*
X16171624Y-14718052D01*
X16181148Y-14670433D01*
X16181148Y-14632338D01*
X16171624Y-14584719D01*
X16162100Y-14556148D01*
X16152576Y-14537100D01*
X16133528Y-14508528D01*
X16124005Y-14499005D01*
X16485909Y-14803767D02*
X16476386Y-14794243D01*
X16457338Y-14765671D01*
X16447814Y-14746624D01*
X16438290Y-14718052D01*
X16428767Y-14670433D01*
X16428767Y-14632338D01*
X16438290Y-14584719D01*
X16447814Y-14556148D01*
X16457338Y-14537100D01*
X16476386Y-14508528D01*
X16485909Y-14499005D01*
X16562100Y-14594243D02*
X16562100Y-14727576D01*
X16562100Y-14613290D02*
X16571624Y-14603767D01*
X16590671Y-14594243D01*
X16619243Y-14594243D01*
X16638290Y-14603767D01*
X16647814Y-14622814D01*
X16647814Y-14727576D01*
X16771624Y-14727576D02*
X16752576Y-14718052D01*
X16743052Y-14708528D01*
X16733528Y-14689481D01*
X16733528Y-14632338D01*
X16743052Y-14613290D01*
X16752576Y-14603767D01*
X16771624Y-14594243D01*
X16800195Y-14594243D01*
X16819243Y-14603767D01*
X16828767Y-14613290D01*
X16838290Y-14632338D01*
X16838290Y-14689481D01*
X16828767Y-14708528D01*
X16819243Y-14718052D01*
X16800195Y-14727576D01*
X16771624Y-14727576D01*
X16895433Y-14594243D02*
X16971624Y-14594243D01*
X16924005Y-14527576D02*
X16924005Y-14699005D01*
X16933529Y-14718052D01*
X16952576Y-14727576D01*
X16971624Y-14727576D01*
X17190671Y-14594243D02*
X17190671Y-14794243D01*
X17190671Y-14603767D02*
X17209719Y-14594243D01*
X17247814Y-14594243D01*
X17266862Y-14603767D01*
X17276386Y-14613290D01*
X17285910Y-14632338D01*
X17285910Y-14689481D01*
X17276386Y-14708528D01*
X17266862Y-14718052D01*
X17247814Y-14727576D01*
X17209719Y-14727576D01*
X17190671Y-14718052D01*
X17400195Y-14727576D02*
X17381148Y-14718052D01*
X17371624Y-14699005D01*
X17371624Y-14527576D01*
X17562100Y-14727576D02*
X17562100Y-14622814D01*
X17552576Y-14603767D01*
X17533529Y-14594243D01*
X17495433Y-14594243D01*
X17476386Y-14603767D01*
X17562100Y-14718052D02*
X17543052Y-14727576D01*
X17495433Y-14727576D01*
X17476386Y-14718052D01*
X17466862Y-14699005D01*
X17466862Y-14679957D01*
X17476386Y-14660909D01*
X17495433Y-14651386D01*
X17543052Y-14651386D01*
X17562100Y-14641862D01*
X17628767Y-14594243D02*
X17704957Y-14594243D01*
X17657338Y-14527576D02*
X17657338Y-14699005D01*
X17666862Y-14718052D01*
X17685910Y-14727576D01*
X17704957Y-14727576D01*
X17847814Y-14718052D02*
X17828767Y-14727576D01*
X17790671Y-14727576D01*
X17771624Y-14718052D01*
X17762100Y-14699005D01*
X17762100Y-14622814D01*
X17771624Y-14603767D01*
X17790671Y-14594243D01*
X17828767Y-14594243D01*
X17847814Y-14603767D01*
X17857338Y-14622814D01*
X17857338Y-14641862D01*
X17762100Y-14660909D01*
X18028767Y-14727576D02*
X18028767Y-14527576D01*
X18028767Y-14718052D02*
X18009719Y-14727576D01*
X17971624Y-14727576D01*
X17952576Y-14718052D01*
X17943052Y-14708528D01*
X17933529Y-14689481D01*
X17933529Y-14632338D01*
X17943052Y-14613290D01*
X17952576Y-14603767D01*
X17971624Y-14594243D01*
X18009719Y-14594243D01*
X18028767Y-14603767D01*
X18104957Y-14803767D02*
X18114481Y-14794243D01*
X18133529Y-14765671D01*
X18143052Y-14746624D01*
X18152576Y-14718052D01*
X18162100Y-14670433D01*
X18162100Y-14632338D01*
X18152576Y-14584719D01*
X18143052Y-14556148D01*
X18133529Y-14537100D01*
X18114481Y-14508528D01*
X18104957Y-14499005D01*
M02*
