%TF.GenerationSoftware,KiCad,Pcbnew,(6.0.9-0)*%
%TF.CreationDate,2022-12-13T13:56:08-05:00*%
%TF.ProjectId,easy-esc,65617379-2d65-4736-932e-6b696361645f,rev?*%
%TF.SameCoordinates,Original*%
%TF.FileFunction,Legend,Bot*%
%TF.FilePolarity,Positive*%
%FSLAX46Y46*%
G04 Gerber Fmt 4.6, Leading zero omitted, Abs format (unit mm)*
G04 Created by KiCad (PCBNEW (6.0.9-0)) date 2022-12-13 13:56:08*
%MOMM*%
%LPD*%
G01*
G04 APERTURE LIST*
G04 APERTURE END LIST*
%TO.C,G\u002A\u002A\u002A*%
G36*
X140455279Y-118169939D02*
G01*
X140585138Y-118218602D01*
X140783536Y-118302443D01*
X141047616Y-118420209D01*
X141374520Y-118570651D01*
X141761392Y-118752517D01*
X141798495Y-118770088D01*
X141976750Y-118853998D01*
X142123195Y-118922109D01*
X142223539Y-118967818D01*
X142263493Y-118984521D01*
X142271127Y-118987121D01*
X142335312Y-119015127D01*
X142449453Y-119067190D01*
X142595747Y-119134962D01*
X142756391Y-119210095D01*
X142913581Y-119284240D01*
X143049514Y-119349050D01*
X143146385Y-119396176D01*
X143186392Y-119417270D01*
X143175896Y-119451309D01*
X143137966Y-119544960D01*
X143079690Y-119681491D01*
X143008486Y-119844248D01*
X142931771Y-120016580D01*
X142856961Y-120181836D01*
X142791473Y-120323362D01*
X142742723Y-120424507D01*
X142718129Y-120468618D01*
X142695765Y-120468501D01*
X142605802Y-120439594D01*
X142456172Y-120378833D01*
X142255400Y-120289752D01*
X142012008Y-120175884D01*
X142006910Y-120173457D01*
X141869543Y-120114383D01*
X141758336Y-120077646D01*
X141696938Y-120071113D01*
X141681180Y-120086192D01*
X141636665Y-120165795D01*
X141580815Y-120296155D01*
X141522082Y-120458549D01*
X141493915Y-120541779D01*
X141170026Y-121358580D01*
X140766775Y-122156648D01*
X140285867Y-122933204D01*
X139729006Y-123685470D01*
X139097896Y-124410667D01*
X139030164Y-124479733D01*
X138863821Y-124636847D01*
X138659111Y-124819488D01*
X138434212Y-125012210D01*
X138207301Y-125199565D01*
X137996557Y-125366108D01*
X137820158Y-125496393D01*
X137470688Y-125730566D01*
X136803884Y-126120880D01*
X136125413Y-126441981D01*
X135424588Y-126697499D01*
X134690721Y-126891066D01*
X133913123Y-127026316D01*
X133081108Y-127106879D01*
X133025632Y-127109690D01*
X132855730Y-127112424D01*
X132708795Y-127107634D01*
X132679121Y-127105453D01*
X132541162Y-127095555D01*
X132361439Y-127082888D01*
X132171010Y-127069647D01*
X132107165Y-127064940D01*
X131376092Y-126970094D01*
X130633987Y-126801189D01*
X129895242Y-126562128D01*
X129174250Y-126256815D01*
X128806699Y-126066327D01*
X128355441Y-125797724D01*
X127899062Y-125492930D01*
X127458665Y-125166897D01*
X127055354Y-124834580D01*
X126710231Y-124510929D01*
X126683272Y-124483305D01*
X126542989Y-124335109D01*
X126382327Y-124159803D01*
X126214106Y-123971968D01*
X126051150Y-123786190D01*
X125906279Y-123617052D01*
X125792317Y-123479137D01*
X125722086Y-123387030D01*
X125716677Y-123379132D01*
X125340821Y-122807143D01*
X125003181Y-122246653D01*
X124709679Y-121708511D01*
X124466237Y-121203565D01*
X124278776Y-120742665D01*
X124219715Y-120579590D01*
X124154456Y-120399660D01*
X124102468Y-120256590D01*
X124074463Y-120186045D01*
X124028941Y-120095508D01*
X123996230Y-120060091D01*
X123995949Y-120060095D01*
X123942376Y-120076655D01*
X123836849Y-120119253D01*
X123701932Y-120178789D01*
X123618709Y-120216706D01*
X123352379Y-120335555D01*
X123158810Y-120417321D01*
X123038334Y-120461870D01*
X122991282Y-120469066D01*
X122988572Y-120465576D01*
X122953929Y-120403253D01*
X122896479Y-120286288D01*
X122824572Y-120133152D01*
X122746557Y-119962319D01*
X122670782Y-119792262D01*
X122605598Y-119641454D01*
X122559353Y-119528367D01*
X122540397Y-119471474D01*
X122539978Y-119462458D01*
X122545517Y-119441731D01*
X122565019Y-119417755D01*
X122604626Y-119387448D01*
X122670484Y-119347726D01*
X122768734Y-119295508D01*
X122905519Y-119227711D01*
X123086983Y-119141252D01*
X123319268Y-119033050D01*
X123608519Y-118900021D01*
X123960877Y-118739083D01*
X124382486Y-118547155D01*
X124510623Y-118489202D01*
X124750067Y-118382757D01*
X124960897Y-118291422D01*
X125131495Y-118220104D01*
X125250242Y-118173714D01*
X125305520Y-118157160D01*
X125348233Y-118182571D01*
X125416783Y-118278319D01*
X125496970Y-118436394D01*
X125566633Y-118590816D01*
X125651893Y-118779455D01*
X125723339Y-118937182D01*
X125726483Y-118944130D01*
X125780853Y-119078938D01*
X125796142Y-119163225D01*
X125776015Y-119216416D01*
X125746069Y-119245694D01*
X125687610Y-119274098D01*
X125674215Y-119276837D01*
X125596617Y-119305548D01*
X125472098Y-119358863D01*
X125320362Y-119428500D01*
X125145455Y-119518104D01*
X125031307Y-119595460D01*
X124993648Y-119653560D01*
X125004950Y-119726304D01*
X125047483Y-119871196D01*
X125115731Y-120060909D01*
X125203431Y-120279230D01*
X125304320Y-120509945D01*
X125412132Y-120736838D01*
X125648859Y-121172089D01*
X126062798Y-121791844D01*
X126542716Y-122367045D01*
X127084515Y-122894544D01*
X127684099Y-123371194D01*
X128337370Y-123793846D01*
X129040232Y-124159353D01*
X129788587Y-124464567D01*
X130578339Y-124706339D01*
X130867859Y-124777867D01*
X131172731Y-124843057D01*
X131463709Y-124891423D01*
X131760072Y-124925088D01*
X132081100Y-124946176D01*
X132446072Y-124956808D01*
X132874267Y-124959108D01*
X132883290Y-124959084D01*
X133284836Y-124955366D01*
X133623044Y-124945221D01*
X133916810Y-124926609D01*
X134185033Y-124897486D01*
X134446609Y-124855811D01*
X134720435Y-124799542D01*
X135025407Y-124726636D01*
X135061036Y-124717748D01*
X135230528Y-124676496D01*
X135376494Y-124642494D01*
X135470620Y-124622372D01*
X135553784Y-124598292D01*
X135607508Y-124564442D01*
X135630338Y-124545454D01*
X135706059Y-124527844D01*
X135720749Y-124526679D01*
X135820121Y-124501304D01*
X135974454Y-124447582D01*
X136168331Y-124371913D01*
X136386334Y-124280698D01*
X136613047Y-124180338D01*
X136833052Y-124077234D01*
X137030932Y-123977786D01*
X137200493Y-123886264D01*
X137880527Y-123466154D01*
X138501775Y-122993028D01*
X139061325Y-122469833D01*
X139556266Y-121899514D01*
X139983686Y-121285016D01*
X140340672Y-120629286D01*
X140398672Y-120504688D01*
X140507979Y-120254232D01*
X140596882Y-120028793D01*
X140661062Y-119840529D01*
X140696194Y-119701599D01*
X140697958Y-119624163D01*
X140671736Y-119598301D01*
X140582682Y-119540843D01*
X140447203Y-119466238D01*
X140281974Y-119384110D01*
X140154688Y-119322449D01*
X140015844Y-119251357D01*
X139921163Y-119198102D01*
X139886156Y-119171032D01*
X139892194Y-119148426D01*
X139924081Y-119066364D01*
X139974195Y-118951226D01*
X140069867Y-118741054D01*
X140170111Y-118524686D01*
X140245836Y-118368085D01*
X140301944Y-118262141D01*
X140343339Y-118197745D01*
X140374924Y-118165788D01*
X140401602Y-118157160D01*
X140455279Y-118169939D01*
G37*
%TD*%
M02*
