%TF.GenerationSoftware,KiCad,Pcbnew,(6.0.9-0)*%
%TF.CreationDate,2022-12-13T13:56:08-05:00*%
%TF.ProjectId,easy-esc,65617379-2d65-4736-932e-6b696361645f,rev?*%
%TF.SameCoordinates,Original*%
%TF.FileFunction,Legend,Top*%
%TF.FilePolarity,Positive*%
%FSLAX46Y46*%
G04 Gerber Fmt 4.6, Leading zero omitted, Abs format (unit mm)*
G04 Created by KiCad (PCBNEW (6.0.9-0)) date 2022-12-13 13:56:08*
%MOMM*%
%LPD*%
G01*
G04 APERTURE LIST*
%ADD10C,0.300000*%
%ADD11C,0.120000*%
%ADD12C,0.127000*%
%ADD13C,0.200000*%
G04 APERTURE END LIST*
D10*
X114419142Y-117542571D02*
X114776285Y-119042571D01*
X115062000Y-117971142D01*
X115347714Y-119042571D01*
X115704857Y-117542571D01*
X115419142Y-127194571D02*
X114704857Y-127194571D01*
X114633428Y-127908857D01*
X114704857Y-127837428D01*
X114847714Y-127766000D01*
X115204857Y-127766000D01*
X115347714Y-127837428D01*
X115419142Y-127908857D01*
X115490571Y-128051714D01*
X115490571Y-128408857D01*
X115419142Y-128551714D01*
X115347714Y-128623142D01*
X115204857Y-128694571D01*
X114847714Y-128694571D01*
X114704857Y-128623142D01*
X114633428Y-128551714D01*
X114633428Y-111446571D02*
X114633428Y-112660857D01*
X114704857Y-112803714D01*
X114776285Y-112875142D01*
X114919142Y-112946571D01*
X115204857Y-112946571D01*
X115347714Y-112875142D01*
X115419142Y-112803714D01*
X115490571Y-112660857D01*
X115490571Y-111446571D01*
X114562000Y-131004571D02*
X115490571Y-131004571D01*
X114990571Y-131576000D01*
X115204857Y-131576000D01*
X115347714Y-131647428D01*
X115419142Y-131718857D01*
X115490571Y-131861714D01*
X115490571Y-132218857D01*
X115419142Y-132361714D01*
X115347714Y-132433142D01*
X115204857Y-132504571D01*
X114776285Y-132504571D01*
X114633428Y-132433142D01*
X114562000Y-132361714D01*
X114562000Y-114494571D02*
X115062000Y-115994571D01*
X115562000Y-114494571D01*
D11*
%TO.C,U101*%
X137500000Y-113370000D02*
X137500000Y-112920000D01*
X134280000Y-113370000D02*
X134280000Y-112920000D01*
X137500000Y-110150000D02*
X137500000Y-110600000D01*
X134730000Y-113370000D02*
X134280000Y-113370000D01*
X137050000Y-110150000D02*
X137500000Y-110150000D01*
X137050000Y-113370000D02*
X137500000Y-113370000D01*
X134730000Y-110150000D02*
X134280000Y-110150000D01*
%TO.C,C113*%
X136218437Y-107924000D02*
X135154000Y-106859563D01*
X139674000Y-103404000D02*
X138474000Y-103404000D01*
X139674000Y-106859563D02*
X139674000Y-103404000D01*
X136218437Y-107924000D02*
X136354000Y-107924000D01*
X135604000Y-108414000D02*
X136104000Y-108414000D01*
X138609563Y-107924000D02*
X139674000Y-106859563D01*
X135854000Y-108664000D02*
X135854000Y-108164000D01*
X135154000Y-103404000D02*
X136354000Y-103404000D01*
X135154000Y-106859563D02*
X135154000Y-103404000D01*
X138609563Y-107924000D02*
X138474000Y-107924000D01*
%TO.C,R109*%
X126361341Y-128430060D02*
X126144060Y-128647341D01*
X125823940Y-127892659D02*
X125606659Y-128109940D01*
%TO.C,U105*%
X138902000Y-117348000D02*
X138902000Y-116548000D01*
X142022000Y-117348000D02*
X142022000Y-115548000D01*
X138902000Y-117348000D02*
X138902000Y-118148000D01*
X142022000Y-117348000D02*
X142022000Y-118148000D01*
%TO.C,U103*%
X151563000Y-124529000D02*
X151563000Y-122854000D01*
X146373000Y-124529000D02*
X146633000Y-124529000D01*
X151823000Y-129979000D02*
X151563000Y-129979000D01*
X146373000Y-129979000D02*
X146633000Y-129979000D01*
X146373000Y-127254000D02*
X146373000Y-124529000D01*
X151823000Y-127254000D02*
X151823000Y-124529000D01*
X146373000Y-127254000D02*
X146373000Y-129979000D01*
X151823000Y-124529000D02*
X151563000Y-124529000D01*
X151823000Y-127254000D02*
X151823000Y-129979000D01*
%TO.C,R107*%
X131441341Y-114901940D02*
X131224060Y-114684659D01*
X130903940Y-115439341D02*
X130686659Y-115222060D01*
%TO.C,R105*%
X130878000Y-107841064D02*
X130878000Y-103486936D01*
X134298000Y-107841064D02*
X134298000Y-103486936D01*
%TO.C,R108*%
X147473641Y-133222000D02*
X147166359Y-133222000D01*
X147473641Y-132462000D02*
X147166359Y-132462000D01*
%TO.C,C107*%
X128600810Y-116661693D02*
X128448307Y-116509190D01*
X128091693Y-117170810D02*
X127939190Y-117018307D01*
%TO.C,Y101*%
X126485487Y-116291060D02*
X123657060Y-119119487D01*
X128818940Y-118624513D02*
X126485487Y-116291060D01*
%TO.C,R104*%
X137798659Y-129379940D02*
X138015940Y-129162659D01*
X138336060Y-129917341D02*
X138553341Y-129700060D01*
%TO.C,C110*%
X139013693Y-128346810D02*
X138861190Y-128194307D01*
X139522810Y-127837693D02*
X139370307Y-127685190D01*
%TO.C,D102*%
X129771670Y-115016223D02*
X128732223Y-116055670D01*
X131387409Y-116631962D02*
X129771670Y-115016223D01*
X128732223Y-116055670D02*
X130347962Y-117671409D01*
%TO.C,C104*%
X127178307Y-129616810D02*
X127330810Y-129464307D01*
X126669190Y-129107693D02*
X126821693Y-128955190D01*
%TO.C,C101*%
X140354164Y-110596000D02*
X140569836Y-110596000D01*
X140354164Y-109876000D02*
X140569836Y-109876000D01*
%TO.C,TP105*%
X118044000Y-131826000D02*
G75*
G03*
X118044000Y-131826000I-950000J0D01*
G01*
%TO.C,C111*%
X136727693Y-117271190D02*
X136575190Y-117423693D01*
X137236810Y-117780307D02*
X137084307Y-117932810D01*
%TO.C,U106*%
X142458000Y-117348000D02*
X142458000Y-116548000D01*
X145578000Y-117348000D02*
X145578000Y-115548000D01*
X142458000Y-117348000D02*
X142458000Y-118148000D01*
X145578000Y-117348000D02*
X145578000Y-118148000D01*
%TO.C,J102*%
X121368000Y-109416000D02*
X125008000Y-109416000D01*
X127258000Y-102806000D02*
X127258000Y-108306000D01*
X127208000Y-113606000D02*
X127508000Y-113006000D01*
X119948000Y-102196000D02*
X119948000Y-113916000D01*
X130068000Y-113916000D02*
X128648000Y-113916000D01*
X127508000Y-113006000D02*
X127808000Y-113606000D01*
X127258000Y-108306000D02*
X127758000Y-108306000D01*
X124758000Y-108306000D02*
X125258000Y-108306000D01*
X119948000Y-113916000D02*
X121368000Y-113916000D01*
X128648000Y-113916000D02*
X128648000Y-109416000D01*
X122758000Y-108306000D02*
X122758000Y-102806000D01*
X122258000Y-108306000D02*
X122758000Y-108306000D01*
X130068000Y-102196000D02*
X130068000Y-113916000D01*
X128648000Y-109416000D02*
X125008000Y-109416000D01*
X124758000Y-102806000D02*
X124758000Y-108306000D01*
X125258000Y-102806000D02*
X124758000Y-102806000D01*
X125008000Y-102196000D02*
X119948000Y-102196000D01*
X127758000Y-108306000D02*
X127758000Y-102806000D01*
X125008000Y-102196000D02*
X130068000Y-102196000D01*
X127758000Y-102806000D02*
X127258000Y-102806000D01*
X122258000Y-102806000D02*
X122258000Y-108306000D01*
X121368000Y-113916000D02*
X121368000Y-109416000D01*
X122758000Y-102806000D02*
X122258000Y-102806000D01*
X125258000Y-108306000D02*
X125258000Y-102806000D01*
X127808000Y-113606000D02*
X127208000Y-113606000D01*
%TO.C,C106*%
X129870810Y-129107693D02*
X129718307Y-128955190D01*
X129361693Y-129616810D02*
X129209190Y-129464307D01*
%TO.C,TP104*%
X118044000Y-128016000D02*
G75*
G03*
X118044000Y-128016000I-950000J0D01*
G01*
%TO.C,R106*%
X143696000Y-107841064D02*
X143696000Y-103486936D01*
X140276000Y-107841064D02*
X140276000Y-103486936D01*
%TO.C,TP101*%
X118044000Y-112268000D02*
G75*
G03*
X118044000Y-112268000I-950000J0D01*
G01*
%TO.C,R101*%
X140308359Y-112396000D02*
X140615641Y-112396000D01*
X140308359Y-113156000D02*
X140615641Y-113156000D01*
%TO.C,R110*%
X134926303Y-127478770D02*
X134590770Y-127814303D01*
X135665230Y-128217697D02*
X135329697Y-128553230D01*
%TO.C,TP103*%
X118044000Y-118364000D02*
G75*
G03*
X118044000Y-118364000I-950000J0D01*
G01*
%TO.C,C108*%
X127584810Y-121590307D02*
X127432307Y-121742810D01*
X127075693Y-121081190D02*
X126923190Y-121233693D01*
%TO.C,J103*%
X152166000Y-102090000D02*
X152166000Y-113810000D01*
X145966000Y-109310000D02*
X148356000Y-109310000D01*
X152166000Y-113810000D02*
X150746000Y-113810000D01*
X149906000Y-113500000D02*
X149306000Y-113500000D01*
X147356000Y-108200000D02*
X147356000Y-102700000D01*
X144546000Y-113810000D02*
X145966000Y-113810000D01*
X147356000Y-102700000D02*
X146856000Y-102700000D01*
X149606000Y-112900000D02*
X149906000Y-113500000D01*
X144546000Y-102090000D02*
X144546000Y-113810000D01*
X149856000Y-108200000D02*
X149856000Y-102700000D01*
X148356000Y-102090000D02*
X144546000Y-102090000D01*
X146856000Y-102700000D02*
X146856000Y-108200000D01*
X149356000Y-102700000D02*
X149356000Y-108200000D01*
X145966000Y-113810000D02*
X145966000Y-109310000D01*
X146856000Y-108200000D02*
X147356000Y-108200000D01*
X148356000Y-102090000D02*
X152166000Y-102090000D01*
X149306000Y-113500000D02*
X149606000Y-112900000D01*
X150746000Y-109310000D02*
X148356000Y-109310000D01*
X150746000Y-113810000D02*
X150746000Y-109310000D01*
X149856000Y-102700000D02*
X149356000Y-102700000D01*
X149356000Y-108200000D02*
X149856000Y-108200000D01*
%TO.C,D101*%
X141439000Y-113565000D02*
X139154000Y-113565000D01*
X139154000Y-115035000D02*
X141439000Y-115035000D01*
X141439000Y-115035000D02*
X141439000Y-113565000D01*
%TO.C,RV101*%
X120600314Y-123952000D02*
X120834366Y-123717948D01*
X123952000Y-127303686D02*
X124751031Y-126504655D01*
X123952000Y-120600314D02*
X127303686Y-123952000D01*
X126504655Y-124751031D02*
X127303686Y-123952000D01*
X123718655Y-120833659D02*
X123952000Y-120600314D01*
X122093016Y-122459298D02*
X122460005Y-122092309D01*
X120600314Y-123952000D02*
X123952000Y-127303686D01*
%TO.C,R102*%
X134967940Y-115446659D02*
X134750659Y-115663940D01*
X135505341Y-115984060D02*
X135288060Y-116201341D01*
%TO.C,C109*%
X139776810Y-120828307D02*
X139624307Y-120980810D01*
X139267693Y-120319190D02*
X139115190Y-120471693D01*
%TO.C,C112*%
X140791693Y-128346810D02*
X140639190Y-128194307D01*
X141300810Y-127837693D02*
X141148307Y-127685190D01*
%TO.C,U102*%
X121578913Y-130389087D02*
X122038533Y-130848706D01*
X121578913Y-130389087D02*
X121119294Y-129929467D01*
X123785087Y-128182913D02*
X124244706Y-128642533D01*
X123785087Y-128182913D02*
X122600683Y-126998510D01*
%TO.C,R103*%
X131949341Y-129125940D02*
X131732060Y-128908659D01*
X131411940Y-129663341D02*
X131194659Y-129446060D01*
%TO.C,R112*%
X120997940Y-126361341D02*
X120780659Y-126144060D01*
X121535341Y-125823940D02*
X121318060Y-125606659D01*
%TO.C,R113*%
X132434359Y-106808000D02*
X132741641Y-106808000D01*
X132434359Y-107568000D02*
X132741641Y-107568000D01*
%TO.C,TP102*%
X118044000Y-115316000D02*
G75*
G03*
X118044000Y-115316000I-950000J0D01*
G01*
%TO.C,C103*%
X140569836Y-111146000D02*
X140354164Y-111146000D01*
X140569836Y-111866000D02*
X140354164Y-111866000D01*
D12*
%TO.C,U104*%
X133350000Y-127631747D02*
X133689411Y-127292336D01*
X138299747Y-122682000D02*
X137960336Y-123021411D01*
X133350000Y-117732253D02*
X133010589Y-118071664D01*
X133350000Y-117732253D02*
X133689411Y-118071664D01*
X128400253Y-122682000D02*
X128739664Y-123021411D01*
X128400253Y-122682000D02*
X128739664Y-122342589D01*
X138299747Y-122682000D02*
X137960336Y-122342589D01*
X133350000Y-127631747D02*
X133010589Y-127292336D01*
D13*
X138452779Y-121356175D02*
G75*
G03*
X138452779Y-121356175I-99999J0D01*
G01*
D11*
%TO.C,R111*%
X137189230Y-128979697D02*
X136853697Y-129315230D01*
X136450303Y-128240770D02*
X136114770Y-128576303D01*
%TO.C,R114*%
X141832359Y-107568000D02*
X142139641Y-107568000D01*
X141832359Y-106808000D02*
X142139641Y-106808000D01*
%TO.C,C105*%
X135488000Y-108565836D02*
X135488000Y-108350164D01*
X134768000Y-108565836D02*
X134768000Y-108350164D01*
%TO.C,C102*%
X132187836Y-112120000D02*
X131972164Y-112120000D01*
X132187836Y-111400000D02*
X131972164Y-111400000D01*
%TO.C,J101*%
X128650000Y-133990000D02*
X128650000Y-135990000D01*
X138050000Y-137890000D02*
X138050000Y-139790000D01*
X128650000Y-139790000D02*
X138050000Y-139790000D01*
X128650000Y-137890000D02*
X128650000Y-139790000D01*
X138050000Y-133990000D02*
X138050000Y-135990000D01*
%TD*%
M02*
