%TF.GenerationSoftware,KiCad,Pcbnew,(6.0.9-0)*%
%TF.CreationDate,2022-12-13T13:56:08-05:00*%
%TF.ProjectId,easy-esc,65617379-2d65-4736-932e-6b696361645f,rev?*%
%TF.SameCoordinates,Original*%
%TF.FileFunction,Copper,L1,Top*%
%TF.FilePolarity,Positive*%
%FSLAX46Y46*%
G04 Gerber Fmt 4.6, Leading zero omitted, Abs format (unit mm)*
G04 Created by KiCad (PCBNEW (6.0.9-0)) date 2022-12-13 13:56:08*
%MOMM*%
%LPD*%
G01*
G04 APERTURE LIST*
G04 Aperture macros list*
%AMRoundRect*
0 Rectangle with rounded corners*
0 $1 Rounding radius*
0 $2 $3 $4 $5 $6 $7 $8 $9 X,Y pos of 4 corners*
0 Add a 4 corners polygon primitive as box body*
4,1,4,$2,$3,$4,$5,$6,$7,$8,$9,$2,$3,0*
0 Add four circle primitives for the rounded corners*
1,1,$1+$1,$2,$3*
1,1,$1+$1,$4,$5*
1,1,$1+$1,$6,$7*
1,1,$1+$1,$8,$9*
0 Add four rect primitives between the rounded corners*
20,1,$1+$1,$2,$3,$4,$5,0*
20,1,$1+$1,$4,$5,$6,$7,0*
20,1,$1+$1,$6,$7,$8,$9,0*
20,1,$1+$1,$8,$9,$2,$3,0*%
%AMRotRect*
0 Rectangle, with rotation*
0 The origin of the aperture is its center*
0 $1 length*
0 $2 width*
0 $3 Rotation angle, in degrees counterclockwise*
0 Add horizontal line*
21,1,$1,$2,0,0,$3*%
G04 Aperture macros list end*
%TA.AperFunction,SMDPad,CuDef*%
%ADD10RoundRect,0.050000X-0.375000X-0.050000X0.375000X-0.050000X0.375000X0.050000X-0.375000X0.050000X0*%
%TD*%
%TA.AperFunction,SMDPad,CuDef*%
%ADD11RoundRect,0.050000X-0.050000X-0.375000X0.050000X-0.375000X0.050000X0.375000X-0.050000X0.375000X0*%
%TD*%
%TA.AperFunction,SMDPad,CuDef*%
%ADD12R,1.650000X1.650000*%
%TD*%
%TA.AperFunction,SMDPad,CuDef*%
%ADD13RoundRect,0.250000X0.550000X-1.050000X0.550000X1.050000X-0.550000X1.050000X-0.550000X-1.050000X0*%
%TD*%
%TA.AperFunction,SMDPad,CuDef*%
%ADD14RoundRect,0.135000X-0.035355X0.226274X-0.226274X0.035355X0.035355X-0.226274X0.226274X-0.035355X0*%
%TD*%
%TA.AperFunction,SMDPad,CuDef*%
%ADD15RoundRect,0.150000X-0.150000X0.512500X-0.150000X-0.512500X0.150000X-0.512500X0.150000X0.512500X0*%
%TD*%
%TA.AperFunction,SMDPad,CuDef*%
%ADD16RoundRect,0.150000X-0.150000X0.650000X-0.150000X-0.650000X0.150000X-0.650000X0.150000X0.650000X0*%
%TD*%
%TA.AperFunction,SMDPad,CuDef*%
%ADD17R,0.750000X1.000000*%
%TD*%
%TA.AperFunction,SMDPad,CuDef*%
%ADD18RoundRect,0.135000X0.226274X0.035355X0.035355X0.226274X-0.226274X-0.035355X-0.035355X-0.226274X0*%
%TD*%
%TA.AperFunction,SMDPad,CuDef*%
%ADD19RoundRect,0.250000X1.425000X-0.362500X1.425000X0.362500X-1.425000X0.362500X-1.425000X-0.362500X0*%
%TD*%
%TA.AperFunction,SMDPad,CuDef*%
%ADD20RoundRect,0.135000X0.135000X0.185000X-0.135000X0.185000X-0.135000X-0.185000X0.135000X-0.185000X0*%
%TD*%
%TA.AperFunction,SMDPad,CuDef*%
%ADD21RoundRect,0.140000X0.219203X0.021213X0.021213X0.219203X-0.219203X-0.021213X-0.021213X-0.219203X0*%
%TD*%
%TA.AperFunction,SMDPad,CuDef*%
%ADD22RotRect,1.400000X1.200000X225.000000*%
%TD*%
%TA.AperFunction,SMDPad,CuDef*%
%ADD23RoundRect,0.135000X0.035355X-0.226274X0.226274X-0.035355X-0.035355X0.226274X-0.226274X0.035355X0*%
%TD*%
%TA.AperFunction,SMDPad,CuDef*%
%ADD24RoundRect,0.218750X-0.335876X-0.026517X-0.026517X-0.335876X0.335876X0.026517X0.026517X0.335876X0*%
%TD*%
%TA.AperFunction,ComponentPad*%
%ADD25C,5.000000*%
%TD*%
%TA.AperFunction,SMDPad,CuDef*%
%ADD26RoundRect,0.140000X0.021213X-0.219203X0.219203X-0.021213X-0.021213X0.219203X-0.219203X0.021213X0*%
%TD*%
%TA.AperFunction,SMDPad,CuDef*%
%ADD27RoundRect,0.140000X-0.140000X-0.170000X0.140000X-0.170000X0.140000X0.170000X-0.140000X0.170000X0*%
%TD*%
%TA.AperFunction,SMDPad,CuDef*%
%ADD28C,1.500000*%
%TD*%
%TA.AperFunction,SMDPad,CuDef*%
%ADD29RoundRect,0.140000X-0.021213X0.219203X-0.219203X0.021213X0.021213X-0.219203X0.219203X-0.021213X0*%
%TD*%
%TA.AperFunction,ComponentPad*%
%ADD30RoundRect,0.250000X0.600000X0.725000X-0.600000X0.725000X-0.600000X-0.725000X0.600000X-0.725000X0*%
%TD*%
%TA.AperFunction,ComponentPad*%
%ADD31O,1.700000X1.950000*%
%TD*%
%TA.AperFunction,SMDPad,CuDef*%
%ADD32RoundRect,0.135000X-0.135000X-0.185000X0.135000X-0.185000X0.135000X0.185000X-0.135000X0.185000X0*%
%TD*%
%TA.AperFunction,SMDPad,CuDef*%
%ADD33RoundRect,0.200000X-0.053033X0.335876X-0.335876X0.053033X0.053033X-0.335876X0.335876X-0.053033X0*%
%TD*%
%TA.AperFunction,ComponentPad*%
%ADD34RoundRect,0.250000X0.600000X0.750000X-0.600000X0.750000X-0.600000X-0.750000X0.600000X-0.750000X0*%
%TD*%
%TA.AperFunction,ComponentPad*%
%ADD35O,1.700000X2.000000*%
%TD*%
%TA.AperFunction,SMDPad,CuDef*%
%ADD36RoundRect,0.218750X0.218750X0.256250X-0.218750X0.256250X-0.218750X-0.256250X0.218750X-0.256250X0*%
%TD*%
%TA.AperFunction,SMDPad,CuDef*%
%ADD37RotRect,1.300000X2.000000X45.000000*%
%TD*%
%TA.AperFunction,SMDPad,CuDef*%
%ADD38RotRect,2.000000X2.000000X45.000000*%
%TD*%
%TA.AperFunction,SMDPad,CuDef*%
%ADD39RoundRect,0.150000X-0.521491X0.309359X0.309359X-0.521491X0.521491X-0.309359X-0.309359X0.521491X0*%
%TD*%
%TA.AperFunction,SMDPad,CuDef*%
%ADD40RoundRect,0.140000X0.140000X0.170000X-0.140000X0.170000X-0.140000X-0.170000X0.140000X-0.170000X0*%
%TD*%
%TA.AperFunction,SMDPad,CuDef*%
%ADD41RoundRect,0.006000X0.226274X0.359210X-0.359210X-0.226274X-0.226274X-0.359210X0.359210X0.226274X0*%
%TD*%
%TA.AperFunction,SMDPad,CuDef*%
%ADD42RoundRect,0.020000X-0.226274X0.339411X-0.339411X0.226274X0.226274X-0.339411X0.339411X-0.226274X0*%
%TD*%
%TA.AperFunction,SMDPad,CuDef*%
%ADD43RotRect,3.100000X3.100000X225.000000*%
%TD*%
%TA.AperFunction,SMDPad,CuDef*%
%ADD44R,1.600000X1.000000*%
%TD*%
%TA.AperFunction,SMDPad,CuDef*%
%ADD45RoundRect,0.140000X0.170000X-0.140000X0.170000X0.140000X-0.170000X0.140000X-0.170000X-0.140000X0*%
%TD*%
%TA.AperFunction,SMDPad,CuDef*%
%ADD46R,0.600000X1.450000*%
%TD*%
%TA.AperFunction,SMDPad,CuDef*%
%ADD47R,0.300000X1.450000*%
%TD*%
%TA.AperFunction,ComponentPad*%
%ADD48O,1.000000X1.600000*%
%TD*%
%TA.AperFunction,ComponentPad*%
%ADD49O,1.000000X2.100000*%
%TD*%
%TA.AperFunction,ViaPad*%
%ADD50C,0.800000*%
%TD*%
%TA.AperFunction,Conductor*%
%ADD51C,0.200000*%
%TD*%
%TA.AperFunction,Conductor*%
%ADD52C,1.000000*%
%TD*%
%TA.AperFunction,Conductor*%
%ADD53C,0.250000*%
%TD*%
G04 APERTURE END LIST*
D10*
%TO.P,U101,1,W*%
%TO.N,Net-(J102-Pad3)*%
X134440000Y-110960000D03*
%TO.P,U101,2,VCP*%
%TO.N,Net-(C102-Pad1)*%
X134440000Y-111360000D03*
%TO.P,U101,3,UH*%
%TO.N,UH*%
X134440000Y-111760000D03*
%TO.P,U101,4,VH*%
%TO.N,VH*%
X134440000Y-112160000D03*
%TO.P,U101,5,WH*%
%TO.N,WH*%
X134440000Y-112560000D03*
D11*
%TO.P,U101,6,UL*%
%TO.N,UL*%
X135090000Y-113210000D03*
%TO.P,U101,7,WL*%
%TO.N,WL*%
X135490000Y-113210000D03*
%TO.P,U101,8,GND*%
%TO.N,GND*%
X135890000Y-113210000D03*
%TO.P,U101,9,GND*%
X136290000Y-113210000D03*
%TO.P,U101,10,VL*%
%TO.N,VL*%
X136690000Y-113210000D03*
D10*
%TO.P,U101,11,VIO/STDBY*%
%TO.N,CLEAR*%
X137340000Y-112560000D03*
%TO.P,U101,12,DIAG*%
%TO.N,ERR*%
X137340000Y-112160000D03*
%TO.P,U101,13,1V8OUT*%
%TO.N,Net-(C101-Pad2)*%
X137340000Y-111760000D03*
%TO.P,U101,14,GND*%
%TO.N,GND*%
X137340000Y-111360000D03*
%TO.P,U101,15,U*%
%TO.N,Net-(J102-Pad1)*%
X137340000Y-110960000D03*
D11*
%TO.P,U101,16,BRUV*%
%TO.N,UVSENSE*%
X136690000Y-110310000D03*
%TO.P,U101,17,V*%
%TO.N,Net-(J102-Pad2)*%
X136290000Y-110310000D03*
%TO.P,U101,18,VS*%
%TO.N,+5V*%
X135890000Y-110310000D03*
%TO.P,U101,19*%
%TO.N,N/C*%
X135490000Y-110310000D03*
%TO.P,U101,20,BRW*%
%TO.N,WSENSE*%
X135090000Y-110310000D03*
D12*
%TO.P,U101,21,PAD*%
%TO.N,GND*%
X135890000Y-111760000D03*
%TD*%
D13*
%TO.P,C113,1*%
%TO.N,+5V*%
X137414000Y-107464000D03*
%TO.P,C113,2*%
%TO.N,GND*%
X137414000Y-103864000D03*
%TD*%
D14*
%TO.P,R109,1*%
%TO.N,RESET*%
X126344624Y-127909376D03*
%TO.P,R109,2*%
%TO.N,Net-(R109-Pad2)*%
X125623376Y-128630624D03*
%TD*%
D15*
%TO.P,U105,1*%
%TO.N,WCUR*%
X141412000Y-116210500D03*
%TO.P,U105,2,GND*%
%TO.N,GND*%
X140462000Y-116210500D03*
%TO.P,U105,3,+*%
%TO.N,WSENSE*%
X139512000Y-116210500D03*
%TO.P,U105,4,-*%
%TO.N,GND*%
X139512000Y-118485500D03*
%TO.P,U105,5,V+*%
%TO.N,+3V3*%
X141412000Y-118485500D03*
%TD*%
D16*
%TO.P,U103,1,~{CS}*%
%TO.N,QCS*%
X151003000Y-123654000D03*
%TO.P,U103,2,DO(IO1)*%
%TO.N,QD0*%
X149733000Y-123654000D03*
%TO.P,U103,3,IO2*%
%TO.N,QD2*%
X148463000Y-123654000D03*
%TO.P,U103,4,GND*%
%TO.N,GND*%
X147193000Y-123654000D03*
%TO.P,U103,5,DI(IO0)*%
%TO.N,QD1*%
X147193000Y-130854000D03*
%TO.P,U103,6,CLK*%
%TO.N,QCLK*%
X148463000Y-130854000D03*
%TO.P,U103,7,IO3*%
%TO.N,QD3*%
X149733000Y-130854000D03*
%TO.P,U103,8,VCC*%
%TO.N,+3V3*%
X151003000Y-130854000D03*
%TD*%
D17*
%TO.P,SW101,1,A*%
%TO.N,Net-(R108-Pad2)*%
X141127000Y-131620000D03*
X141127000Y-137620000D03*
%TO.P,SW101,2,B*%
%TO.N,GND*%
X144877000Y-131620000D03*
X144877000Y-137620000D03*
%TD*%
D18*
%TO.P,R107,1*%
%TO.N,GND*%
X131424624Y-115422624D03*
%TO.P,R107,2*%
%TO.N,Net-(D102-Pad1)*%
X130703376Y-114701376D03*
%TD*%
D19*
%TO.P,R105,1*%
%TO.N,WSENSE*%
X132588000Y-108626500D03*
%TO.P,R105,2*%
%TO.N,GND*%
X132588000Y-102701500D03*
%TD*%
D20*
%TO.P,R108,1*%
%TO.N,QCLK*%
X147830000Y-132842000D03*
%TO.P,R108,2*%
%TO.N,Net-(R108-Pad2)*%
X146810000Y-132842000D03*
%TD*%
D21*
%TO.P,C107,1*%
%TO.N,XIN*%
X128609411Y-117179411D03*
%TO.P,C107,2*%
%TO.N,GND*%
X127930589Y-116500589D03*
%TD*%
D22*
%TO.P,Y101,1,1*%
%TO.N,XIN*%
X126414777Y-117493142D03*
%TO.P,Y101,2,2*%
%TO.N,GND*%
X124859142Y-119048777D03*
%TO.P,Y101,3,3*%
%TO.N,XOUT*%
X126061223Y-120250858D03*
%TO.P,Y101,4,4*%
%TO.N,GND*%
X127616858Y-118695223D03*
%TD*%
D23*
%TO.P,R104,1*%
%TO.N,Net-(J101-PadB5)*%
X137815376Y-129900624D03*
%TO.P,R104,2*%
%TO.N,GND*%
X138536624Y-129179376D03*
%TD*%
D21*
%TO.P,C110,1*%
%TO.N,GND*%
X139531411Y-128355411D03*
%TO.P,C110,2*%
%TO.N,+3V3*%
X138852589Y-127676589D03*
%TD*%
D24*
%TO.P,D102,1,K*%
%TO.N,Net-(D102-Pad1)*%
X129745153Y-116029153D03*
%TO.P,D102,2,A*%
%TO.N,Net-(D102-Pad2)*%
X130858847Y-117142847D03*
%TD*%
D25*
%TO.P,H101,1,1*%
%TO.N,GND*%
X116596000Y-103896000D03*
X116596000Y-136896000D03*
X149596000Y-136896000D03*
%TD*%
D26*
%TO.P,C104,1*%
%TO.N,+5V*%
X126660589Y-129625411D03*
%TO.P,C104,2*%
%TO.N,GND*%
X127339411Y-128946589D03*
%TD*%
D27*
%TO.P,C101,1*%
%TO.N,GND*%
X139982000Y-110236000D03*
%TO.P,C101,2*%
%TO.N,Net-(C101-Pad2)*%
X140942000Y-110236000D03*
%TD*%
D28*
%TO.P,TP105,1,1*%
%TO.N,+3V3*%
X117094000Y-131826000D03*
%TD*%
D29*
%TO.P,C111,1*%
%TO.N,GND*%
X137245411Y-117262589D03*
%TO.P,C111,2*%
%TO.N,+3V3*%
X136566589Y-117941411D03*
%TD*%
D15*
%TO.P,U106,1*%
%TO.N,UVCUR*%
X144968000Y-116210500D03*
%TO.P,U106,2,GND*%
%TO.N,GND*%
X144018000Y-116210500D03*
%TO.P,U106,3,+*%
%TO.N,UVSENSE*%
X143068000Y-116210500D03*
%TO.P,U106,4,-*%
%TO.N,GND*%
X143068000Y-118485500D03*
%TO.P,U106,5,V+*%
%TO.N,+3V3*%
X144968000Y-118485500D03*
%TD*%
D30*
%TO.P,J102,1,Pin_1*%
%TO.N,Net-(J102-Pad1)*%
X127508000Y-111506000D03*
D31*
%TO.P,J102,2,Pin_2*%
%TO.N,Net-(J102-Pad2)*%
X125008000Y-111506000D03*
%TO.P,J102,3,Pin_3*%
%TO.N,Net-(J102-Pad3)*%
X122508000Y-111506000D03*
%TD*%
D21*
%TO.P,C106,1*%
%TO.N,+5V*%
X129879411Y-129625411D03*
%TO.P,C106,2*%
%TO.N,GND*%
X129200589Y-128946589D03*
%TD*%
D28*
%TO.P,TP104,1,1*%
%TO.N,+5V*%
X117094000Y-128016000D03*
%TD*%
D19*
%TO.P,R106,1*%
%TO.N,UVSENSE*%
X141986000Y-108626500D03*
%TO.P,R106,2*%
%TO.N,GND*%
X141986000Y-102701500D03*
%TD*%
D28*
%TO.P,TP101,1,1*%
%TO.N,Net-(J102-Pad1)*%
X117094000Y-112268000D03*
%TD*%
D32*
%TO.P,R101,1*%
%TO.N,GND*%
X139952000Y-112776000D03*
%TO.P,R101,2*%
%TO.N,Net-(D101-Pad1)*%
X140972000Y-112776000D03*
%TD*%
D33*
%TO.P,R110,1*%
%TO.N,Net-(R110-Pad1)*%
X135711363Y-127432637D03*
%TO.P,R110,2*%
%TO.N,USBD_N*%
X134544637Y-128599363D03*
%TD*%
D28*
%TO.P,TP103,1,1*%
%TO.N,Net-(J102-Pad3)*%
X117094000Y-118364000D03*
%TD*%
D29*
%TO.P,C108,1*%
%TO.N,XOUT*%
X127593411Y-121072589D03*
%TO.P,C108,2*%
%TO.N,GND*%
X126914589Y-121751411D03*
%TD*%
D34*
%TO.P,J103,1,Pin_1*%
%TO.N,+5V*%
X149606000Y-111400000D03*
D35*
%TO.P,J103,2,Pin_2*%
%TO.N,GND*%
X147106000Y-111400000D03*
%TD*%
D36*
%TO.P,D101,1,K*%
%TO.N,Net-(D101-Pad1)*%
X140741500Y-114300000D03*
%TO.P,D101,2,A*%
%TO.N,ERR*%
X139166500Y-114300000D03*
%TD*%
D37*
%TO.P,RV101,1,1*%
%TO.N,+3V3*%
X123350959Y-121724614D03*
D38*
%TO.P,RV101,2,2*%
%TO.N,MANUAL*%
X125366214Y-125366214D03*
D37*
%TO.P,RV101,3,3*%
%TO.N,Net-(R112-Pad2)*%
X121724614Y-123350959D03*
%TD*%
D14*
%TO.P,R102,1*%
%TO.N,+3V3*%
X135488624Y-115463376D03*
%TO.P,R102,2*%
%TO.N,CLEAR*%
X134767376Y-116184624D03*
%TD*%
D29*
%TO.P,C109,1*%
%TO.N,GND*%
X139785411Y-120310589D03*
%TO.P,C109,2*%
%TO.N,+3V3*%
X139106589Y-120989411D03*
%TD*%
D21*
%TO.P,C112,1*%
%TO.N,GND*%
X141309411Y-128355411D03*
%TO.P,C112,2*%
%TO.N,+3V3*%
X140630589Y-127676589D03*
%TD*%
D39*
%TO.P,U102,1,GND*%
%TO.N,GND*%
X122690839Y-127951336D03*
%TO.P,U102,2,VOUT*%
%TO.N,+3V3*%
X121347336Y-129294839D03*
%TO.P,U102,3,VIN*%
%TO.N,+5V*%
X123344913Y-129948913D03*
%TD*%
D18*
%TO.P,R103,1*%
%TO.N,Net-(J101-PadA5)*%
X131932624Y-129646624D03*
%TO.P,R103,2*%
%TO.N,GND*%
X131211376Y-128925376D03*
%TD*%
%TO.P,R112,1*%
%TO.N,GND*%
X121518624Y-126344624D03*
%TO.P,R112,2*%
%TO.N,Net-(R112-Pad2)*%
X120797376Y-125623376D03*
%TD*%
D17*
%TO.P,SW102,1,A*%
%TO.N,Net-(R109-Pad2)*%
X125065000Y-137668000D03*
X125065000Y-131668000D03*
%TO.P,SW102,2,B*%
%TO.N,GND*%
X121315000Y-131668000D03*
X121315000Y-137668000D03*
%TD*%
D32*
%TO.P,R113,1*%
%TO.N,WSENSE*%
X132078000Y-107188000D03*
%TO.P,R113,2*%
%TO.N,GND*%
X133098000Y-107188000D03*
%TD*%
D28*
%TO.P,TP102,1,1*%
%TO.N,Net-(J102-Pad2)*%
X117094000Y-115316000D03*
%TD*%
D40*
%TO.P,C103,1*%
%TO.N,+5V*%
X140942000Y-111506000D03*
%TO.P,C103,2*%
%TO.N,GND*%
X139982000Y-111506000D03*
%TD*%
D41*
%TO.P,U104,1,IOVDD*%
%TO.N,+3V3*%
X137617389Y-122091566D03*
%TO.P,U104,2,GPIO0*%
%TO.N,UL*%
X137334547Y-121808723D03*
%TO.P,U104,3,GPIO1*%
%TO.N,unconnected-(U104-Pad3)*%
X137051704Y-121525880D03*
%TO.P,U104,4,GPIO2*%
%TO.N,UH*%
X136768861Y-121243038D03*
%TO.P,U104,5,GPIO3*%
%TO.N,unconnected-(U104-Pad5)*%
X136486019Y-120960195D03*
%TO.P,U104,6,GPIO4*%
%TO.N,VL*%
X136203176Y-120677352D03*
%TO.P,U104,7,GPIO5*%
%TO.N,unconnected-(U104-Pad7)*%
X135920333Y-120394510D03*
%TO.P,U104,8,GPIO6*%
%TO.N,VH*%
X135637490Y-120111667D03*
%TO.P,U104,9,GPIO7*%
%TO.N,unconnected-(U104-Pad9)*%
X135354648Y-119828824D03*
%TO.P,U104,10,IOVDD*%
%TO.N,+3V3*%
X135071805Y-119545981D03*
%TO.P,U104,11,GPIO8*%
%TO.N,WL*%
X134788962Y-119263139D03*
%TO.P,U104,12,GPIO9*%
%TO.N,unconnected-(U104-Pad12)*%
X134506120Y-118980296D03*
%TO.P,U104,13,GPIO10*%
%TO.N,WH*%
X134223277Y-118697453D03*
%TO.P,U104,14,GPIO11*%
%TO.N,CLEAR*%
X133940434Y-118414611D03*
D42*
%TO.P,U104,15,GPIO12*%
%TO.N,ERROR*%
X132759566Y-118414611D03*
%TO.P,U104,16,GPIO13*%
%TO.N,unconnected-(U104-Pad16)*%
X132476723Y-118697453D03*
%TO.P,U104,17,GPIO14*%
%TO.N,Net-(D102-Pad2)*%
X132193880Y-118980296D03*
%TO.P,U104,18,GPIO15*%
%TO.N,unconnected-(U104-Pad18)*%
X131911038Y-119263139D03*
%TO.P,U104,19,TESTEN*%
%TO.N,GND*%
X131628195Y-119545981D03*
%TO.P,U104,20,XIN*%
%TO.N,XIN*%
X131345352Y-119828824D03*
%TO.P,U104,21,XOUT*%
%TO.N,XOUT*%
X131062510Y-120111667D03*
%TO.P,U104,22,IOVDD*%
%TO.N,+3V3*%
X130779667Y-120394510D03*
%TO.P,U104,23,DVDD*%
%TO.N,Net-(U104-Pad23)*%
X130496824Y-120677352D03*
%TO.P,U104,24,SWCLK*%
%TO.N,SWDCLK*%
X130213981Y-120960195D03*
%TO.P,U104,25,SWD*%
%TO.N,SWDIO*%
X129931139Y-121243038D03*
%TO.P,U104,26,RUN*%
%TO.N,RESET*%
X129648296Y-121525880D03*
%TO.P,U104,27,GPIO16*%
%TO.N,unconnected-(U104-Pad27)*%
X129365453Y-121808723D03*
%TO.P,U104,28,GPIO17*%
%TO.N,unconnected-(U104-Pad28)*%
X129082611Y-122091566D03*
D41*
%TO.P,U104,29,GPIO18*%
%TO.N,unconnected-(U104-Pad29)*%
X129082611Y-123272434D03*
%TO.P,U104,30,GPIO19*%
%TO.N,unconnected-(U104-Pad30)*%
X129365453Y-123555277D03*
%TO.P,U104,31,GPIO20*%
%TO.N,unconnected-(U104-Pad31)*%
X129648296Y-123838120D03*
%TO.P,U104,32,GPIO21*%
%TO.N,unconnected-(U104-Pad32)*%
X129931139Y-124120962D03*
%TO.P,U104,33,IOVDD*%
%TO.N,+3V3*%
X130213981Y-124403805D03*
%TO.P,U104,34,GPIO22*%
%TO.N,unconnected-(U104-Pad34)*%
X130496824Y-124686648D03*
%TO.P,U104,35,GPIO23*%
%TO.N,unconnected-(U104-Pad35)*%
X130779667Y-124969490D03*
%TO.P,U104,36,GPIO24*%
%TO.N,unconnected-(U104-Pad36)*%
X131062510Y-125252333D03*
%TO.P,U104,37,GPIO25*%
%TO.N,unconnected-(U104-Pad37)*%
X131345352Y-125535176D03*
%TO.P,U104,38,GPIO26/ADC0*%
%TO.N,WCUR*%
X131628195Y-125818019D03*
%TO.P,U104,39,GPIO27/ADC1*%
%TO.N,UVCUR*%
X131911038Y-126100861D03*
%TO.P,U104,40,GPIO28/ADC2*%
%TO.N,MANUAL*%
X132193880Y-126383704D03*
%TO.P,U104,41,GPIO29/ADC3*%
%TO.N,unconnected-(U104-Pad41)*%
X132476723Y-126666547D03*
%TO.P,U104,42,IOVDD*%
%TO.N,+3V3*%
X132759566Y-126949389D03*
D42*
%TO.P,U104,43,ADC_AVDD*%
X133940434Y-126949389D03*
%TO.P,U104,44,VREG_VIN*%
X134223277Y-126666547D03*
%TO.P,U104,45,VREG_VOUT*%
%TO.N,Net-(U104-Pad23)*%
X134506120Y-126383704D03*
%TO.P,U104,46,USB_DM*%
%TO.N,Net-(R110-Pad1)*%
X134788962Y-126100861D03*
%TO.P,U104,47,USB_DP*%
%TO.N,Net-(R111-Pad1)*%
X135071805Y-125818019D03*
%TO.P,U104,48,USB_VDD*%
%TO.N,+3V3*%
X135354648Y-125535176D03*
%TO.P,U104,49,IOVDD*%
X135637490Y-125252333D03*
%TO.P,U104,50,DVDD*%
%TO.N,Net-(U104-Pad23)*%
X135920333Y-124969490D03*
%TO.P,U104,51,QSPI_SD3*%
%TO.N,QD3*%
X136203176Y-124686648D03*
%TO.P,U104,52,QSPI_SCLK*%
%TO.N,QCLK*%
X136486019Y-124403805D03*
%TO.P,U104,53,QSPI_SD0*%
%TO.N,QD0*%
X136768861Y-124120962D03*
%TO.P,U104,54,QSPI_SD2*%
%TO.N,QD2*%
X137051704Y-123838120D03*
%TO.P,U104,55,QSPI_SD1*%
%TO.N,QD1*%
X137334547Y-123555277D03*
%TO.P,U104,56,QSPI_CSN*%
%TO.N,QCS*%
X137617389Y-123272434D03*
D43*
%TO.P,U104,57,GND*%
%TO.N,GND*%
X133350000Y-122682000D03*
%TD*%
D44*
%TO.P,SW103,1,A*%
%TO.N,GND*%
X148120000Y-115856000D03*
%TO.P,SW103,2,B*%
%TO.N,CLEAR*%
X148120000Y-118356000D03*
%TO.P,SW103,3*%
%TO.N,N/C*%
X148120000Y-120856000D03*
%TO.P,SW103,4*%
X150520000Y-115856000D03*
%TO.P,SW103,5*%
X150520000Y-118356000D03*
%TO.P,SW103,6*%
X150520000Y-120856000D03*
%TD*%
D33*
%TO.P,R111,1*%
%TO.N,Net-(R111-Pad1)*%
X137235363Y-128194637D03*
%TO.P,R111,2*%
%TO.N,USBD_P*%
X136068637Y-129361363D03*
%TD*%
D32*
%TO.P,R114,1*%
%TO.N,UVSENSE*%
X141476000Y-107188000D03*
%TO.P,R114,2*%
%TO.N,GND*%
X142496000Y-107188000D03*
%TD*%
D45*
%TO.P,C105,1*%
%TO.N,+5V*%
X135128000Y-108938000D03*
%TO.P,C105,2*%
%TO.N,GND*%
X135128000Y-107978000D03*
%TD*%
D40*
%TO.P,C102,1*%
%TO.N,Net-(C102-Pad1)*%
X132560000Y-111760000D03*
%TO.P,C102,2*%
%TO.N,+5V*%
X131600000Y-111760000D03*
%TD*%
D46*
%TO.P,J101,A1,GND*%
%TO.N,GND*%
X130100000Y-131845000D03*
%TO.P,J101,A4,VBUS*%
%TO.N,+5V*%
X130900000Y-131845000D03*
D47*
%TO.P,J101,A5,CC1*%
%TO.N,Net-(J101-PadA5)*%
X132100000Y-131845000D03*
%TO.P,J101,A6,D+*%
%TO.N,USBD_P*%
X133100000Y-131845000D03*
%TO.P,J101,A7,D-*%
%TO.N,USBD_N*%
X133600000Y-131845000D03*
%TO.P,J101,A8,SBU1*%
%TO.N,unconnected-(J101-PadA8)*%
X134600000Y-131845000D03*
D46*
%TO.P,J101,A9,VBUS*%
%TO.N,+5V*%
X135800000Y-131845000D03*
%TO.P,J101,A12,GND*%
%TO.N,GND*%
X136600000Y-131845000D03*
%TO.P,J101,B1,GND*%
X136600000Y-131845000D03*
%TO.P,J101,B4,VBUS*%
%TO.N,+5V*%
X135800000Y-131845000D03*
D47*
%TO.P,J101,B5,CC2*%
%TO.N,Net-(J101-PadB5)*%
X135100000Y-131845000D03*
%TO.P,J101,B6,D+*%
%TO.N,USBD_P*%
X134100000Y-131845000D03*
%TO.P,J101,B7,D-*%
%TO.N,USBD_N*%
X132600000Y-131845000D03*
%TO.P,J101,B8,SBU2*%
%TO.N,unconnected-(J101-PadB8)*%
X131600000Y-131845000D03*
D46*
%TO.P,J101,B9,VBUS*%
%TO.N,+5V*%
X130900000Y-131845000D03*
%TO.P,J101,B12,GND*%
%TO.N,GND*%
X130100000Y-131845000D03*
D48*
%TO.P,J101,S1,SHIELD*%
X129030000Y-136940000D03*
X137670000Y-136940000D03*
D49*
X137670000Y-132760000D03*
X129030000Y-132760000D03*
%TD*%
D50*
%TO.N,GND*%
X134874000Y-122682000D03*
X134112000Y-121920000D03*
X133350000Y-121158000D03*
X130839886Y-118334114D03*
%TO.N,+5V*%
X117094000Y-125984000D03*
X127222365Y-115062000D03*
X137414000Y-107696000D03*
%TO.N,GND*%
X135890000Y-104140000D03*
X138938000Y-104140000D03*
X138176000Y-101854000D03*
X136652000Y-101854000D03*
%TO.N,+5V*%
X135614500Y-106680000D03*
%TO.N,GND*%
X132588000Y-123444000D03*
X120396000Y-137668000D03*
X140208000Y-117348000D03*
X140462000Y-129286000D03*
X139531500Y-102701500D03*
X132588000Y-121920000D03*
X133350000Y-124206000D03*
X127762000Y-118618000D03*
X135042500Y-102701500D03*
X139446000Y-130048000D03*
X143256000Y-131572000D03*
X143256000Y-137668000D03*
X132842000Y-129032000D03*
X126238000Y-122428000D03*
X145288000Y-123190000D03*
X134112000Y-107188000D03*
X133350000Y-122682000D03*
X134112000Y-123444000D03*
X143510000Y-107188000D03*
X145034000Y-114808000D03*
X135890000Y-111760000D03*
X139192000Y-111506000D03*
X120650000Y-127508000D03*
X137730500Y-116840000D03*
X132080000Y-116078000D03*
X124714000Y-119126000D03*
X131826000Y-122682000D03*
X120396000Y-131572000D03*
X142240000Y-129286000D03*
%TO.N,+5V*%
X141913628Y-109882872D03*
X130697000Y-112663000D03*
%TO.N,+3V3*%
X142494000Y-134874000D03*
X137414000Y-134874000D03*
X138991459Y-119814017D03*
X137343642Y-118547642D03*
X135871743Y-116059743D03*
%TO.N,Net-(J102-Pad1)*%
X137397807Y-110233994D03*
%TO.N,CLEAR*%
X146558000Y-118364000D03*
X138173560Y-113032440D03*
X135109743Y-116821743D03*
%TO.N,WSENSE*%
X133350000Y-110236000D03*
X139102500Y-110490000D03*
%TO.N,RESET*%
X127886500Y-126492000D03*
X129399269Y-120255269D03*
%TO.N,Net-(R109-Pad2)*%
X124968000Y-128016000D03*
X126238000Y-131572000D03*
%TO.N,UH*%
X137476500Y-120396000D03*
X132588000Y-114300000D03*
%TO.N,VH*%
X133096000Y-113284000D03*
X136439515Y-119167515D03*
%TO.N,UL*%
X134790566Y-114102602D03*
X137668000Y-114300000D03*
%TO.N,QD1*%
X145288000Y-124206000D03*
X146812000Y-126746000D03*
%TO.N,QD3*%
X145542000Y-126746000D03*
X148654500Y-126746000D03*
%TO.N,Net-(U104-Pad23)*%
X133327083Y-119274031D03*
X136652000Y-122682000D03*
%TO.N,UVCUR*%
X142494000Y-120650000D03*
X129286000Y-126746000D03*
%TO.N,WCUR*%
X140208000Y-121920000D03*
X129794000Y-125730000D03*
%TD*%
D51*
%TO.N,GND*%
X131628195Y-119545981D02*
X131251627Y-119169413D01*
X131251627Y-119169413D02*
X131251627Y-118745855D01*
X131251627Y-118745855D02*
X130839886Y-118334114D01*
X127930589Y-116500589D02*
X127508000Y-116078000D01*
X127508000Y-116078000D02*
X126492000Y-116078000D01*
X126492000Y-116078000D02*
X124859142Y-117710858D01*
X124859142Y-117710858D02*
X124859142Y-119048777D01*
D52*
%TO.N,+5V*%
X127222365Y-115062000D02*
X128385370Y-115062000D01*
X128385370Y-115062000D02*
X130740685Y-112706685D01*
D51*
%TO.N,Net-(D102-Pad1)*%
X130703376Y-114701376D02*
X130088752Y-115316000D01*
X130088752Y-115316000D02*
X130088752Y-115685554D01*
%TO.N,Net-(D102-Pad2)*%
X131366847Y-117142847D02*
X130858847Y-117142847D01*
%TO.N,Net-(D102-Pad1)*%
X130088752Y-115685554D02*
X129745153Y-116029153D01*
%TO.N,Net-(D102-Pad2)*%
X131817312Y-118603727D02*
X131817312Y-117593312D01*
X131817312Y-117593312D02*
X131366847Y-117142847D01*
X132193880Y-118980296D02*
X131817312Y-118603727D01*
%TO.N,XIN*%
X128609411Y-117179411D02*
X128440822Y-117348000D01*
X128440822Y-117348000D02*
X127254000Y-117348000D01*
X131345352Y-119828824D02*
X129880528Y-118364000D01*
X129880528Y-118364000D02*
X129794000Y-118364000D01*
X129794000Y-118364000D02*
X128609411Y-117179411D01*
D52*
%TO.N,+5V*%
X117094000Y-125984000D02*
X117094000Y-128016000D01*
D51*
X130697000Y-112663000D02*
X131600000Y-111760000D01*
X141913628Y-109882872D02*
X141913628Y-110816372D01*
X141913628Y-110816372D02*
X141224000Y-111506000D01*
X141224000Y-111506000D02*
X140942000Y-111506000D01*
%TO.N,Net-(J102-Pad2)*%
X125008000Y-111506000D02*
X123230000Y-109728000D01*
X123230000Y-109728000D02*
X121539000Y-109728000D01*
X121539000Y-109728000D02*
X120650000Y-110617000D01*
X120650000Y-110617000D02*
X120650000Y-113284000D01*
X120650000Y-113284000D02*
X118618000Y-115316000D01*
X118618000Y-115316000D02*
X117094000Y-115316000D01*
%TO.N,QCS*%
X151003000Y-122555000D02*
X151003000Y-123654000D01*
%TO.N,+3V3*%
X135354648Y-125535176D02*
X135637490Y-125252333D01*
%TO.N,GND*%
X137414000Y-103864000D02*
X137138000Y-104140000D01*
X137138000Y-104140000D02*
X135890000Y-104140000D01*
X137414000Y-103864000D02*
X137690000Y-104140000D01*
X137690000Y-104140000D02*
X138938000Y-104140000D01*
X137414000Y-102108000D02*
X137160000Y-101854000D01*
X137160000Y-101854000D02*
X136652000Y-101854000D01*
X137414000Y-102616000D02*
X137414000Y-102108000D01*
X137414000Y-102108000D02*
X137668000Y-101854000D01*
X137668000Y-101854000D02*
X138176000Y-101854000D01*
X137414000Y-103864000D02*
X137414000Y-102616000D01*
X134874000Y-107188000D02*
X134112000Y-107188000D01*
X135128000Y-107978000D02*
X135128000Y-107442000D01*
%TO.N,+5V*%
X135890000Y-108176000D02*
X135890000Y-106955500D01*
X135128000Y-108938000D02*
X135890000Y-108176000D01*
X135296686Y-109585000D02*
X135128000Y-109416314D01*
X135890000Y-106955500D02*
X135614500Y-106680000D01*
X135890000Y-110310000D02*
X135890000Y-109790025D01*
X135890000Y-109790025D02*
X135684975Y-109585000D01*
X135684975Y-109585000D02*
X135296686Y-109585000D01*
X135128000Y-109416314D02*
X135128000Y-108938000D01*
%TO.N,GND*%
X135128000Y-107442000D02*
X134874000Y-107188000D01*
%TO.N,UVSENSE*%
X136690000Y-110310000D02*
X136690000Y-109951851D01*
X136690000Y-109951851D02*
X137107857Y-109533994D01*
X137107857Y-109533994D02*
X138116006Y-109533994D01*
X138116006Y-109533994D02*
X139023500Y-108626500D01*
X139023500Y-108626500D02*
X141986000Y-108626500D01*
%TO.N,Net-(J102-Pad2)*%
X128044843Y-113255157D02*
X130302000Y-110998000D01*
X126757157Y-113255157D02*
X128044843Y-113255157D01*
X125008000Y-111506000D02*
X126757157Y-113255157D01*
X130302000Y-107696000D02*
X132334000Y-105664000D01*
X130302000Y-110998000D02*
X130302000Y-107696000D01*
X136290000Y-109639686D02*
X136290000Y-110310000D01*
X132334000Y-105664000D02*
X135636000Y-105664000D01*
X135636000Y-105664000D02*
X136314000Y-106342000D01*
X136314000Y-106342000D02*
X136314000Y-109615686D01*
X136314000Y-109615686D02*
X136290000Y-109639686D01*
%TO.N,GND*%
X135042500Y-102701500D02*
X132588000Y-102701500D01*
%TO.N,WSENSE*%
X135090000Y-110310000D02*
X135090000Y-109944000D01*
X135090000Y-109944000D02*
X133772500Y-108626500D01*
X133772500Y-108626500D02*
X132588000Y-108626500D01*
X132078000Y-107188000D02*
X132078000Y-108116500D01*
X132078000Y-108116500D02*
X132588000Y-108626500D01*
%TO.N,GND*%
X139531500Y-102701500D02*
X141986000Y-102701500D01*
%TO.N,UVSENSE*%
X141986000Y-108626500D02*
X141476000Y-108116500D01*
X141476000Y-108116500D02*
X141476000Y-107188000D01*
%TO.N,GND*%
X142496000Y-107188000D02*
X143510000Y-107188000D01*
%TO.N,UVSENSE*%
X143068000Y-116210500D02*
X143068000Y-110048000D01*
X143068000Y-110048000D02*
X141986000Y-108966000D01*
X141986000Y-108966000D02*
X141986000Y-108626500D01*
%TO.N,Net-(U104-Pad23)*%
X133327083Y-119274031D02*
X131443114Y-121158000D01*
X131443114Y-121158000D02*
X130977472Y-121158000D01*
X130977472Y-121158000D02*
X130496824Y-120677352D01*
%TO.N,UH*%
X137476500Y-120396000D02*
X137476500Y-120535400D01*
X137476500Y-120535400D02*
X136768861Y-121243038D01*
%TO.N,UL*%
X137334547Y-121808723D02*
X138176000Y-120967270D01*
X138176000Y-120967270D02*
X138176000Y-119380000D01*
X138912000Y-117786604D02*
X138938000Y-117760604D01*
X138176000Y-119380000D02*
X138912000Y-118644000D01*
X138912000Y-118644000D02*
X138912000Y-117786604D01*
X138938000Y-117760604D02*
X138938000Y-116935396D01*
X138938000Y-116935396D02*
X138912000Y-116909396D01*
X138912000Y-116909396D02*
X138912000Y-115944000D01*
X138912000Y-115944000D02*
X137668000Y-114700000D01*
X137668000Y-114700000D02*
X137668000Y-114300000D01*
%TO.N,+3V3*%
X139106589Y-119929147D02*
X139106589Y-120989411D01*
X138991459Y-119814017D02*
X139106589Y-119929147D01*
%TO.N,VH*%
X136439515Y-119167515D02*
X136439515Y-119309643D01*
X136439515Y-119309643D02*
X135637490Y-120111667D01*
%TO.N,GND*%
X132735376Y-128925376D02*
X132842000Y-129032000D01*
X137307911Y-117262589D02*
X137730500Y-116840000D01*
X129200589Y-128946589D02*
X127339411Y-128946589D01*
X139512000Y-118485500D02*
X139512000Y-118044000D01*
X122247503Y-127508000D02*
X120650000Y-127508000D01*
X139954000Y-119788750D02*
X139954000Y-120142000D01*
X143304000Y-137620000D02*
X143256000Y-137668000D01*
X136290000Y-111360000D02*
X135890000Y-111760000D01*
X139982000Y-111506000D02*
X139982000Y-110236000D01*
X143304000Y-131620000D02*
X143256000Y-131572000D01*
X136600000Y-131845000D02*
X136755000Y-131845000D01*
X120650000Y-127381000D02*
X120650000Y-127508000D01*
X136290000Y-113210000D02*
X136290000Y-112160000D01*
X139531411Y-128355411D02*
X141309411Y-128355411D01*
X146768000Y-123654000D02*
X146304000Y-123190000D01*
X129221802Y-128925376D02*
X129200589Y-128946589D01*
X136755000Y-131845000D02*
X137670000Y-132760000D01*
X120396000Y-131572000D02*
X121219000Y-131572000D01*
X121219000Y-131572000D02*
X121315000Y-131668000D01*
X138536624Y-129179376D02*
X138707446Y-129179376D01*
X129945000Y-131845000D02*
X129030000Y-132760000D01*
X139952000Y-112776000D02*
X139952000Y-111536000D01*
X139952000Y-111536000D02*
X139982000Y-111506000D01*
X140462000Y-117094000D02*
X140462000Y-116210500D01*
X139512000Y-118044000D02*
X140208000Y-117348000D01*
X120396000Y-137668000D02*
X121315000Y-137668000D01*
X141309411Y-128355411D02*
X142240000Y-129286000D01*
X121518624Y-126512376D02*
X120650000Y-127381000D01*
X146304000Y-123190000D02*
X145288000Y-123190000D01*
X122690839Y-127951336D02*
X122247503Y-127508000D01*
X139531411Y-128355411D02*
X140462000Y-129286000D01*
X135890000Y-113210000D02*
X135890000Y-111760000D01*
X121518624Y-126344624D02*
X121518624Y-126512376D01*
X148120000Y-115856000D02*
X146082000Y-115856000D01*
X126914589Y-121751411D02*
X126238000Y-122428000D01*
X143068000Y-117790000D02*
X144018000Y-116840000D01*
X138707446Y-129179376D02*
X139531411Y-128355411D01*
X147193000Y-123654000D02*
X146768000Y-123654000D01*
X131211376Y-128925376D02*
X132735376Y-128925376D01*
X139954000Y-120142000D02*
X139785411Y-120310589D01*
X144018000Y-115824000D02*
X145034000Y-114808000D01*
X131211376Y-128925376D02*
X129221802Y-128925376D01*
X138577376Y-129179376D02*
X139446000Y-130048000D01*
X133098000Y-107188000D02*
X134112000Y-107188000D01*
X130100000Y-131845000D02*
X129945000Y-131845000D01*
X139982000Y-111506000D02*
X139192000Y-111506000D01*
X146082000Y-115856000D02*
X145034000Y-114808000D01*
X144877000Y-137620000D02*
X143304000Y-137620000D01*
X136290000Y-112160000D02*
X135890000Y-111760000D01*
X131424624Y-115422624D02*
X132080000Y-116078000D01*
X140208000Y-117348000D02*
X140462000Y-117094000D01*
X143068000Y-118485500D02*
X143068000Y-117790000D01*
X139512000Y-118485500D02*
X139512000Y-119346750D01*
X139512000Y-119346750D02*
X139954000Y-119788750D01*
X137245411Y-117262589D02*
X137307911Y-117262589D01*
X137340000Y-111360000D02*
X136290000Y-111360000D01*
X138536624Y-129179376D02*
X138577376Y-129179376D01*
X144018000Y-116210500D02*
X144018000Y-115824000D01*
X144877000Y-131620000D02*
X143304000Y-131620000D01*
%TO.N,Net-(C101-Pad2)*%
X140273000Y-109539000D02*
X140942000Y-110208000D01*
X140942000Y-110208000D02*
X140942000Y-110236000D01*
X137922000Y-111760000D02*
X138092000Y-111590000D01*
X137340000Y-111760000D02*
X137922000Y-111760000D01*
X138092000Y-110320000D02*
X138873000Y-109539000D01*
X138873000Y-109539000D02*
X140273000Y-109539000D01*
X138092000Y-111590000D02*
X138092000Y-110320000D01*
%TO.N,Net-(C102-Pad1)*%
X132960000Y-111360000D02*
X132560000Y-111760000D01*
X134440000Y-111360000D02*
X132960000Y-111360000D01*
%TO.N,+5V*%
X130900000Y-131845000D02*
X130900000Y-130646000D01*
X130900000Y-132775404D02*
X130900000Y-131845000D01*
X130900000Y-130646000D02*
X129879411Y-129625411D01*
X129879411Y-129625411D02*
X126660589Y-129625411D01*
X135128000Y-133350000D02*
X131474596Y-133350000D01*
X123344913Y-129948913D02*
X121666000Y-128270000D01*
X117348000Y-128270000D02*
X117094000Y-128016000D01*
X135800000Y-131845000D02*
X135800000Y-132678000D01*
X131474596Y-133350000D02*
X130900000Y-132775404D01*
X135800000Y-132678000D02*
X135128000Y-133350000D01*
X126660589Y-129625411D02*
X123668415Y-129625411D01*
X123668415Y-129625411D02*
X123344913Y-129948913D01*
X121666000Y-128270000D02*
X117348000Y-128270000D01*
%TO.N,XOUT*%
X129822843Y-118872000D02*
X131062510Y-120111667D01*
X129032000Y-118872000D02*
X129822843Y-118872000D01*
X126061223Y-120250858D02*
X126771680Y-120250858D01*
X127593411Y-121072589D02*
X127593411Y-120310589D01*
X127593411Y-120310589D02*
X129032000Y-118872000D01*
X126771680Y-120250858D02*
X127593411Y-121072589D01*
%TO.N,+3V3*%
X128016000Y-121666000D02*
X128016000Y-122174000D01*
X133940434Y-126949389D02*
X132759566Y-126949389D01*
X141412000Y-122240000D02*
X141986000Y-121666000D01*
X136566589Y-118051197D02*
X136566589Y-117941411D01*
X140970000Y-122682000D02*
X139700000Y-122682000D01*
X131064000Y-123952000D02*
X133141933Y-126029933D01*
X130779667Y-120394510D02*
X129765157Y-119380000D01*
X135637490Y-125252333D02*
X138081365Y-127696208D01*
X133940434Y-126949389D02*
X134223277Y-126666547D01*
X135261045Y-128270000D02*
X133940434Y-126949389D01*
X136906000Y-129032000D02*
X136144000Y-128270000D01*
X137343642Y-118547642D02*
X137172820Y-118547642D01*
X133141933Y-126567022D02*
X132759566Y-126949389D01*
X138852589Y-127676589D02*
X140630589Y-127676589D01*
X141986000Y-121666000D02*
X144018000Y-121666000D01*
X144968000Y-120716000D02*
X144968000Y-118485500D01*
X129285294Y-119380000D02*
X128524000Y-120141294D01*
X138081365Y-127696208D02*
X138832970Y-127696208D01*
X139700000Y-122682000D02*
X139106589Y-122088589D01*
X135071805Y-119545981D02*
X136566589Y-118051197D01*
X139106589Y-122088589D02*
X139106589Y-120989411D01*
X137172820Y-118547642D02*
X136566589Y-117941411D01*
X133141933Y-126029933D02*
X133141933Y-126567022D01*
X138236478Y-121472477D02*
X138623523Y-121472477D01*
X138623523Y-121472477D02*
X139106589Y-120989411D01*
X128524000Y-120141294D02*
X128524000Y-121158000D01*
X138832970Y-127696208D02*
X138852589Y-127676589D01*
X130665786Y-123952000D02*
X131064000Y-123952000D01*
X137617389Y-122091566D02*
X138236478Y-121472477D01*
X135488624Y-115463376D02*
X135488624Y-115676624D01*
X141412000Y-118485500D02*
X141412000Y-122240000D01*
X138852589Y-127676589D02*
X137497178Y-129032000D01*
X136144000Y-128270000D02*
X135261045Y-128270000D01*
X141412000Y-122240000D02*
X140970000Y-122682000D01*
X144018000Y-121666000D02*
X144968000Y-120716000D01*
X129765157Y-119380000D02*
X129285294Y-119380000D01*
X128524000Y-121158000D02*
X128016000Y-121666000D01*
X135488624Y-115676624D02*
X135871743Y-116059743D01*
X137497178Y-129032000D02*
X136906000Y-129032000D01*
X130213981Y-124403805D02*
X129649786Y-124968000D01*
X129649786Y-124968000D02*
X129032000Y-124968000D01*
X130213981Y-124403805D02*
X130665786Y-123952000D01*
%TO.N,Net-(D101-Pad1)*%
X140741500Y-113006500D02*
X140972000Y-112776000D01*
X140741500Y-114300000D02*
X140741500Y-113006500D01*
%TO.N,ERR*%
X138982000Y-112851636D02*
X138982000Y-114115500D01*
X138982000Y-114115500D02*
X139166500Y-114300000D01*
X138290364Y-112160000D02*
X138982000Y-112851636D01*
X137340000Y-112160000D02*
X138290364Y-112160000D01*
%TO.N,Net-(J101-PadA5)*%
X132100000Y-131845000D02*
X132100000Y-129814000D01*
X132100000Y-129814000D02*
X131932624Y-129646624D01*
%TO.N,USBD_P*%
X134112000Y-130556000D02*
X134874000Y-130556000D01*
X133100000Y-130870000D02*
X133414000Y-130556000D01*
X134874000Y-130556000D02*
X136068637Y-129361363D01*
X134100000Y-130568000D02*
X134112000Y-130556000D01*
X134100000Y-131845000D02*
X134100000Y-130568000D01*
X133414000Y-130556000D02*
X134112000Y-130556000D01*
X133100000Y-131845000D02*
X133100000Y-130870000D01*
D53*
%TO.N,Net-(J101-PadB5)*%
X135109000Y-131845000D02*
X135128000Y-131826000D01*
X135128000Y-131826000D02*
X135128000Y-130903041D01*
X137414000Y-130302000D02*
X137815376Y-129900624D01*
X135729040Y-130302000D02*
X137414000Y-130302000D01*
X135128000Y-130903041D02*
X135729040Y-130302000D01*
X135100000Y-131845000D02*
X135109000Y-131845000D01*
D51*
%TO.N,Net-(J102-Pad1)*%
X120034000Y-109328000D02*
X125330000Y-109328000D01*
X125330000Y-109328000D02*
X127508000Y-111506000D01*
X117094000Y-112268000D02*
X120034000Y-109328000D01*
X137340000Y-110960000D02*
X137340000Y-110291801D01*
X137340000Y-110291801D02*
X137397807Y-110233994D01*
%TO.N,Net-(J102-Pad3)*%
X128270000Y-114046000D02*
X125048000Y-114046000D01*
X134440000Y-110960000D02*
X131356000Y-110960000D01*
X131356000Y-110960000D02*
X128270000Y-114046000D01*
X125048000Y-114046000D02*
X122508000Y-111506000D01*
X122508000Y-111506000D02*
X122508000Y-112950000D01*
X122508000Y-112950000D02*
X117094000Y-118364000D01*
%TO.N,CLEAR*%
X134767376Y-116184624D02*
X134767376Y-116479376D01*
X134366000Y-117989045D02*
X134366000Y-116586000D01*
X134767376Y-116479376D02*
X135109743Y-116821743D01*
X137701120Y-112560000D02*
X137340000Y-112560000D01*
X146558000Y-118364000D02*
X146566000Y-118356000D01*
X133940434Y-118414611D02*
X134366000Y-117989045D01*
X146566000Y-118356000D02*
X148120000Y-118356000D01*
X138173560Y-113032440D02*
X137701120Y-112560000D01*
X134366000Y-116586000D02*
X134767376Y-116184624D01*
%TO.N,WSENSE*%
X133350000Y-110236000D02*
X135016000Y-110236000D01*
X139512000Y-115163123D02*
X139512000Y-116210500D01*
X139102500Y-110490000D02*
X139102500Y-110806000D01*
X135016000Y-110236000D02*
X135090000Y-110310000D01*
X138902050Y-110806000D02*
X138492000Y-111216050D01*
X139382000Y-113141183D02*
X139954000Y-113713183D01*
X139954000Y-114721123D02*
X139512000Y-115163123D01*
X139954000Y-113713183D02*
X139954000Y-114721123D01*
X138492000Y-111795950D02*
X139382000Y-112685950D01*
X138492000Y-111216050D02*
X138492000Y-111795950D01*
X139102500Y-110806000D02*
X138902050Y-110806000D01*
X139382000Y-112685950D02*
X139382000Y-113141183D01*
%TO.N,QCLK*%
X137812214Y-125730000D02*
X146812000Y-125730000D01*
X136486019Y-124403805D02*
X137812214Y-125730000D01*
X148463000Y-132209000D02*
X147830000Y-132842000D01*
X147955000Y-126873000D02*
X147955000Y-130346000D01*
X146812000Y-125730000D02*
X147955000Y-126873000D01*
X148463000Y-130854000D02*
X148463000Y-132209000D01*
X147955000Y-130346000D02*
X148463000Y-130854000D01*
%TO.N,Net-(R108-Pad2)*%
X141127000Y-131620000D02*
X142349000Y-132842000D01*
X141127000Y-131620000D02*
X141127000Y-137620000D01*
X142349000Y-132842000D02*
X146810000Y-132842000D01*
%TO.N,RESET*%
X127886500Y-126492000D02*
X127762000Y-126492000D01*
X127762000Y-126492000D02*
X126344624Y-127909376D01*
X129399269Y-120255269D02*
X129271728Y-120382810D01*
X129271728Y-121149312D02*
X129537208Y-121414792D01*
X129271728Y-120382810D02*
X129271728Y-121149312D01*
%TO.N,Net-(R109-Pad2)*%
X124968000Y-128016000D02*
X125008752Y-128016000D01*
X126238000Y-131572000D02*
X125161000Y-131572000D01*
X125065000Y-137668000D02*
X125065000Y-131668000D01*
X125161000Y-131572000D02*
X125065000Y-131668000D01*
X125008752Y-128016000D02*
X125623376Y-128630624D01*
%TO.N,Net-(R110-Pad1)*%
X135711363Y-127023262D02*
X134788962Y-126100861D01*
X135711363Y-127432637D02*
X135711363Y-127023262D01*
%TO.N,Net-(R111-Pad1)*%
X135636000Y-126238000D02*
X137235363Y-127837363D01*
X135071805Y-125818019D02*
X135491786Y-126238000D01*
X137235363Y-127837363D02*
X137235363Y-128194637D01*
X135491786Y-126238000D02*
X135636000Y-126238000D01*
%TO.N,MANUAL*%
X131069584Y-127508000D02*
X129058050Y-127508000D01*
X127906214Y-125366214D02*
X125366214Y-125366214D01*
X129058050Y-127508000D02*
X128586000Y-127035950D01*
X128586000Y-127035950D02*
X128586000Y-126046000D01*
X132193880Y-126383704D02*
X131069584Y-127508000D01*
X128586000Y-126046000D02*
X127906214Y-125366214D01*
%TO.N,UH*%
X132334000Y-113030000D02*
X132334000Y-114046000D01*
X133604000Y-111760000D02*
X132334000Y-113030000D01*
X134440000Y-111760000D02*
X133604000Y-111760000D01*
X132334000Y-114046000D02*
X132588000Y-114300000D01*
%TO.N,VH*%
X133096000Y-112972314D02*
X133908314Y-112160000D01*
X133908314Y-112160000D02*
X134440000Y-112160000D01*
X133096000Y-113284000D02*
X133096000Y-112972314D01*
%TO.N,WH*%
X135996442Y-114802102D02*
X134360102Y-114802102D01*
X133858000Y-114300000D02*
X133858000Y-112776000D01*
X133858000Y-112776000D02*
X134074000Y-112560000D01*
X134360102Y-114802102D02*
X133858000Y-114300000D01*
X134223277Y-118697453D02*
X136652000Y-116268730D01*
X136652000Y-116268730D02*
X136652000Y-115457660D01*
X134074000Y-112560000D02*
X134440000Y-112560000D01*
X136652000Y-115457660D02*
X135996442Y-114802102D01*
%TO.N,UL*%
X134790566Y-114102602D02*
X134790566Y-113875434D01*
X135090000Y-113576000D02*
X135090000Y-113210000D01*
X134790566Y-113875434D02*
X135090000Y-113576000D01*
%TO.N,WL*%
X136290000Y-114503686D02*
X136263711Y-114503686D01*
X135490000Y-113729975D02*
X135490000Y-113538000D01*
X134788962Y-119263139D02*
X135382000Y-118670101D01*
X136263711Y-114503686D02*
X135490000Y-113729975D01*
X137160000Y-115373686D02*
X136290000Y-114503686D01*
X135382000Y-118670101D02*
X135382000Y-118110000D01*
X135382000Y-118110000D02*
X137160000Y-116332000D01*
X137160000Y-116332000D02*
X137160000Y-115373686D01*
%TO.N,VL*%
X138430000Y-116078000D02*
X136690000Y-114338000D01*
X138430000Y-118450528D02*
X138430000Y-116078000D01*
X136690000Y-114338000D02*
X136690000Y-113538000D01*
X136203176Y-120677352D02*
X138430000Y-118450528D01*
%TO.N,QCS*%
X137617389Y-123272434D02*
X138296955Y-123952000D01*
X150876000Y-122428000D02*
X151003000Y-122555000D01*
X138296955Y-123952000D02*
X141250050Y-123952000D01*
X142774050Y-122428000D02*
X150876000Y-122428000D01*
X141250050Y-123952000D02*
X142774050Y-122428000D01*
%TO.N,QD0*%
X149733000Y-124587000D02*
X149733000Y-123654000D01*
X148990000Y-125330000D02*
X149733000Y-124587000D01*
X136768861Y-124120962D02*
X137977899Y-125330000D01*
X137977899Y-125330000D02*
X148990000Y-125330000D01*
%TO.N,QD2*%
X138143584Y-124930000D02*
X148120000Y-124930000D01*
X137051704Y-123838120D02*
X138143584Y-124930000D01*
X148463000Y-124587000D02*
X148463000Y-123654000D01*
X148120000Y-124930000D02*
X148463000Y-124587000D01*
%TO.N,QD1*%
X138239270Y-124460000D02*
X137334547Y-123555277D01*
X145288000Y-124206000D02*
X145034000Y-124460000D01*
X145034000Y-124460000D02*
X138239270Y-124460000D01*
X146812000Y-130473000D02*
X147193000Y-130854000D01*
X146812000Y-126746000D02*
X146812000Y-130473000D01*
%TO.N,QD3*%
X144926000Y-126130000D02*
X137646529Y-126130000D01*
X137646529Y-126130000D02*
X136203176Y-124686648D01*
X145542000Y-126746000D02*
X144926000Y-126130000D01*
X149225000Y-127316500D02*
X149225000Y-130346000D01*
X148654500Y-126746000D02*
X149225000Y-127316500D01*
X149225000Y-130346000D02*
X149733000Y-130854000D01*
%TO.N,Net-(U104-Pad23)*%
X135255000Y-124304157D02*
X135255000Y-124079000D01*
X135255000Y-124304157D02*
X135029843Y-124304157D01*
X135029843Y-124304157D02*
X135001000Y-124333000D01*
X135920333Y-124969490D02*
X135255000Y-124304157D01*
X135255000Y-124079000D02*
X135410843Y-123923157D01*
X133858000Y-125476000D02*
X135001000Y-124333000D01*
X134506120Y-126383704D02*
X133858000Y-125735584D01*
X136652000Y-122682000D02*
X135410843Y-123923157D01*
X133858000Y-125735584D02*
X133858000Y-125476000D01*
X135001000Y-124333000D02*
X135255000Y-124079000D01*
%TO.N,Net-(R112-Pad2)*%
X120797376Y-125623376D02*
X121724614Y-124696138D01*
X121724614Y-124696138D02*
X121724614Y-123350959D01*
%TO.N,USBD_N*%
X132650000Y-132870000D02*
X133576000Y-132870000D01*
X133576000Y-132870000D02*
X133600000Y-132846000D01*
X132600000Y-131845000D02*
X132600000Y-132820000D01*
X132600000Y-131845000D02*
X132600000Y-130544000D01*
X133600000Y-132846000D02*
X133600000Y-131845000D01*
X132600000Y-132820000D02*
X132650000Y-132870000D01*
X132600000Y-130544000D02*
X134544637Y-128599363D01*
%TO.N,UVCUR*%
X142494000Y-120650000D02*
X144018000Y-119126000D01*
X144018000Y-117602000D02*
X144968000Y-116652000D01*
X131911038Y-126100861D02*
X131265899Y-126746000D01*
X131265899Y-126746000D02*
X129286000Y-126746000D01*
X144968000Y-116652000D02*
X144968000Y-116210500D01*
X144018000Y-119126000D02*
X144018000Y-117602000D01*
%TO.N,WCUR*%
X130302000Y-126238000D02*
X131208214Y-126238000D01*
X141412000Y-116210500D02*
X141412000Y-117186604D01*
X140698614Y-117899990D02*
X140698614Y-121429386D01*
X129794000Y-125730000D02*
X130302000Y-126238000D01*
X141412000Y-117186604D02*
X140698614Y-117899990D01*
X131208214Y-126238000D02*
X131628195Y-125818019D01*
X140698614Y-121429386D02*
X140208000Y-121920000D01*
%TD*%
%TA.AperFunction,Conductor*%
%TO.N,+3V3*%
G36*
X149566018Y-101406000D02*
G01*
X149580851Y-101408310D01*
X149580855Y-101408310D01*
X149589724Y-101409691D01*
X149606923Y-101407442D01*
X149630863Y-101406609D01*
X149888710Y-101422206D01*
X149903814Y-101424040D01*
X149975786Y-101437229D01*
X150184760Y-101475525D01*
X150199526Y-101479164D01*
X150472231Y-101564142D01*
X150486445Y-101569534D01*
X150704223Y-101667547D01*
X150746906Y-101686757D01*
X150760379Y-101693828D01*
X151004813Y-101841595D01*
X151017334Y-101850238D01*
X151242171Y-102026385D01*
X151253560Y-102036475D01*
X151455525Y-102238440D01*
X151465615Y-102249829D01*
X151641762Y-102474666D01*
X151650405Y-102487187D01*
X151798172Y-102731621D01*
X151805242Y-102745092D01*
X151922466Y-103005555D01*
X151927858Y-103019769D01*
X151991932Y-103225389D01*
X152012836Y-103292473D01*
X152016477Y-103307246D01*
X152067960Y-103588186D01*
X152069794Y-103603290D01*
X152084953Y-103853904D01*
X152083692Y-103880716D01*
X152083690Y-103880852D01*
X152082309Y-103889724D01*
X152083473Y-103898626D01*
X152083473Y-103898628D01*
X152086436Y-103921283D01*
X152087500Y-103937621D01*
X152087500Y-134836755D01*
X152067498Y-134904876D01*
X152013842Y-134951369D01*
X151943568Y-134961473D01*
X151878988Y-134931979D01*
X151869213Y-134922540D01*
X151681842Y-134720904D01*
X151418019Y-134495578D01*
X151130047Y-134302069D01*
X150821741Y-134142940D01*
X150497189Y-134020302D01*
X150493668Y-134019418D01*
X150493663Y-134019416D01*
X150322340Y-133976383D01*
X150160692Y-133935780D01*
X150138476Y-133932855D01*
X149820315Y-133890968D01*
X149820307Y-133890967D01*
X149816711Y-133890494D01*
X149672045Y-133888221D01*
X149473446Y-133885101D01*
X149473442Y-133885101D01*
X149469804Y-133885044D01*
X149466190Y-133885405D01*
X149466184Y-133885405D01*
X149222843Y-133909694D01*
X149124569Y-133919503D01*
X148785583Y-133993414D01*
X148782156Y-133994587D01*
X148782150Y-133994589D01*
X148460765Y-134104624D01*
X148457339Y-134105797D01*
X148144188Y-134255163D01*
X147850279Y-134439532D01*
X147847443Y-134441804D01*
X147847436Y-134441809D01*
X147603384Y-134637332D01*
X147579509Y-134656459D01*
X147576958Y-134659037D01*
X147381298Y-134856757D01*
X147335466Y-134903071D01*
X147333225Y-134905929D01*
X147276732Y-134977978D01*
X147121386Y-135176098D01*
X147119493Y-135179187D01*
X147119491Y-135179190D01*
X147073233Y-135254676D01*
X146940105Y-135471921D01*
X146938580Y-135475206D01*
X146938578Y-135475210D01*
X146899505Y-135559386D01*
X146794027Y-135786620D01*
X146685087Y-136116023D01*
X146684351Y-136119578D01*
X146684350Y-136119581D01*
X146658034Y-136246656D01*
X146614730Y-136455764D01*
X146598249Y-136640427D01*
X146591810Y-136712582D01*
X146583888Y-136801341D01*
X146583983Y-136804971D01*
X146583983Y-136804972D01*
X146592875Y-137144546D01*
X146592970Y-137148171D01*
X146641856Y-137491660D01*
X146729897Y-137827253D01*
X146855927Y-138150503D01*
X146857624Y-138153708D01*
X146991363Y-138406297D01*
X147018275Y-138457126D01*
X147020325Y-138460109D01*
X147020327Y-138460112D01*
X147212733Y-138740064D01*
X147212739Y-138740071D01*
X147214790Y-138743056D01*
X147442866Y-139004505D01*
X147622883Y-139168307D01*
X147659804Y-139228947D01*
X147658081Y-139299922D01*
X147618259Y-139358699D01*
X147552981Y-139386616D01*
X147538082Y-139387500D01*
X118657044Y-139387500D01*
X118588923Y-139367498D01*
X118542430Y-139313842D01*
X118532326Y-139243568D01*
X118561820Y-139178988D01*
X118570311Y-139170103D01*
X118790180Y-138961454D01*
X118792819Y-138958950D01*
X119015370Y-138692783D01*
X119026309Y-138676131D01*
X119149465Y-138488642D01*
X119205853Y-138402799D01*
X119361744Y-138092844D01*
X119362008Y-138092977D01*
X119406273Y-138039773D01*
X119473979Y-138018410D01*
X119542487Y-138037043D01*
X119585623Y-138081385D01*
X119656960Y-138204944D01*
X119661378Y-138209851D01*
X119661379Y-138209852D01*
X119700046Y-138252796D01*
X119784747Y-138346866D01*
X119939248Y-138459118D01*
X119945276Y-138461802D01*
X119945278Y-138461803D01*
X120107681Y-138534109D01*
X120113712Y-138536794D01*
X120184733Y-138551890D01*
X120294056Y-138575128D01*
X120294061Y-138575128D01*
X120300513Y-138576500D01*
X120491487Y-138576500D01*
X120497942Y-138575128D01*
X120497951Y-138575127D01*
X120548955Y-138564285D01*
X120619746Y-138569686D01*
X120650715Y-138586703D01*
X120693295Y-138618615D01*
X120829684Y-138669745D01*
X120891866Y-138676500D01*
X121738134Y-138676500D01*
X121800316Y-138669745D01*
X121936705Y-138618615D01*
X122053261Y-138531261D01*
X122140615Y-138414705D01*
X122191745Y-138278316D01*
X122198500Y-138216134D01*
X122198500Y-137119866D01*
X122191745Y-137057684D01*
X122140615Y-136921295D01*
X122053261Y-136804739D01*
X121936705Y-136717385D01*
X121800316Y-136666255D01*
X121738134Y-136659500D01*
X120891866Y-136659500D01*
X120829684Y-136666255D01*
X120693295Y-136717385D01*
X120650717Y-136749296D01*
X120584212Y-136774143D01*
X120548955Y-136771715D01*
X120497951Y-136760873D01*
X120497942Y-136760872D01*
X120491487Y-136759500D01*
X120300513Y-136759500D01*
X120294061Y-136760872D01*
X120294056Y-136760872D01*
X120231623Y-136774143D01*
X120113712Y-136799206D01*
X120107682Y-136801891D01*
X120107681Y-136801891D01*
X119945278Y-136874197D01*
X119945276Y-136874198D01*
X119939248Y-136876882D01*
X119933907Y-136880762D01*
X119933906Y-136880763D01*
X119808372Y-136971969D01*
X119741504Y-136995828D01*
X119672353Y-136979747D01*
X119622872Y-136928833D01*
X119608520Y-136877286D01*
X119589836Y-136553246D01*
X119589835Y-136553241D01*
X119589627Y-136549626D01*
X119539032Y-136259731D01*
X119530600Y-136211415D01*
X119530598Y-136211408D01*
X119529976Y-136207842D01*
X119431437Y-135875180D01*
X119430013Y-135871841D01*
X119296740Y-135559386D01*
X119296738Y-135559383D01*
X119295316Y-135556048D01*
X119245569Y-135468831D01*
X119125208Y-135257816D01*
X119123417Y-135254676D01*
X118918018Y-134975060D01*
X118869201Y-134922526D01*
X118684309Y-134723559D01*
X118681842Y-134720904D01*
X118418019Y-134495578D01*
X118130047Y-134302069D01*
X117821741Y-134142940D01*
X117497189Y-134020302D01*
X117493668Y-134019418D01*
X117493663Y-134019416D01*
X117322340Y-133976383D01*
X117160692Y-133935780D01*
X117138476Y-133932855D01*
X116820315Y-133890968D01*
X116820307Y-133890967D01*
X116816711Y-133890494D01*
X116672045Y-133888221D01*
X116473446Y-133885101D01*
X116473442Y-133885101D01*
X116469804Y-133885044D01*
X116466190Y-133885405D01*
X116466184Y-133885405D01*
X116222843Y-133909694D01*
X116124569Y-133919503D01*
X115785583Y-133993414D01*
X115782156Y-133994587D01*
X115782150Y-133994589D01*
X115460765Y-134104624D01*
X115457339Y-134105797D01*
X115144188Y-134255163D01*
X114850279Y-134439532D01*
X114847443Y-134441804D01*
X114847436Y-134441809D01*
X114603384Y-134637332D01*
X114579509Y-134656459D01*
X114576958Y-134659037D01*
X114381298Y-134856757D01*
X114335466Y-134903071D01*
X114333231Y-134905922D01*
X114333227Y-134905926D01*
X114329652Y-134910486D01*
X114271878Y-134951749D01*
X114200967Y-134955227D01*
X114139432Y-134919815D01*
X114106811Y-134856757D01*
X114104500Y-134832737D01*
X114104500Y-132876161D01*
X116408393Y-132876161D01*
X116417687Y-132888175D01*
X116458088Y-132916464D01*
X116467584Y-132921947D01*
X116657113Y-133010326D01*
X116667405Y-133014072D01*
X116869401Y-133068196D01*
X116880196Y-133070099D01*
X117088525Y-133088326D01*
X117099475Y-133088326D01*
X117307804Y-133070099D01*
X117318599Y-133068196D01*
X117520595Y-133014072D01*
X117530887Y-133010326D01*
X117720416Y-132921947D01*
X117729912Y-132916464D01*
X117771148Y-132887590D01*
X117779523Y-132877112D01*
X117772457Y-132863668D01*
X117106811Y-132198021D01*
X117092868Y-132190408D01*
X117091034Y-132190539D01*
X117084420Y-132194790D01*
X116414820Y-132864391D01*
X116408393Y-132876161D01*
X114104500Y-132876161D01*
X114104500Y-131831475D01*
X115831674Y-131831475D01*
X115849901Y-132039804D01*
X115851804Y-132050599D01*
X115905928Y-132252595D01*
X115909674Y-132262887D01*
X115998054Y-132452417D01*
X116003534Y-132461907D01*
X116032411Y-132503149D01*
X116042887Y-132511523D01*
X116056334Y-132504455D01*
X116721979Y-131838811D01*
X116728356Y-131827132D01*
X117458408Y-131827132D01*
X117458539Y-131828966D01*
X117462790Y-131835580D01*
X118132391Y-132505180D01*
X118144161Y-132511607D01*
X118156176Y-132502311D01*
X118184466Y-132461907D01*
X118189946Y-132452417D01*
X118278326Y-132262887D01*
X118282072Y-132252595D01*
X118336196Y-132050599D01*
X118338099Y-132039804D01*
X118356326Y-131831475D01*
X118356326Y-131820525D01*
X118338099Y-131612196D01*
X118336196Y-131601401D01*
X118328318Y-131572000D01*
X119482496Y-131572000D01*
X119483186Y-131578565D01*
X119489378Y-131637474D01*
X119502458Y-131761928D01*
X119561473Y-131943556D01*
X119564776Y-131949278D01*
X119564777Y-131949279D01*
X119574925Y-131966856D01*
X119656960Y-132108944D01*
X119661378Y-132113851D01*
X119661379Y-132113852D01*
X119772906Y-132237715D01*
X119784747Y-132250866D01*
X119939248Y-132363118D01*
X119945276Y-132365802D01*
X119945278Y-132365803D01*
X120071255Y-132421891D01*
X120113712Y-132440794D01*
X120207113Y-132460647D01*
X120294056Y-132479128D01*
X120294061Y-132479128D01*
X120300513Y-132480500D01*
X120475668Y-132480500D01*
X120543789Y-132500502D01*
X120563712Y-132519025D01*
X120565007Y-132517730D01*
X120571358Y-132524081D01*
X120576739Y-132531261D01*
X120693295Y-132618615D01*
X120829684Y-132669745D01*
X120891866Y-132676500D01*
X121738134Y-132676500D01*
X121800316Y-132669745D01*
X121936705Y-132618615D01*
X122053261Y-132531261D01*
X122140615Y-132414705D01*
X122191745Y-132278316D01*
X122198500Y-132216134D01*
X122198500Y-131119866D01*
X122191745Y-131057684D01*
X122140615Y-130921295D01*
X122053261Y-130804739D01*
X121936705Y-130717385D01*
X121928296Y-130714233D01*
X121928295Y-130714232D01*
X121846632Y-130683618D01*
X121789867Y-130640977D01*
X121765167Y-130574415D01*
X121780374Y-130505066D01*
X121830660Y-130454948D01*
X121859524Y-130443595D01*
X121893167Y-130434957D01*
X121907795Y-130429165D01*
X122030431Y-130361746D01*
X122040374Y-130351746D01*
X122037564Y-130344277D01*
X121360148Y-129666861D01*
X121346204Y-129659247D01*
X121344371Y-129659378D01*
X121337756Y-129663629D01*
X120968408Y-130032978D01*
X120960797Y-130046916D01*
X120960929Y-130048752D01*
X120965178Y-130055364D01*
X121236654Y-130326840D01*
X121240295Y-130330206D01*
X121261960Y-130348711D01*
X121272503Y-130355998D01*
X121394536Y-130423085D01*
X121444595Y-130473430D01*
X121459489Y-130542846D01*
X121434489Y-130609296D01*
X121377532Y-130651681D01*
X121333836Y-130659500D01*
X120891866Y-130659500D01*
X120829684Y-130666255D01*
X120771037Y-130688241D01*
X120746448Y-130697459D01*
X120676021Y-130702724D01*
X120497944Y-130664872D01*
X120497939Y-130664872D01*
X120491487Y-130663500D01*
X120300513Y-130663500D01*
X120294061Y-130664872D01*
X120294056Y-130664872D01*
X120207112Y-130683353D01*
X120113712Y-130703206D01*
X120107682Y-130705891D01*
X120107681Y-130705891D01*
X119945278Y-130778197D01*
X119945276Y-130778198D01*
X119939248Y-130780882D01*
X119933907Y-130784762D01*
X119933906Y-130784763D01*
X119896529Y-130811919D01*
X119784747Y-130893134D01*
X119780326Y-130898044D01*
X119780325Y-130898045D01*
X119671095Y-131019358D01*
X119656960Y-131035056D01*
X119561473Y-131200444D01*
X119502458Y-131382072D01*
X119482496Y-131572000D01*
X118328318Y-131572000D01*
X118282072Y-131399405D01*
X118278326Y-131389113D01*
X118189946Y-131199583D01*
X118184466Y-131190093D01*
X118155589Y-131148851D01*
X118145113Y-131140477D01*
X118131666Y-131147545D01*
X117466021Y-131813189D01*
X117458408Y-131827132D01*
X116728356Y-131827132D01*
X116729592Y-131824868D01*
X116729461Y-131823034D01*
X116725210Y-131816420D01*
X116055609Y-131146820D01*
X116043839Y-131140393D01*
X116031824Y-131149689D01*
X116003534Y-131190093D01*
X115998054Y-131199583D01*
X115909674Y-131389113D01*
X115905928Y-131399405D01*
X115851804Y-131601401D01*
X115849901Y-131612196D01*
X115831674Y-131820525D01*
X115831674Y-131831475D01*
X114104500Y-131831475D01*
X114104500Y-130774887D01*
X116408477Y-130774887D01*
X116415545Y-130788334D01*
X117081189Y-131453979D01*
X117095132Y-131461592D01*
X117096966Y-131461461D01*
X117103580Y-131457210D01*
X117773180Y-130787609D01*
X117779607Y-130775839D01*
X117770313Y-130763825D01*
X117729912Y-130735536D01*
X117720416Y-130730053D01*
X117530887Y-130641674D01*
X117520595Y-130637928D01*
X117318599Y-130583804D01*
X117307804Y-130581901D01*
X117099475Y-130563674D01*
X117088525Y-130563674D01*
X116880196Y-130581901D01*
X116869401Y-130583804D01*
X116667405Y-130637928D01*
X116657113Y-130641674D01*
X116467583Y-130730054D01*
X116458093Y-130735534D01*
X116416851Y-130764411D01*
X116408477Y-130774887D01*
X114104500Y-130774887D01*
X114104500Y-126607183D01*
X114124502Y-126539062D01*
X114178158Y-126492569D01*
X114231614Y-126481188D01*
X114820641Y-126486398D01*
X115960615Y-126496482D01*
X116028556Y-126517086D01*
X116074572Y-126571151D01*
X116085500Y-126622477D01*
X116085500Y-127222433D01*
X116062713Y-127294703D01*
X116055806Y-127304568D01*
X115999944Y-127384347D01*
X115997623Y-127389325D01*
X115997621Y-127389328D01*
X115969137Y-127450413D01*
X115906880Y-127583924D01*
X115849885Y-127796629D01*
X115830693Y-128016000D01*
X115849885Y-128235371D01*
X115906880Y-128448076D01*
X115927454Y-128492197D01*
X115997618Y-128642666D01*
X115997621Y-128642671D01*
X115999944Y-128647653D01*
X116003100Y-128652160D01*
X116003101Y-128652162D01*
X116111603Y-128807118D01*
X116126251Y-128828038D01*
X116281962Y-128983749D01*
X116286471Y-128986906D01*
X116286473Y-128986908D01*
X116361241Y-129039261D01*
X116462346Y-129110056D01*
X116661924Y-129203120D01*
X116874629Y-129260115D01*
X117094000Y-129279307D01*
X117313371Y-129260115D01*
X117526076Y-129203120D01*
X117725654Y-129110056D01*
X117826759Y-129039261D01*
X117901527Y-128986908D01*
X117901529Y-128986906D01*
X117906038Y-128983749D01*
X117974382Y-128915405D01*
X118036694Y-128881379D01*
X118063477Y-128878500D01*
X120041844Y-128878500D01*
X120109965Y-128898502D01*
X120156458Y-128952158D01*
X120167844Y-129004500D01*
X120167844Y-129060680D01*
X120169815Y-129076282D01*
X120207218Y-129221950D01*
X120213010Y-129236580D01*
X120286180Y-129369677D01*
X120293460Y-129380212D01*
X120311957Y-129401869D01*
X120315340Y-129405528D01*
X120583576Y-129673764D01*
X120597520Y-129681378D01*
X120599355Y-129681247D01*
X120605968Y-129676997D01*
X121258241Y-129024724D01*
X121320553Y-128990698D01*
X121391368Y-128995763D01*
X121436431Y-129024724D01*
X122151074Y-129739367D01*
X122184020Y-129797127D01*
X122206297Y-129883890D01*
X122286450Y-130029687D01*
X122310768Y-130058160D01*
X123235666Y-130983058D01*
X123264139Y-131007376D01*
X123409936Y-131087529D01*
X123571084Y-131128905D01*
X123737461Y-131128905D01*
X123898609Y-131087529D01*
X123905552Y-131083712D01*
X123905557Y-131083710D01*
X123994798Y-131034648D01*
X124064129Y-131019358D01*
X124130720Y-131043978D01*
X124173429Y-131100692D01*
X124181500Y-131145062D01*
X124181500Y-132216134D01*
X124188255Y-132278316D01*
X124239385Y-132414705D01*
X124326739Y-132531261D01*
X124333919Y-132536642D01*
X124333920Y-132536643D01*
X124406065Y-132590713D01*
X124448580Y-132647573D01*
X124456500Y-132691539D01*
X124456500Y-136644461D01*
X124436498Y-136712582D01*
X124406065Y-136745287D01*
X124333920Y-136799357D01*
X124326739Y-136804739D01*
X124239385Y-136921295D01*
X124188255Y-137057684D01*
X124181500Y-137119866D01*
X124181500Y-138216134D01*
X124188255Y-138278316D01*
X124239385Y-138414705D01*
X124326739Y-138531261D01*
X124443295Y-138618615D01*
X124579684Y-138669745D01*
X124641866Y-138676500D01*
X125488134Y-138676500D01*
X125550316Y-138669745D01*
X125686705Y-138618615D01*
X125803261Y-138531261D01*
X125890615Y-138414705D01*
X125941745Y-138278316D01*
X125948500Y-138216134D01*
X125948500Y-137289769D01*
X128021500Y-137289769D01*
X128021800Y-137292825D01*
X128021800Y-137292832D01*
X128027537Y-137351340D01*
X128035920Y-137436833D01*
X128093084Y-137626169D01*
X128185934Y-137800796D01*
X128232530Y-137857928D01*
X128307040Y-137949287D01*
X128307043Y-137949290D01*
X128310935Y-137954062D01*
X128315682Y-137957989D01*
X128315684Y-137957991D01*
X128458575Y-138076201D01*
X128458579Y-138076203D01*
X128463325Y-138080130D01*
X128637299Y-138174198D01*
X128826232Y-138232682D01*
X128832357Y-138233326D01*
X128832358Y-138233326D01*
X129016796Y-138252711D01*
X129016798Y-138252711D01*
X129022925Y-138253355D01*
X129105424Y-138245847D01*
X129213749Y-138235989D01*
X129213752Y-138235988D01*
X129219888Y-138235430D01*
X129225794Y-138233692D01*
X129225798Y-138233691D01*
X129330924Y-138202751D01*
X129409619Y-138179590D01*
X129415077Y-138176737D01*
X129415081Y-138176735D01*
X129505853Y-138129280D01*
X129584890Y-138087960D01*
X129739025Y-137964032D01*
X129866154Y-137812526D01*
X129869121Y-137807128D01*
X129869125Y-137807123D01*
X129958467Y-137644608D01*
X129961433Y-137639213D01*
X129963846Y-137631608D01*
X130019373Y-137456564D01*
X130019373Y-137456563D01*
X130021235Y-137450694D01*
X130038500Y-137296773D01*
X130038500Y-137289769D01*
X136661500Y-137289769D01*
X136661800Y-137292825D01*
X136661800Y-137292832D01*
X136667537Y-137351340D01*
X136675920Y-137436833D01*
X136733084Y-137626169D01*
X136825934Y-137800796D01*
X136872530Y-137857928D01*
X136947040Y-137949287D01*
X136947043Y-137949290D01*
X136950935Y-137954062D01*
X136955682Y-137957989D01*
X136955684Y-137957991D01*
X137098575Y-138076201D01*
X137098579Y-138076203D01*
X137103325Y-138080130D01*
X137277299Y-138174198D01*
X137466232Y-138232682D01*
X137472357Y-138233326D01*
X137472358Y-138233326D01*
X137656796Y-138252711D01*
X137656798Y-138252711D01*
X137662925Y-138253355D01*
X137745424Y-138245847D01*
X137853749Y-138235989D01*
X137853752Y-138235988D01*
X137859888Y-138235430D01*
X137865794Y-138233692D01*
X137865798Y-138233691D01*
X137970924Y-138202751D01*
X138049619Y-138179590D01*
X138055077Y-138176737D01*
X138055081Y-138176735D01*
X138145853Y-138129280D01*
X138224890Y-138087960D01*
X138379025Y-137964032D01*
X138506154Y-137812526D01*
X138509121Y-137807128D01*
X138509125Y-137807123D01*
X138598467Y-137644608D01*
X138601433Y-137639213D01*
X138603846Y-137631608D01*
X138659373Y-137456564D01*
X138659373Y-137456563D01*
X138661235Y-137450694D01*
X138678500Y-137296773D01*
X138678500Y-136590231D01*
X138677814Y-136583227D01*
X138664681Y-136449301D01*
X138664080Y-136443167D01*
X138606916Y-136253831D01*
X138514066Y-136079204D01*
X138443709Y-135992938D01*
X138392960Y-135930713D01*
X138392957Y-135930710D01*
X138389065Y-135925938D01*
X138382724Y-135920692D01*
X138241425Y-135803799D01*
X138241421Y-135803797D01*
X138236675Y-135799870D01*
X138062701Y-135705802D01*
X137873768Y-135647318D01*
X137867643Y-135646674D01*
X137867642Y-135646674D01*
X137683204Y-135627289D01*
X137683202Y-135627289D01*
X137677075Y-135626645D01*
X137594576Y-135634153D01*
X137486251Y-135644011D01*
X137486248Y-135644012D01*
X137480112Y-135644570D01*
X137474206Y-135646308D01*
X137474202Y-135646309D01*
X137369076Y-135677249D01*
X137290381Y-135700410D01*
X137284923Y-135703263D01*
X137284919Y-135703265D01*
X137194147Y-135750720D01*
X137115110Y-135792040D01*
X136960975Y-135915968D01*
X136833846Y-136067474D01*
X136830879Y-136072872D01*
X136830875Y-136072877D01*
X136827397Y-136079204D01*
X136738567Y-136240787D01*
X136736706Y-136246654D01*
X136736705Y-136246656D01*
X136680627Y-136423436D01*
X136678765Y-136429306D01*
X136661500Y-136583227D01*
X136661500Y-137289769D01*
X130038500Y-137289769D01*
X130038500Y-136590231D01*
X130037814Y-136583227D01*
X130024681Y-136449301D01*
X130024080Y-136443167D01*
X129966916Y-136253831D01*
X129874066Y-136079204D01*
X129803709Y-135992938D01*
X129752960Y-135930713D01*
X129752957Y-135930710D01*
X129749065Y-135925938D01*
X129742724Y-135920692D01*
X129601425Y-135803799D01*
X129601421Y-135803797D01*
X129596675Y-135799870D01*
X129422701Y-135705802D01*
X129233768Y-135647318D01*
X129227643Y-135646674D01*
X129227642Y-135646674D01*
X129043204Y-135627289D01*
X129043202Y-135627289D01*
X129037075Y-135626645D01*
X128954576Y-135634153D01*
X128846251Y-135644011D01*
X128846248Y-135644012D01*
X128840112Y-135644570D01*
X128834206Y-135646308D01*
X128834202Y-135646309D01*
X128729076Y-135677249D01*
X128650381Y-135700410D01*
X128644923Y-135703263D01*
X128644919Y-135703265D01*
X128554147Y-135750720D01*
X128475110Y-135792040D01*
X128320975Y-135915968D01*
X128193846Y-136067474D01*
X128190879Y-136072872D01*
X128190875Y-136072877D01*
X128187397Y-136079204D01*
X128098567Y-136240787D01*
X128096706Y-136246654D01*
X128096705Y-136246656D01*
X128040627Y-136423436D01*
X128038765Y-136429306D01*
X128021500Y-136583227D01*
X128021500Y-137289769D01*
X125948500Y-137289769D01*
X125948500Y-137119866D01*
X125941745Y-137057684D01*
X125890615Y-136921295D01*
X125803261Y-136804739D01*
X125796080Y-136799357D01*
X125723935Y-136745287D01*
X125681420Y-136688427D01*
X125673500Y-136644461D01*
X125673500Y-132691539D01*
X125693502Y-132623418D01*
X125723935Y-132590713D01*
X125796080Y-132536643D01*
X125796081Y-132536642D01*
X125803261Y-132531261D01*
X125834416Y-132489692D01*
X125891275Y-132447178D01*
X125961438Y-132442011D01*
X126136056Y-132479128D01*
X126136061Y-132479128D01*
X126142513Y-132480500D01*
X126333487Y-132480500D01*
X126339939Y-132479128D01*
X126339944Y-132479128D01*
X126426887Y-132460647D01*
X126520288Y-132440794D01*
X126562745Y-132421891D01*
X126688722Y-132365803D01*
X126688724Y-132365802D01*
X126694752Y-132363118D01*
X126849253Y-132250866D01*
X126861094Y-132237715D01*
X126972621Y-132113852D01*
X126972622Y-132113851D01*
X126977040Y-132108944D01*
X127059075Y-131966856D01*
X127069223Y-131949279D01*
X127069224Y-131949278D01*
X127072527Y-131943556D01*
X127131542Y-131761928D01*
X127144623Y-131637474D01*
X127150814Y-131578565D01*
X127151504Y-131572000D01*
X127131542Y-131382072D01*
X127072527Y-131200444D01*
X126977040Y-131035056D01*
X126962906Y-131019358D01*
X126853675Y-130898045D01*
X126853674Y-130898044D01*
X126849253Y-130893134D01*
X126737471Y-130811919D01*
X126700094Y-130784763D01*
X126700093Y-130784762D01*
X126694752Y-130780882D01*
X126688724Y-130778198D01*
X126688722Y-130778197D01*
X126610629Y-130743428D01*
X126589949Y-130734221D01*
X126535854Y-130688241D01*
X126515204Y-130620314D01*
X126534556Y-130552006D01*
X126587767Y-130505004D01*
X126641198Y-130493114D01*
X126763727Y-130493114D01*
X126922429Y-130452366D01*
X126972455Y-130424864D01*
X127060368Y-130376533D01*
X127060370Y-130376532D01*
X127066010Y-130373431D01*
X127094057Y-130349477D01*
X127172718Y-130270816D01*
X127235030Y-130236790D01*
X127261813Y-130233911D01*
X129278187Y-130233911D01*
X129346308Y-130253913D01*
X129367282Y-130270816D01*
X129445943Y-130349477D01*
X129473990Y-130373431D01*
X129585888Y-130434948D01*
X129635944Y-130485291D01*
X129650837Y-130554708D01*
X129625836Y-130621157D01*
X129569415Y-130663341D01*
X129561707Y-130666231D01*
X129561704Y-130666233D01*
X129553295Y-130669385D01*
X129436739Y-130756739D01*
X129349385Y-130873295D01*
X129298255Y-131009684D01*
X129291500Y-131071866D01*
X129291500Y-131083449D01*
X129271498Y-131151570D01*
X129217842Y-131198063D01*
X129152331Y-131208759D01*
X129037075Y-131196645D01*
X128954576Y-131204153D01*
X128846251Y-131214011D01*
X128846248Y-131214012D01*
X128840112Y-131214570D01*
X128834206Y-131216308D01*
X128834202Y-131216309D01*
X128729076Y-131247249D01*
X128650381Y-131270410D01*
X128644923Y-131273263D01*
X128644919Y-131273265D01*
X128554147Y-131320720D01*
X128475110Y-131362040D01*
X128320975Y-131485968D01*
X128193846Y-131637474D01*
X128190879Y-131642872D01*
X128190875Y-131642877D01*
X128121976Y-131768206D01*
X128098567Y-131810787D01*
X128096706Y-131816654D01*
X128096705Y-131816656D01*
X128054323Y-131950260D01*
X128038765Y-131999306D01*
X128021500Y-132153227D01*
X128021500Y-133359769D01*
X128021800Y-133362825D01*
X128021800Y-133362832D01*
X128024831Y-133393744D01*
X128035920Y-133506833D01*
X128037702Y-133512734D01*
X128037702Y-133512736D01*
X128049809Y-133552837D01*
X128093084Y-133696169D01*
X128185934Y-133870796D01*
X128242113Y-133939678D01*
X128307040Y-134019287D01*
X128307043Y-134019290D01*
X128310935Y-134024062D01*
X128315682Y-134027989D01*
X128315684Y-134027991D01*
X128458575Y-134146201D01*
X128458579Y-134146203D01*
X128463325Y-134150130D01*
X128637299Y-134244198D01*
X128826232Y-134302682D01*
X128832357Y-134303326D01*
X128832358Y-134303326D01*
X129016796Y-134322711D01*
X129016798Y-134322711D01*
X129022925Y-134323355D01*
X129105424Y-134315847D01*
X129213749Y-134305989D01*
X129213752Y-134305988D01*
X129219888Y-134305430D01*
X129225794Y-134303692D01*
X129225798Y-134303691D01*
X129330924Y-134272751D01*
X129409619Y-134249590D01*
X129415077Y-134246737D01*
X129415081Y-134246735D01*
X129505853Y-134199280D01*
X129584890Y-134157960D01*
X129739025Y-134034032D01*
X129787400Y-133976381D01*
X129846507Y-133937056D01*
X129917494Y-133935930D01*
X129960448Y-133957278D01*
X130020257Y-134003006D01*
X130020261Y-134003009D01*
X130025678Y-134007150D01*
X130112372Y-134047576D01*
X130183631Y-134080805D01*
X130183634Y-134080806D01*
X130189808Y-134083685D01*
X130196456Y-134085171D01*
X130196459Y-134085172D01*
X130295706Y-134107356D01*
X130366543Y-134123190D01*
X130372088Y-134123500D01*
X130505244Y-134123500D01*
X130640037Y-134108857D01*
X130758190Y-134069094D01*
X130805204Y-134053272D01*
X130805206Y-134053271D01*
X130811675Y-134051094D01*
X130966905Y-133957823D01*
X131025710Y-133902214D01*
X131088945Y-133869943D01*
X131159592Y-133876982D01*
X131165670Y-133879950D01*
X131167721Y-133881524D01*
X131315746Y-133942838D01*
X131434711Y-133958500D01*
X131434716Y-133958500D01*
X131434725Y-133958501D01*
X131466408Y-133962672D01*
X131474596Y-133963750D01*
X131506289Y-133959578D01*
X131522732Y-133958500D01*
X135079864Y-133958500D01*
X135096307Y-133959578D01*
X135128000Y-133963750D01*
X135136189Y-133962672D01*
X135167874Y-133958501D01*
X135167884Y-133958500D01*
X135167885Y-133958500D01*
X135167901Y-133958498D01*
X135267457Y-133945391D01*
X135278664Y-133943916D01*
X135278666Y-133943915D01*
X135286851Y-133942838D01*
X135434876Y-133881524D01*
X135469171Y-133855209D01*
X135535387Y-133829608D01*
X135604936Y-133843872D01*
X135642111Y-133873843D01*
X135661813Y-133897157D01*
X135667237Y-133901304D01*
X135667238Y-133901305D01*
X135800257Y-134003006D01*
X135800261Y-134003009D01*
X135805678Y-134007150D01*
X135892372Y-134047576D01*
X135963631Y-134080805D01*
X135963634Y-134080806D01*
X135969808Y-134083685D01*
X135976456Y-134085171D01*
X135976459Y-134085172D01*
X136075706Y-134107356D01*
X136146543Y-134123190D01*
X136152088Y-134123500D01*
X136285244Y-134123500D01*
X136420037Y-134108857D01*
X136538190Y-134069094D01*
X136585204Y-134053272D01*
X136585206Y-134053271D01*
X136591675Y-134051094D01*
X136746905Y-133957823D01*
X136747329Y-133958528D01*
X136808520Y-133935238D01*
X136877993Y-133949865D01*
X136915992Y-133981218D01*
X136950935Y-134024062D01*
X136955682Y-134027989D01*
X136955684Y-134027991D01*
X137098575Y-134146201D01*
X137098579Y-134146203D01*
X137103325Y-134150130D01*
X137277299Y-134244198D01*
X137466232Y-134302682D01*
X137472357Y-134303326D01*
X137472358Y-134303326D01*
X137656796Y-134322711D01*
X137656798Y-134322711D01*
X137662925Y-134323355D01*
X137745424Y-134315847D01*
X137853749Y-134305989D01*
X137853752Y-134305988D01*
X137859888Y-134305430D01*
X137865794Y-134303692D01*
X137865798Y-134303691D01*
X137970924Y-134272751D01*
X138049619Y-134249590D01*
X138055077Y-134246737D01*
X138055081Y-134246735D01*
X138145853Y-134199280D01*
X138224890Y-134157960D01*
X138379025Y-134034032D01*
X138506154Y-133882526D01*
X138509121Y-133877128D01*
X138509125Y-133877123D01*
X138598467Y-133714608D01*
X138601433Y-133709213D01*
X138603846Y-133701608D01*
X138659373Y-133526564D01*
X138659373Y-133526563D01*
X138661235Y-133520694D01*
X138678500Y-133366773D01*
X138678500Y-132160231D01*
X138678041Y-132155544D01*
X138668590Y-132059165D01*
X138664080Y-132013167D01*
X138606916Y-131823831D01*
X138514066Y-131649204D01*
X138443709Y-131562938D01*
X138392960Y-131500713D01*
X138392957Y-131500710D01*
X138389065Y-131495938D01*
X138382724Y-131490692D01*
X138241425Y-131373799D01*
X138241421Y-131373797D01*
X138236675Y-131369870D01*
X138062701Y-131275802D01*
X137873768Y-131217318D01*
X137867643Y-131216674D01*
X137867642Y-131216674D01*
X137683204Y-131197289D01*
X137683202Y-131197289D01*
X137677075Y-131196645D01*
X137545920Y-131208581D01*
X137476266Y-131194836D01*
X137425102Y-131145615D01*
X137408500Y-131083100D01*
X137408500Y-131071866D01*
X137408131Y-131068469D01*
X137407947Y-131065072D01*
X137409122Y-131065008D01*
X137420783Y-130999879D01*
X137469092Y-130947852D01*
X137510800Y-130932770D01*
X137513889Y-130932673D01*
X137533343Y-130927021D01*
X137552700Y-130923013D01*
X137564930Y-130921468D01*
X137564931Y-130921468D01*
X137572797Y-130920474D01*
X137580168Y-130917555D01*
X137580170Y-130917555D01*
X137613912Y-130904196D01*
X137625142Y-130900351D01*
X137659983Y-130890229D01*
X137659984Y-130890229D01*
X137667593Y-130888018D01*
X137674412Y-130883985D01*
X137674417Y-130883983D01*
X137685028Y-130877707D01*
X137702776Y-130869012D01*
X137721617Y-130861552D01*
X137757387Y-130835564D01*
X137767307Y-130829048D01*
X137798539Y-130810577D01*
X137805362Y-130806542D01*
X137810968Y-130800936D01*
X137816247Y-130796841D01*
X137882332Y-130770893D01*
X137893475Y-130770399D01*
X137932024Y-130770399D01*
X138089502Y-130729965D01*
X138200345Y-130669029D01*
X138226333Y-130654742D01*
X138226334Y-130654741D01*
X138231977Y-130651639D01*
X138259800Y-130627876D01*
X138324002Y-130563674D01*
X138442890Y-130444785D01*
X138505202Y-130410760D01*
X138576018Y-130415824D01*
X138632854Y-130458371D01*
X138641105Y-130470880D01*
X138706960Y-130584944D01*
X138711378Y-130589851D01*
X138711379Y-130589852D01*
X138823371Y-130714232D01*
X138834747Y-130726866D01*
X138989248Y-130839118D01*
X138995276Y-130841802D01*
X138995278Y-130841803D01*
X139157681Y-130914109D01*
X139163712Y-130916794D01*
X139245831Y-130934249D01*
X139344056Y-130955128D01*
X139344061Y-130955128D01*
X139350513Y-130956500D01*
X139541487Y-130956500D01*
X139547939Y-130955128D01*
X139547944Y-130955128D01*
X139646169Y-130934249D01*
X139728288Y-130916794D01*
X139734319Y-130914109D01*
X139896722Y-130841803D01*
X139896724Y-130841802D01*
X139902752Y-130839118D01*
X140057253Y-130726866D01*
X140068629Y-130714232D01*
X140180621Y-130589852D01*
X140180622Y-130589851D01*
X140185040Y-130584944D01*
X140280527Y-130419556D01*
X140325364Y-130281563D01*
X140365438Y-130222958D01*
X140430835Y-130195321D01*
X140445197Y-130194500D01*
X140557487Y-130194500D01*
X140563939Y-130193128D01*
X140563944Y-130193128D01*
X140650887Y-130174647D01*
X140744288Y-130154794D01*
X140788567Y-130135080D01*
X140912722Y-130079803D01*
X140912724Y-130079802D01*
X140918752Y-130077118D01*
X140944846Y-130058160D01*
X140984035Y-130029687D01*
X141073253Y-129964866D01*
X141088250Y-129948210D01*
X141196621Y-129827852D01*
X141196622Y-129827851D01*
X141201040Y-129822944D01*
X141241882Y-129752204D01*
X141293263Y-129703212D01*
X141362977Y-129689776D01*
X141428888Y-129716162D01*
X141460118Y-129752204D01*
X141500960Y-129822944D01*
X141505378Y-129827851D01*
X141505379Y-129827852D01*
X141613750Y-129948210D01*
X141628747Y-129964866D01*
X141717965Y-130029687D01*
X141757155Y-130058160D01*
X141783248Y-130077118D01*
X141789276Y-130079802D01*
X141789278Y-130079803D01*
X141913433Y-130135080D01*
X141957712Y-130154794D01*
X142051113Y-130174647D01*
X142138056Y-130193128D01*
X142138061Y-130193128D01*
X142144513Y-130194500D01*
X142335487Y-130194500D01*
X142341939Y-130193128D01*
X142341944Y-130193128D01*
X142428887Y-130174647D01*
X142522288Y-130154794D01*
X142566567Y-130135080D01*
X142690722Y-130079803D01*
X142690724Y-130079802D01*
X142696752Y-130077118D01*
X142722846Y-130058160D01*
X142762035Y-130029687D01*
X142851253Y-129964866D01*
X142866250Y-129948210D01*
X142974621Y-129827852D01*
X142974622Y-129827851D01*
X142979040Y-129822944D01*
X143045506Y-129707821D01*
X143071223Y-129663279D01*
X143071224Y-129663278D01*
X143074527Y-129657556D01*
X143133542Y-129475928D01*
X143153504Y-129286000D01*
X143133542Y-129096072D01*
X143074527Y-128914444D01*
X142979040Y-128749056D01*
X142933744Y-128698749D01*
X142855675Y-128612045D01*
X142855674Y-128612044D01*
X142851253Y-128607134D01*
X142696752Y-128494882D01*
X142690724Y-128492198D01*
X142690722Y-128492197D01*
X142528319Y-128419891D01*
X142528318Y-128419891D01*
X142522288Y-128417206D01*
X142409721Y-128393279D01*
X142341944Y-128378872D01*
X142341939Y-128378872D01*
X142335487Y-128377500D01*
X142303016Y-128377500D01*
X142234895Y-128357498D01*
X142188402Y-128303842D01*
X142178010Y-128267292D01*
X142177114Y-128260199D01*
X142177114Y-128252273D01*
X142174784Y-128243195D01*
X142138339Y-128101255D01*
X142138339Y-128101254D01*
X142136366Y-128093571D01*
X142080755Y-127992416D01*
X142060533Y-127955632D01*
X142060532Y-127955630D01*
X142057431Y-127949990D01*
X142033477Y-127921943D01*
X141742879Y-127631345D01*
X141714832Y-127607391D01*
X141663601Y-127579226D01*
X141580344Y-127533455D01*
X141571251Y-127528456D01*
X141552396Y-127523615D01*
X141491391Y-127487303D01*
X141461689Y-127432908D01*
X141459045Y-127422611D01*
X141453255Y-127407986D01*
X141392862Y-127298129D01*
X141382862Y-127288186D01*
X141375393Y-127290996D01*
X141178867Y-127487522D01*
X141121107Y-127520469D01*
X141106054Y-127524333D01*
X141099708Y-127525963D01*
X141089998Y-127528456D01*
X141083057Y-127532272D01*
X141083054Y-127532273D01*
X140952058Y-127604289D01*
X140952056Y-127604290D01*
X140946416Y-127607391D01*
X140918370Y-127631345D01*
X140839709Y-127710006D01*
X140777397Y-127744032D01*
X140750614Y-127746911D01*
X140393891Y-127746911D01*
X140325770Y-127726909D01*
X140304796Y-127710006D01*
X140271379Y-127676589D01*
X139907628Y-127312839D01*
X139894091Y-127305447D01*
X139885413Y-127311519D01*
X139879875Y-127319531D01*
X139863666Y-127349016D01*
X139813321Y-127399074D01*
X139743904Y-127413968D01*
X139677455Y-127388967D01*
X139642836Y-127349014D01*
X139614863Y-127298130D01*
X139604862Y-127288186D01*
X139597393Y-127290996D01*
X139400867Y-127487522D01*
X139343107Y-127520469D01*
X139328054Y-127524333D01*
X139321708Y-127525963D01*
X139311998Y-127528456D01*
X139305057Y-127532272D01*
X139305054Y-127532273D01*
X139174058Y-127604289D01*
X139174056Y-127604290D01*
X139168416Y-127607391D01*
X139140370Y-127631345D01*
X138883348Y-127888367D01*
X138821036Y-127922393D01*
X138750221Y-127917328D01*
X138705158Y-127888368D01*
X138129624Y-127312835D01*
X138116092Y-127305446D01*
X138107413Y-127311518D01*
X138101873Y-127319535D01*
X138029923Y-127450413D01*
X138028501Y-127454005D01*
X138026631Y-127456402D01*
X138026103Y-127457362D01*
X138025948Y-127457277D01*
X137984826Y-127509979D01*
X137917823Y-127533455D01*
X137848765Y-127516979D01*
X137822254Y-127496716D01*
X137645318Y-127319780D01*
X137645307Y-127319770D01*
X137643268Y-127317731D01*
X137586577Y-127270579D01*
X137545541Y-127249126D01*
X137483278Y-127216576D01*
X137452558Y-127194009D01*
X136319476Y-126060927D01*
X136285450Y-125998615D01*
X136290515Y-125927800D01*
X136319473Y-125882739D01*
X136339998Y-125862213D01*
X136402310Y-125828186D01*
X136473126Y-125833249D01*
X136518191Y-125862211D01*
X137182214Y-126526234D01*
X137193081Y-126538625D01*
X137212542Y-126563987D01*
X137233323Y-126579933D01*
X137244442Y-126588465D01*
X137244458Y-126588478D01*
X137339654Y-126661524D01*
X137487679Y-126722838D01*
X137646529Y-126743751D01*
X137654717Y-126742673D01*
X137678227Y-126739578D01*
X137694673Y-126738500D01*
X138381470Y-126738500D01*
X138449591Y-126758502D01*
X138496084Y-126812158D01*
X138506188Y-126882432D01*
X138486979Y-126933375D01*
X138481373Y-126941962D01*
X138487380Y-126952169D01*
X138839778Y-127304568D01*
X138853721Y-127312181D01*
X138855555Y-127312050D01*
X138862169Y-127307799D01*
X139234116Y-126935851D01*
X139241727Y-126921913D01*
X139240594Y-126906077D01*
X139228439Y-126873488D01*
X139243531Y-126804114D01*
X139293733Y-126753912D01*
X139354118Y-126738500D01*
X140159470Y-126738500D01*
X140227591Y-126758502D01*
X140274084Y-126812158D01*
X140284188Y-126882432D01*
X140264979Y-126933375D01*
X140259373Y-126941962D01*
X140265380Y-126952169D01*
X140617778Y-127304568D01*
X140631721Y-127312181D01*
X140633555Y-127312050D01*
X140640169Y-127307799D01*
X141012116Y-126935851D01*
X141019727Y-126921913D01*
X141018594Y-126906077D01*
X141006439Y-126873488D01*
X141021531Y-126804114D01*
X141071733Y-126753912D01*
X141132118Y-126738500D01*
X144514256Y-126738500D01*
X144582377Y-126758502D01*
X144628870Y-126812158D01*
X144639566Y-126851329D01*
X144646673Y-126918945D01*
X144648458Y-126935928D01*
X144707473Y-127117556D01*
X144710776Y-127123278D01*
X144710777Y-127123279D01*
X144722007Y-127142729D01*
X144802960Y-127282944D01*
X144807378Y-127287851D01*
X144807379Y-127287852D01*
X144908808Y-127400500D01*
X144930747Y-127424866D01*
X144998578Y-127474148D01*
X145069895Y-127525963D01*
X145085248Y-127537118D01*
X145091276Y-127539802D01*
X145091278Y-127539803D01*
X145252468Y-127611569D01*
X145259712Y-127614794D01*
X145345830Y-127633099D01*
X145440056Y-127653128D01*
X145440061Y-127653128D01*
X145446513Y-127654500D01*
X145637487Y-127654500D01*
X145643939Y-127653128D01*
X145643944Y-127653128D01*
X145738170Y-127633099D01*
X145824288Y-127614794D01*
X145831532Y-127611569D01*
X145992722Y-127539803D01*
X145992724Y-127539802D01*
X145998752Y-127537118D01*
X146004093Y-127533237D01*
X146009811Y-127529936D01*
X146010530Y-127531182D01*
X146070312Y-127509854D01*
X146139463Y-127525938D01*
X146188941Y-127576854D01*
X146203500Y-127635649D01*
X146203500Y-130424864D01*
X146202422Y-130441307D01*
X146198250Y-130473000D01*
X146203500Y-130512880D01*
X146203500Y-130512885D01*
X146215133Y-130601242D01*
X146215774Y-130606113D01*
X146215774Y-130606115D01*
X146216737Y-130613427D01*
X146219162Y-130631851D01*
X146280476Y-130779876D01*
X146285503Y-130786427D01*
X146285504Y-130786429D01*
X146286966Y-130788334D01*
X146353523Y-130875072D01*
X146353528Y-130875077D01*
X146358464Y-130881510D01*
X146384063Y-130947731D01*
X146384500Y-130958212D01*
X146384500Y-131570502D01*
X146384693Y-131572950D01*
X146384693Y-131572958D01*
X146386932Y-131601401D01*
X146387438Y-131607831D01*
X146399458Y-131649204D01*
X146431586Y-131759790D01*
X146433855Y-131767601D01*
X146437892Y-131774427D01*
X146497198Y-131874708D01*
X146514658Y-131943524D01*
X146492141Y-132010855D01*
X146436797Y-132055325D01*
X146425836Y-132059165D01*
X146425018Y-132059519D01*
X146417404Y-132061731D01*
X146410582Y-132065766D01*
X146410581Y-132065766D01*
X146337290Y-132109110D01*
X146277459Y-132144494D01*
X146225358Y-132196595D01*
X146163046Y-132230621D01*
X146136263Y-132233500D01*
X145886500Y-132233500D01*
X145818379Y-132213498D01*
X145771886Y-132159842D01*
X145760500Y-132107500D01*
X145760500Y-131071866D01*
X145753745Y-131009684D01*
X145702615Y-130873295D01*
X145615261Y-130756739D01*
X145498705Y-130669385D01*
X145362316Y-130618255D01*
X145300134Y-130611500D01*
X144453866Y-130611500D01*
X144391684Y-130618255D01*
X144255295Y-130669385D01*
X144138739Y-130756739D01*
X144051385Y-130873295D01*
X144048611Y-130871216D01*
X144010202Y-130909565D01*
X143940816Y-130924603D01*
X143874315Y-130899741D01*
X143870025Y-130896213D01*
X143867253Y-130893134D01*
X143755471Y-130811919D01*
X143718094Y-130784763D01*
X143718093Y-130784762D01*
X143712752Y-130780882D01*
X143706724Y-130778198D01*
X143706722Y-130778197D01*
X143544319Y-130705891D01*
X143544318Y-130705891D01*
X143538288Y-130703206D01*
X143444888Y-130683353D01*
X143357944Y-130664872D01*
X143357939Y-130664872D01*
X143351487Y-130663500D01*
X143160513Y-130663500D01*
X143154061Y-130664872D01*
X143154056Y-130664872D01*
X143067112Y-130683353D01*
X142973712Y-130703206D01*
X142967682Y-130705891D01*
X142967681Y-130705891D01*
X142805278Y-130778197D01*
X142805276Y-130778198D01*
X142799248Y-130780882D01*
X142793907Y-130784762D01*
X142793906Y-130784763D01*
X142756529Y-130811919D01*
X142644747Y-130893134D01*
X142640326Y-130898044D01*
X142640325Y-130898045D01*
X142531095Y-131019358D01*
X142516960Y-131035056D01*
X142421473Y-131200444D01*
X142362458Y-131382072D01*
X142342496Y-131572000D01*
X142346904Y-131613935D01*
X142352629Y-131668410D01*
X142339857Y-131738248D01*
X142291355Y-131790095D01*
X142222522Y-131807489D01*
X142155212Y-131784908D01*
X142138224Y-131770675D01*
X142047405Y-131679856D01*
X142013379Y-131617544D01*
X142010500Y-131590761D01*
X142010500Y-131071866D01*
X142003745Y-131009684D01*
X141952615Y-130873295D01*
X141865261Y-130756739D01*
X141748705Y-130669385D01*
X141612316Y-130618255D01*
X141550134Y-130611500D01*
X140703866Y-130611500D01*
X140641684Y-130618255D01*
X140505295Y-130669385D01*
X140388739Y-130756739D01*
X140301385Y-130873295D01*
X140250255Y-131009684D01*
X140243500Y-131071866D01*
X140243500Y-132168134D01*
X140250255Y-132230316D01*
X140301385Y-132366705D01*
X140388739Y-132483261D01*
X140395919Y-132488642D01*
X140395920Y-132488643D01*
X140468065Y-132542713D01*
X140510580Y-132599573D01*
X140518500Y-132643539D01*
X140518500Y-136596461D01*
X140498498Y-136664582D01*
X140468065Y-136697287D01*
X140434065Y-136722769D01*
X140388739Y-136756739D01*
X140301385Y-136873295D01*
X140250255Y-137009684D01*
X140243500Y-137071866D01*
X140243500Y-138168134D01*
X140250255Y-138230316D01*
X140301385Y-138366705D01*
X140388739Y-138483261D01*
X140505295Y-138570615D01*
X140641684Y-138621745D01*
X140703866Y-138628500D01*
X141550134Y-138628500D01*
X141612316Y-138621745D01*
X141748705Y-138570615D01*
X141865261Y-138483261D01*
X141952615Y-138366705D01*
X142003745Y-138230316D01*
X142010500Y-138168134D01*
X142010500Y-137668000D01*
X142342496Y-137668000D01*
X142343186Y-137674565D01*
X142359590Y-137830636D01*
X142362458Y-137857928D01*
X142421473Y-138039556D01*
X142516960Y-138204944D01*
X142521378Y-138209851D01*
X142521379Y-138209852D01*
X142560046Y-138252796D01*
X142644747Y-138346866D01*
X142799248Y-138459118D01*
X142805276Y-138461802D01*
X142805278Y-138461803D01*
X142967681Y-138534109D01*
X142973712Y-138536794D01*
X143044733Y-138551890D01*
X143154056Y-138575128D01*
X143154061Y-138575128D01*
X143160513Y-138576500D01*
X143351487Y-138576500D01*
X143357939Y-138575128D01*
X143357944Y-138575128D01*
X143467267Y-138551890D01*
X143538288Y-138536794D01*
X143544319Y-138534109D01*
X143706722Y-138461803D01*
X143706724Y-138461802D01*
X143712752Y-138459118D01*
X143763991Y-138421891D01*
X143851520Y-138358297D01*
X143867253Y-138346866D01*
X143867616Y-138346462D01*
X143929596Y-138316716D01*
X144000050Y-138325479D01*
X144050393Y-138367448D01*
X144051385Y-138366705D01*
X144054678Y-138371099D01*
X144054680Y-138371102D01*
X144087359Y-138414705D01*
X144138739Y-138483261D01*
X144255295Y-138570615D01*
X144391684Y-138621745D01*
X144453866Y-138628500D01*
X145300134Y-138628500D01*
X145362316Y-138621745D01*
X145498705Y-138570615D01*
X145615261Y-138483261D01*
X145702615Y-138366705D01*
X145753745Y-138230316D01*
X145760500Y-138168134D01*
X145760500Y-137071866D01*
X145753745Y-137009684D01*
X145702615Y-136873295D01*
X145615261Y-136756739D01*
X145498705Y-136669385D01*
X145362316Y-136618255D01*
X145300134Y-136611500D01*
X144453866Y-136611500D01*
X144391684Y-136618255D01*
X144255295Y-136669385D01*
X144138739Y-136756739D01*
X144051385Y-136873295D01*
X144048233Y-136881703D01*
X144048232Y-136881705D01*
X144035951Y-136914465D01*
X143993310Y-136971230D01*
X143926749Y-136995930D01*
X143857400Y-136980723D01*
X143843908Y-136972172D01*
X143718094Y-136880763D01*
X143718093Y-136880762D01*
X143712752Y-136876882D01*
X143706724Y-136874198D01*
X143706722Y-136874197D01*
X143544319Y-136801891D01*
X143544318Y-136801891D01*
X143538288Y-136799206D01*
X143420377Y-136774143D01*
X143357944Y-136760872D01*
X143357939Y-136760872D01*
X143351487Y-136759500D01*
X143160513Y-136759500D01*
X143154061Y-136760872D01*
X143154056Y-136760872D01*
X143091623Y-136774143D01*
X142973712Y-136799206D01*
X142967682Y-136801891D01*
X142967681Y-136801891D01*
X142805278Y-136874197D01*
X142805276Y-136874198D01*
X142799248Y-136876882D01*
X142793907Y-136880762D01*
X142793906Y-136880763D01*
X142772934Y-136896000D01*
X142644747Y-136989134D01*
X142640326Y-136994044D01*
X142640325Y-136994045D01*
X142527036Y-137119866D01*
X142516960Y-137131056D01*
X142421473Y-137296444D01*
X142362458Y-137478072D01*
X142361768Y-137484633D01*
X142361768Y-137484635D01*
X142351608Y-137581300D01*
X142342496Y-137668000D01*
X142010500Y-137668000D01*
X142010500Y-137071866D01*
X142003745Y-137009684D01*
X141952615Y-136873295D01*
X141865261Y-136756739D01*
X141819935Y-136722769D01*
X141785935Y-136697287D01*
X141743420Y-136640427D01*
X141735500Y-136596461D01*
X141735500Y-133393744D01*
X141755502Y-133325623D01*
X141809158Y-133279130D01*
X141879432Y-133269026D01*
X141938202Y-133293781D01*
X141946925Y-133300474D01*
X141946928Y-133300477D01*
X141946935Y-133300483D01*
X141946939Y-133300486D01*
X142024198Y-133359769D01*
X142042124Y-133373524D01*
X142190149Y-133434838D01*
X142198336Y-133435916D01*
X142198337Y-133435916D01*
X142209542Y-133437391D01*
X142240738Y-133441498D01*
X142309115Y-133450500D01*
X142309118Y-133450500D01*
X142309126Y-133450501D01*
X142340811Y-133454672D01*
X142349000Y-133455750D01*
X142380693Y-133451578D01*
X142397136Y-133450500D01*
X146136263Y-133450500D01*
X146204384Y-133470502D01*
X146225358Y-133487405D01*
X146277459Y-133539506D01*
X146284280Y-133543540D01*
X146300001Y-133552837D01*
X146417404Y-133622269D01*
X146425015Y-133624480D01*
X146425017Y-133624481D01*
X146515750Y-133650841D01*
X146573534Y-133667629D01*
X146579941Y-133668133D01*
X146579945Y-133668134D01*
X146607556Y-133670307D01*
X146607562Y-133670307D01*
X146610011Y-133670500D01*
X146809878Y-133670500D01*
X147009988Y-133670499D01*
X147046466Y-133667629D01*
X147143270Y-133639505D01*
X147194983Y-133624481D01*
X147194985Y-133624480D01*
X147202596Y-133622269D01*
X147209421Y-133618233D01*
X147209425Y-133618231D01*
X147255861Y-133590769D01*
X147324677Y-133573309D01*
X147384139Y-133590769D01*
X147430575Y-133618231D01*
X147430579Y-133618233D01*
X147437404Y-133622269D01*
X147445015Y-133624480D01*
X147445017Y-133624481D01*
X147535750Y-133650841D01*
X147593534Y-133667629D01*
X147599941Y-133668133D01*
X147599945Y-133668134D01*
X147627556Y-133670307D01*
X147627562Y-133670307D01*
X147630011Y-133670500D01*
X147829878Y-133670500D01*
X148029988Y-133670499D01*
X148066466Y-133667629D01*
X148163270Y-133639505D01*
X148214983Y-133624481D01*
X148214985Y-133624480D01*
X148222596Y-133622269D01*
X148340000Y-133552837D01*
X148355720Y-133543540D01*
X148362541Y-133539506D01*
X148477506Y-133424541D01*
X148495719Y-133393744D01*
X148556234Y-133291419D01*
X148556234Y-133291418D01*
X148560269Y-133284596D01*
X148572042Y-133244075D01*
X148603834Y-133134644D01*
X148605629Y-133128466D01*
X148608500Y-133091989D01*
X148608500Y-132976239D01*
X148628502Y-132908118D01*
X148645405Y-132887144D01*
X148859234Y-132673315D01*
X148871625Y-132662448D01*
X148890437Y-132648013D01*
X148896987Y-132642987D01*
X148921474Y-132611075D01*
X148921480Y-132611069D01*
X148989496Y-132522429D01*
X148989497Y-132522427D01*
X148994524Y-132515876D01*
X149023556Y-132445785D01*
X149055838Y-132367850D01*
X149071500Y-132248885D01*
X149071500Y-132248878D01*
X149076750Y-132209000D01*
X149075672Y-132200811D01*
X149075672Y-132192555D01*
X149078487Y-132192555D01*
X149087316Y-132135970D01*
X149134448Y-132082876D01*
X149202804Y-132063691D01*
X149265430Y-132081228D01*
X149319399Y-132113145D01*
X149327010Y-132115356D01*
X149327012Y-132115357D01*
X149379231Y-132130528D01*
X149479169Y-132159562D01*
X149485574Y-132160066D01*
X149485579Y-132160067D01*
X149514042Y-132162307D01*
X149514050Y-132162307D01*
X149516498Y-132162500D01*
X149949502Y-132162500D01*
X149951950Y-132162307D01*
X149951958Y-132162307D01*
X149980421Y-132160067D01*
X149980426Y-132160066D01*
X149986831Y-132159562D01*
X150086769Y-132130528D01*
X150138988Y-132115357D01*
X150138990Y-132115356D01*
X150146601Y-132113145D01*
X150289807Y-132028453D01*
X150292747Y-132025513D01*
X150357271Y-132000179D01*
X150426894Y-132014080D01*
X150445640Y-132026129D01*
X150453323Y-132032089D01*
X150582779Y-132108648D01*
X150597210Y-132114893D01*
X150731605Y-132153939D01*
X150745706Y-132153899D01*
X150749000Y-132146630D01*
X150749000Y-132140878D01*
X151257000Y-132140878D01*
X151260973Y-132154409D01*
X151268871Y-132155544D01*
X151408790Y-132114893D01*
X151423221Y-132108648D01*
X151552678Y-132032089D01*
X151565104Y-132022449D01*
X151671449Y-131916104D01*
X151681089Y-131903678D01*
X151757648Y-131774221D01*
X151763893Y-131759790D01*
X151806269Y-131613935D01*
X151808570Y-131601333D01*
X151810807Y-131572916D01*
X151811000Y-131567986D01*
X151811000Y-131126115D01*
X151806525Y-131110876D01*
X151805135Y-131109671D01*
X151797452Y-131108000D01*
X151275115Y-131108000D01*
X151259876Y-131112475D01*
X151258671Y-131113865D01*
X151257000Y-131121548D01*
X151257000Y-132140878D01*
X150749000Y-132140878D01*
X150749000Y-130581885D01*
X151257000Y-130581885D01*
X151261475Y-130597124D01*
X151262865Y-130598329D01*
X151270548Y-130600000D01*
X151792884Y-130600000D01*
X151808123Y-130595525D01*
X151809328Y-130594135D01*
X151810999Y-130586452D01*
X151810999Y-130140017D01*
X151810805Y-130135080D01*
X151808570Y-130106664D01*
X151806270Y-130094069D01*
X151763893Y-129948210D01*
X151757648Y-129933779D01*
X151681089Y-129804322D01*
X151671449Y-129791896D01*
X151565104Y-129685551D01*
X151552678Y-129675911D01*
X151423221Y-129599352D01*
X151408790Y-129593107D01*
X151274395Y-129554061D01*
X151260294Y-129554101D01*
X151257000Y-129561370D01*
X151257000Y-130581885D01*
X150749000Y-130581885D01*
X150749000Y-129567122D01*
X150745027Y-129553591D01*
X150737129Y-129552456D01*
X150597210Y-129593107D01*
X150582779Y-129599352D01*
X150453324Y-129675910D01*
X150445636Y-129681874D01*
X150379551Y-129707821D01*
X150309928Y-129693920D01*
X150293842Y-129683582D01*
X150289807Y-129679547D01*
X150262300Y-129663279D01*
X150153427Y-129598892D01*
X150153428Y-129598892D01*
X150146601Y-129594855D01*
X150138990Y-129592644D01*
X150138988Y-129592643D01*
X150051142Y-129567122D01*
X149986831Y-129548438D01*
X149949613Y-129545509D01*
X149883273Y-129520224D01*
X149841133Y-129463086D01*
X149833500Y-129419897D01*
X149833500Y-127364636D01*
X149834578Y-127348190D01*
X149837672Y-127324688D01*
X149838750Y-127316500D01*
X149833500Y-127276620D01*
X149833500Y-127276615D01*
X149819561Y-127170739D01*
X149817838Y-127157649D01*
X149813513Y-127147206D01*
X149777985Y-127061435D01*
X149756524Y-127009624D01*
X149683478Y-126914429D01*
X149683474Y-126914425D01*
X149683471Y-126914421D01*
X149664016Y-126889066D01*
X149664013Y-126889063D01*
X149658987Y-126882513D01*
X149647226Y-126873488D01*
X149633621Y-126863048D01*
X149621230Y-126852181D01*
X149604219Y-126835170D01*
X149570193Y-126772858D01*
X149567659Y-126749284D01*
X149568004Y-126746000D01*
X149565352Y-126720763D01*
X149548732Y-126562635D01*
X149548732Y-126562633D01*
X149548042Y-126556072D01*
X149489027Y-126374444D01*
X149393540Y-126209056D01*
X149329251Y-126137656D01*
X149270177Y-126072047D01*
X149270175Y-126072045D01*
X149265753Y-126067134D01*
X149265063Y-126066633D01*
X149228944Y-126008006D01*
X149230295Y-125937022D01*
X149269809Y-125878037D01*
X149287493Y-125865696D01*
X149289243Y-125864686D01*
X149296876Y-125861524D01*
X149303429Y-125856496D01*
X149303432Y-125856494D01*
X149392072Y-125788477D01*
X149392075Y-125788474D01*
X149417434Y-125769015D01*
X149423987Y-125763987D01*
X149429017Y-125757432D01*
X149443452Y-125738621D01*
X149454319Y-125726230D01*
X150129234Y-125051315D01*
X150141625Y-125040448D01*
X150160437Y-125026013D01*
X150166987Y-125020987D01*
X150191474Y-124989075D01*
X150191478Y-124989071D01*
X150264524Y-124893876D01*
X150267685Y-124886245D01*
X150271815Y-124879092D01*
X150273713Y-124880188D01*
X150311023Y-124833892D01*
X150378387Y-124811474D01*
X150447017Y-124828940D01*
X150589399Y-124913145D01*
X150597010Y-124915356D01*
X150597012Y-124915357D01*
X150649231Y-124930528D01*
X150749169Y-124959562D01*
X150755574Y-124960066D01*
X150755579Y-124960067D01*
X150784042Y-124962307D01*
X150784050Y-124962307D01*
X150786498Y-124962500D01*
X151219502Y-124962500D01*
X151221950Y-124962307D01*
X151221958Y-124962307D01*
X151250421Y-124960067D01*
X151250426Y-124960066D01*
X151256831Y-124959562D01*
X151356769Y-124930528D01*
X151408988Y-124915357D01*
X151408990Y-124915356D01*
X151416601Y-124913145D01*
X151472328Y-124880188D01*
X151552980Y-124832491D01*
X151552983Y-124832489D01*
X151559807Y-124828453D01*
X151677453Y-124710807D01*
X151681489Y-124703983D01*
X151681491Y-124703980D01*
X151758108Y-124574427D01*
X151762145Y-124567601D01*
X151808562Y-124407831D01*
X151809184Y-124399937D01*
X151811307Y-124372958D01*
X151811307Y-124372950D01*
X151811500Y-124370502D01*
X151811500Y-122937498D01*
X151808562Y-122900169D01*
X151775425Y-122786109D01*
X151764357Y-122748012D01*
X151764356Y-122748010D01*
X151762145Y-122740399D01*
X151711767Y-122655215D01*
X151681491Y-122604020D01*
X151681489Y-122604017D01*
X151677453Y-122597193D01*
X151644189Y-122563929D01*
X151610163Y-122501617D01*
X151608362Y-122491280D01*
X151595838Y-122396150D01*
X151595302Y-122394855D01*
X151578403Y-122354056D01*
X151555894Y-122299716D01*
X151534524Y-122248124D01*
X151529379Y-122241418D01*
X151461483Y-122152936D01*
X151461477Y-122152928D01*
X151461474Y-122152925D01*
X151436987Y-122121013D01*
X151422541Y-122109928D01*
X151411621Y-122101548D01*
X151399230Y-122090681D01*
X151375692Y-122067143D01*
X151341666Y-122004831D01*
X151346731Y-121934016D01*
X151389278Y-121877180D01*
X151430384Y-121857926D01*
X151430316Y-121857745D01*
X151437709Y-121854973D01*
X151437711Y-121854973D01*
X151558297Y-121809767D01*
X151566705Y-121806615D01*
X151683261Y-121719261D01*
X151770615Y-121602705D01*
X151821745Y-121466316D01*
X151828500Y-121404134D01*
X151828500Y-120307866D01*
X151821745Y-120245684D01*
X151770615Y-120109295D01*
X151683261Y-119992739D01*
X151566705Y-119905385D01*
X151430316Y-119854255D01*
X151368134Y-119847500D01*
X149671866Y-119847500D01*
X149609684Y-119854255D01*
X149473295Y-119905385D01*
X149466110Y-119910770D01*
X149466108Y-119910771D01*
X149395565Y-119963640D01*
X149329058Y-119988488D01*
X149259676Y-119973435D01*
X149244435Y-119963640D01*
X149173892Y-119910771D01*
X149173890Y-119910770D01*
X149166705Y-119905385D01*
X149030316Y-119854255D01*
X148968134Y-119847500D01*
X147271866Y-119847500D01*
X147209684Y-119854255D01*
X147073295Y-119905385D01*
X146956739Y-119992739D01*
X146869385Y-120109295D01*
X146818255Y-120245684D01*
X146811500Y-120307866D01*
X146811500Y-121404134D01*
X146818255Y-121466316D01*
X146869385Y-121602705D01*
X146880538Y-121617586D01*
X146880800Y-121617936D01*
X146905647Y-121684443D01*
X146890593Y-121753825D01*
X146840419Y-121804055D01*
X146779973Y-121819500D01*
X142822186Y-121819500D01*
X142805740Y-121818422D01*
X142782238Y-121815328D01*
X142774050Y-121814250D01*
X142765862Y-121815328D01*
X142734179Y-121819499D01*
X142734170Y-121819500D01*
X142734165Y-121819500D01*
X142615200Y-121835162D01*
X142467175Y-121896476D01*
X142467173Y-121896477D01*
X142467174Y-121896477D01*
X142371978Y-121969523D01*
X142371975Y-121969526D01*
X142340063Y-121994013D01*
X142335033Y-122000568D01*
X142320598Y-122019379D01*
X142309731Y-122031770D01*
X141034906Y-123306595D01*
X140972594Y-123340621D01*
X140945811Y-123343500D01*
X138601194Y-123343500D01*
X138533073Y-123323498D01*
X138512099Y-123306595D01*
X138019461Y-122813957D01*
X138019456Y-122813953D01*
X137976245Y-122770742D01*
X137942219Y-122708430D01*
X137947284Y-122637615D01*
X137976244Y-122592552D01*
X138365608Y-122203187D01*
X138370626Y-122197524D01*
X138415396Y-122140430D01*
X138423604Y-122126634D01*
X138472907Y-122012700D01*
X138477485Y-121996306D01*
X138494266Y-121873804D01*
X138494266Y-121856779D01*
X138487097Y-121804443D01*
X138497669Y-121734238D01*
X138544518Y-121680893D01*
X138612771Y-121661346D01*
X138680757Y-121681802D01*
X138701026Y-121698248D01*
X138714114Y-121711336D01*
X138717750Y-121714698D01*
X138738996Y-121732844D01*
X138749531Y-121740125D01*
X138880413Y-121812077D01*
X138895043Y-121817869D01*
X139038263Y-121854643D01*
X139053865Y-121856614D01*
X139174383Y-121856614D01*
X139242504Y-121876616D01*
X139288997Y-121930272D01*
X139299693Y-121969442D01*
X139305516Y-122024846D01*
X139313363Y-122099506D01*
X139314458Y-122109928D01*
X139373473Y-122291556D01*
X139376776Y-122297278D01*
X139376777Y-122297279D01*
X139395145Y-122329093D01*
X139468960Y-122456944D01*
X139473378Y-122461851D01*
X139473379Y-122461852D01*
X139587544Y-122588645D01*
X139596747Y-122598866D01*
X139751248Y-122711118D01*
X139757276Y-122713802D01*
X139757278Y-122713803D01*
X139885166Y-122770742D01*
X139925712Y-122788794D01*
X140019113Y-122808647D01*
X140106056Y-122827128D01*
X140106061Y-122827128D01*
X140112513Y-122828500D01*
X140303487Y-122828500D01*
X140309939Y-122827128D01*
X140309944Y-122827128D01*
X140396887Y-122808647D01*
X140490288Y-122788794D01*
X140530834Y-122770742D01*
X140658722Y-122713803D01*
X140658724Y-122713802D01*
X140664752Y-122711118D01*
X140819253Y-122598866D01*
X140828456Y-122588645D01*
X140942621Y-122461852D01*
X140942622Y-122461851D01*
X140947040Y-122456944D01*
X141020855Y-122329093D01*
X141039223Y-122297279D01*
X141039224Y-122297278D01*
X141042527Y-122291556D01*
X141101542Y-122109928D01*
X141102638Y-122099506D01*
X141120814Y-121926565D01*
X141121504Y-121920000D01*
X141121439Y-121919378D01*
X141140816Y-121853384D01*
X141146851Y-121844802D01*
X141148798Y-121842265D01*
X141157088Y-121831461D01*
X141157091Y-121831458D01*
X141170499Y-121813984D01*
X141225110Y-121742815D01*
X141225111Y-121742813D01*
X141230138Y-121736262D01*
X141291452Y-121588237D01*
X141298856Y-121531998D01*
X141307114Y-121469271D01*
X141307114Y-121469266D01*
X141312364Y-121429386D01*
X141308192Y-121397693D01*
X141307114Y-121381250D01*
X141307114Y-118357500D01*
X141327116Y-118289379D01*
X141380772Y-118242886D01*
X141433114Y-118231500D01*
X141540000Y-118231500D01*
X141608121Y-118251502D01*
X141654614Y-118305158D01*
X141666000Y-118357500D01*
X141666000Y-119634878D01*
X141669973Y-119648409D01*
X141677871Y-119649544D01*
X141817790Y-119608893D01*
X141832221Y-119602648D01*
X141961678Y-119526089D01*
X141974104Y-119516449D01*
X142080449Y-119410104D01*
X142090089Y-119397677D01*
X142131256Y-119328067D01*
X142183149Y-119279614D01*
X142253000Y-119266909D01*
X142318631Y-119293984D01*
X142348163Y-119328067D01*
X142389509Y-119397980D01*
X142389511Y-119397983D01*
X142393547Y-119404807D01*
X142511193Y-119522453D01*
X142509990Y-119523656D01*
X142545985Y-119573496D01*
X142549837Y-119644388D01*
X142514750Y-119706108D01*
X142451864Y-119739061D01*
X142427193Y-119741500D01*
X142398513Y-119741500D01*
X142392061Y-119742872D01*
X142392056Y-119742872D01*
X142305112Y-119761353D01*
X142211712Y-119781206D01*
X142205682Y-119783891D01*
X142205681Y-119783891D01*
X142043278Y-119856197D01*
X142043276Y-119856198D01*
X142037248Y-119858882D01*
X141882747Y-119971134D01*
X141878326Y-119976044D01*
X141878325Y-119976045D01*
X141798096Y-120065149D01*
X141754960Y-120113056D01*
X141659473Y-120278444D01*
X141600458Y-120460072D01*
X141599768Y-120466633D01*
X141599768Y-120466635D01*
X141588125Y-120577417D01*
X141580496Y-120650000D01*
X141581186Y-120656565D01*
X141586760Y-120709594D01*
X141600458Y-120839928D01*
X141659473Y-121021556D01*
X141754960Y-121186944D01*
X141759378Y-121191851D01*
X141759379Y-121191852D01*
X141803753Y-121241134D01*
X141882747Y-121328866D01*
X141977483Y-121397696D01*
X142016088Y-121425744D01*
X142037248Y-121441118D01*
X142043276Y-121443802D01*
X142043278Y-121443803D01*
X142101379Y-121469671D01*
X142211712Y-121518794D01*
X142273832Y-121531998D01*
X142392056Y-121557128D01*
X142392061Y-121557128D01*
X142398513Y-121558500D01*
X142589487Y-121558500D01*
X142595939Y-121557128D01*
X142595944Y-121557128D01*
X142714168Y-121531998D01*
X142776288Y-121518794D01*
X142886621Y-121469671D01*
X142944722Y-121443803D01*
X142944724Y-121443802D01*
X142950752Y-121441118D01*
X142971913Y-121425744D01*
X143010517Y-121397696D01*
X143105253Y-121328866D01*
X143184247Y-121241134D01*
X143228621Y-121191852D01*
X143228622Y-121191851D01*
X143233040Y-121186944D01*
X143328527Y-121021556D01*
X143387542Y-120839928D01*
X143401241Y-120709594D01*
X143406814Y-120656565D01*
X143407504Y-120650000D01*
X143407316Y-120648214D01*
X143426816Y-120581804D01*
X143443719Y-120560830D01*
X144387003Y-119617546D01*
X144449315Y-119583520D01*
X144520130Y-119588585D01*
X144540241Y-119598190D01*
X144547777Y-119602647D01*
X144562210Y-119608893D01*
X144696605Y-119647939D01*
X144710706Y-119647899D01*
X144714000Y-119640630D01*
X144714000Y-118357500D01*
X144734002Y-118289379D01*
X144787658Y-118242886D01*
X144840000Y-118231500D01*
X145096000Y-118231500D01*
X145164121Y-118251502D01*
X145210614Y-118305158D01*
X145222000Y-118357500D01*
X145222000Y-119634878D01*
X145225973Y-119648409D01*
X145233871Y-119649544D01*
X145373790Y-119608893D01*
X145388221Y-119602648D01*
X145517678Y-119526089D01*
X145530104Y-119516449D01*
X145636449Y-119410104D01*
X145646089Y-119397678D01*
X145722648Y-119268221D01*
X145728893Y-119253790D01*
X145767445Y-119121096D01*
X145805658Y-119061261D01*
X145870155Y-119031584D01*
X145940457Y-119041488D01*
X145962503Y-119054314D01*
X146095906Y-119151237D01*
X146101248Y-119155118D01*
X146107276Y-119157802D01*
X146107278Y-119157803D01*
X146269681Y-119230109D01*
X146275712Y-119232794D01*
X146348944Y-119248360D01*
X146456056Y-119271128D01*
X146456061Y-119271128D01*
X146462513Y-119272500D01*
X146653487Y-119272500D01*
X146659939Y-119271128D01*
X146659944Y-119271128D01*
X146767056Y-119248360D01*
X146840288Y-119232794D01*
X146857068Y-119225323D01*
X146927435Y-119215889D01*
X146983882Y-119239604D01*
X147066108Y-119301229D01*
X147073295Y-119306615D01*
X147209684Y-119357745D01*
X147271866Y-119364500D01*
X148968134Y-119364500D01*
X149030316Y-119357745D01*
X149166705Y-119306615D01*
X149173892Y-119301229D01*
X149244435Y-119248360D01*
X149310942Y-119223512D01*
X149380324Y-119238565D01*
X149395565Y-119248360D01*
X149466108Y-119301229D01*
X149473295Y-119306615D01*
X149609684Y-119357745D01*
X149671866Y-119364500D01*
X151368134Y-119364500D01*
X151430316Y-119357745D01*
X151566705Y-119306615D01*
X151683261Y-119219261D01*
X151770615Y-119102705D01*
X151821745Y-118966316D01*
X151828500Y-118904134D01*
X151828500Y-117807866D01*
X151821745Y-117745684D01*
X151770615Y-117609295D01*
X151683261Y-117492739D01*
X151566705Y-117405385D01*
X151430316Y-117354255D01*
X151368134Y-117347500D01*
X149671866Y-117347500D01*
X149609684Y-117354255D01*
X149473295Y-117405385D01*
X149466110Y-117410770D01*
X149466108Y-117410771D01*
X149395565Y-117463640D01*
X149329058Y-117488488D01*
X149259676Y-117473435D01*
X149244435Y-117463640D01*
X149173892Y-117410771D01*
X149173890Y-117410770D01*
X149166705Y-117405385D01*
X149030316Y-117354255D01*
X148968134Y-117347500D01*
X147271866Y-117347500D01*
X147209684Y-117354255D01*
X147073295Y-117405385D01*
X147025040Y-117441550D01*
X146970490Y-117482433D01*
X146903984Y-117507281D01*
X146853108Y-117498369D01*
X146852600Y-117499932D01*
X146846320Y-117497892D01*
X146840288Y-117495206D01*
X146737864Y-117473435D01*
X146659944Y-117456872D01*
X146659939Y-117456872D01*
X146653487Y-117455500D01*
X146462513Y-117455500D01*
X146456061Y-117456872D01*
X146456056Y-117456872D01*
X146378136Y-117473435D01*
X146275712Y-117495206D01*
X146269682Y-117497891D01*
X146269681Y-117497891D01*
X146107278Y-117570197D01*
X146107276Y-117570198D01*
X146101248Y-117572882D01*
X146095907Y-117576762D01*
X146095906Y-117576763D01*
X146079505Y-117588679D01*
X145946747Y-117685134D01*
X145919963Y-117714881D01*
X145859520Y-117752119D01*
X145788537Y-117750768D01*
X145729552Y-117711254D01*
X145717875Y-117694708D01*
X145646089Y-117573322D01*
X145636449Y-117560896D01*
X145530105Y-117454552D01*
X145521500Y-117447877D01*
X145479934Y-117390320D01*
X145476085Y-117319427D01*
X145511174Y-117257708D01*
X145519143Y-117250803D01*
X145524807Y-117247453D01*
X145642453Y-117129807D01*
X145646489Y-117122983D01*
X145646491Y-117122980D01*
X145723108Y-116993427D01*
X145727145Y-116986601D01*
X145773562Y-116826831D01*
X145775154Y-116806615D01*
X145776307Y-116791958D01*
X145776307Y-116791950D01*
X145776500Y-116789502D01*
X145776500Y-116572634D01*
X145796502Y-116504513D01*
X145850158Y-116458020D01*
X145920432Y-116447916D01*
X145921405Y-116448116D01*
X145923149Y-116448838D01*
X145928111Y-116449491D01*
X145928115Y-116449492D01*
X145938957Y-116450919D01*
X145996237Y-116458460D01*
X146042115Y-116464500D01*
X146042116Y-116464500D01*
X146042126Y-116464501D01*
X146073811Y-116468672D01*
X146082000Y-116469750D01*
X146113693Y-116465578D01*
X146130136Y-116464500D01*
X146730246Y-116464500D01*
X146798367Y-116484502D01*
X146844860Y-116538158D01*
X146848228Y-116546270D01*
X146869385Y-116602705D01*
X146956739Y-116719261D01*
X147073295Y-116806615D01*
X147209684Y-116857745D01*
X147271866Y-116864500D01*
X148968134Y-116864500D01*
X149030316Y-116857745D01*
X149166705Y-116806615D01*
X149189539Y-116789502D01*
X149244435Y-116748360D01*
X149310942Y-116723512D01*
X149380324Y-116738565D01*
X149395565Y-116748360D01*
X149450461Y-116789502D01*
X149473295Y-116806615D01*
X149609684Y-116857745D01*
X149671866Y-116864500D01*
X151368134Y-116864500D01*
X151430316Y-116857745D01*
X151566705Y-116806615D01*
X151683261Y-116719261D01*
X151770615Y-116602705D01*
X151821745Y-116466316D01*
X151828500Y-116404134D01*
X151828500Y-115307866D01*
X151821745Y-115245684D01*
X151770615Y-115109295D01*
X151683261Y-114992739D01*
X151566705Y-114905385D01*
X151430316Y-114854255D01*
X151368134Y-114847500D01*
X149671866Y-114847500D01*
X149609684Y-114854255D01*
X149473295Y-114905385D01*
X149466110Y-114910770D01*
X149466108Y-114910771D01*
X149395565Y-114963640D01*
X149329058Y-114988488D01*
X149259676Y-114973435D01*
X149244435Y-114963640D01*
X149173892Y-114910771D01*
X149173890Y-114910770D01*
X149166705Y-114905385D01*
X149030316Y-114854255D01*
X148968134Y-114847500D01*
X147271866Y-114847500D01*
X147209684Y-114854255D01*
X147073295Y-114905385D01*
X146956739Y-114992739D01*
X146869385Y-115109295D01*
X146866233Y-115117703D01*
X146848228Y-115165730D01*
X146805586Y-115222495D01*
X146739024Y-115247194D01*
X146730246Y-115247500D01*
X146386239Y-115247500D01*
X146318118Y-115227498D01*
X146297144Y-115210595D01*
X145983719Y-114897170D01*
X145949693Y-114834858D01*
X145947159Y-114811284D01*
X145947504Y-114808000D01*
X145927542Y-114618072D01*
X145868527Y-114436444D01*
X145773040Y-114271056D01*
X145645253Y-114129134D01*
X145490752Y-114016882D01*
X145484724Y-114014198D01*
X145484722Y-114014197D01*
X145322319Y-113941891D01*
X145322318Y-113941891D01*
X145316288Y-113939206D01*
X145222888Y-113919353D01*
X145135944Y-113900872D01*
X145135939Y-113900872D01*
X145129487Y-113899500D01*
X144938513Y-113899500D01*
X144932061Y-113900872D01*
X144932056Y-113900872D01*
X144845112Y-113919353D01*
X144751712Y-113939206D01*
X144745682Y-113941891D01*
X144745681Y-113941891D01*
X144583278Y-114014197D01*
X144583276Y-114014198D01*
X144577248Y-114016882D01*
X144422747Y-114129134D01*
X144294960Y-114271056D01*
X144199473Y-114436444D01*
X144140458Y-114618072D01*
X144120496Y-114808000D01*
X144120684Y-114809786D01*
X144101184Y-114876196D01*
X144084281Y-114897170D01*
X143978856Y-115002595D01*
X143916544Y-115036621D01*
X143889761Y-115039500D01*
X143802500Y-115039500D01*
X143734379Y-115019498D01*
X143687886Y-114965842D01*
X143676500Y-114913500D01*
X143676500Y-111607890D01*
X145747500Y-111607890D01*
X145762080Y-111779720D01*
X145763418Y-111784875D01*
X145763419Y-111784881D01*
X145804308Y-111942418D01*
X145819999Y-112002872D01*
X145914688Y-112213075D01*
X146043441Y-112404319D01*
X146047120Y-112408176D01*
X146047122Y-112408178D01*
X146108710Y-112472738D01*
X146202576Y-112571135D01*
X146387542Y-112708754D01*
X146392293Y-112711170D01*
X146392297Y-112711172D01*
X146455481Y-112743296D01*
X146593051Y-112813240D01*
X146598145Y-112814822D01*
X146598148Y-112814823D01*
X146765786Y-112866876D01*
X146813227Y-112881607D01*
X146818516Y-112882308D01*
X147036489Y-112911198D01*
X147036494Y-112911198D01*
X147041774Y-112911898D01*
X147047103Y-112911698D01*
X147047105Y-112911698D01*
X147156966Y-112907574D01*
X147272158Y-112903249D01*
X147294802Y-112898498D01*
X147384975Y-112879578D01*
X147497791Y-112855907D01*
X147502750Y-112853949D01*
X147502752Y-112853948D01*
X147707256Y-112773185D01*
X147707258Y-112773184D01*
X147712221Y-112771224D01*
X147748343Y-112749305D01*
X147904757Y-112654390D01*
X147904756Y-112654390D01*
X147909317Y-112651623D01*
X147996919Y-112575606D01*
X148079412Y-112504023D01*
X148079414Y-112504021D01*
X148083445Y-112500523D01*
X148112670Y-112464880D01*
X148171329Y-112424886D01*
X148242299Y-112422954D01*
X148303048Y-112459698D01*
X148317248Y-112478468D01*
X148348199Y-112528484D01*
X148407522Y-112624348D01*
X148532697Y-112749305D01*
X148538927Y-112753145D01*
X148538928Y-112753146D01*
X148676090Y-112837694D01*
X148683262Y-112842115D01*
X148718938Y-112853948D01*
X148844611Y-112895632D01*
X148844613Y-112895632D01*
X148851139Y-112897797D01*
X148857975Y-112898497D01*
X148857978Y-112898498D01*
X148893663Y-112902154D01*
X148955600Y-112908500D01*
X150256400Y-112908500D01*
X150259646Y-112908163D01*
X150259650Y-112908163D01*
X150355308Y-112898238D01*
X150355312Y-112898237D01*
X150362166Y-112897526D01*
X150368702Y-112895345D01*
X150368704Y-112895345D01*
X150500806Y-112851272D01*
X150529946Y-112841550D01*
X150680348Y-112748478D01*
X150805305Y-112623303D01*
X150837462Y-112571135D01*
X150894275Y-112478968D01*
X150894276Y-112478966D01*
X150898115Y-112472738D01*
X150953797Y-112304861D01*
X150964500Y-112200400D01*
X150964500Y-110599600D01*
X150956696Y-110524384D01*
X150954238Y-110500692D01*
X150954237Y-110500688D01*
X150953526Y-110493834D01*
X150949710Y-110482394D01*
X150899868Y-110333002D01*
X150897550Y-110326054D01*
X150804478Y-110175652D01*
X150679303Y-110050695D01*
X150661646Y-110039811D01*
X150534968Y-109961725D01*
X150534966Y-109961724D01*
X150528738Y-109957885D01*
X150448995Y-109931436D01*
X150367389Y-109904368D01*
X150367387Y-109904368D01*
X150360861Y-109902203D01*
X150354025Y-109901503D01*
X150354022Y-109901502D01*
X150310969Y-109897091D01*
X150256400Y-109891500D01*
X148955600Y-109891500D01*
X148952354Y-109891837D01*
X148952350Y-109891837D01*
X148856692Y-109901762D01*
X148856688Y-109901763D01*
X148849834Y-109902474D01*
X148843298Y-109904655D01*
X148843296Y-109904655D01*
X148727083Y-109943427D01*
X148682054Y-109958450D01*
X148531652Y-110051522D01*
X148406695Y-110176697D01*
X148333170Y-110295977D01*
X148316920Y-110322339D01*
X148264148Y-110369832D01*
X148194076Y-110381256D01*
X148128952Y-110352982D01*
X148118490Y-110343195D01*
X148016230Y-110236000D01*
X148009424Y-110228865D01*
X147824458Y-110091246D01*
X147819707Y-110088830D01*
X147819703Y-110088828D01*
X147660951Y-110008115D01*
X147618949Y-109986760D01*
X147613855Y-109985178D01*
X147613852Y-109985177D01*
X147403871Y-109919976D01*
X147398773Y-109918393D01*
X147393484Y-109917692D01*
X147175511Y-109888802D01*
X147175506Y-109888802D01*
X147170226Y-109888102D01*
X147164897Y-109888302D01*
X147164895Y-109888302D01*
X147055034Y-109892427D01*
X146939842Y-109896751D01*
X146934623Y-109897846D01*
X146912566Y-109902474D01*
X146714209Y-109944093D01*
X146709250Y-109946051D01*
X146709248Y-109946052D01*
X146504744Y-110026815D01*
X146504742Y-110026816D01*
X146499779Y-110028776D01*
X146495220Y-110031543D01*
X146495217Y-110031544D01*
X146396832Y-110091246D01*
X146302683Y-110148377D01*
X146298653Y-110151874D01*
X146205484Y-110232722D01*
X146128555Y-110299477D01*
X146109809Y-110322339D01*
X145985760Y-110473627D01*
X145985756Y-110473633D01*
X145982376Y-110477755D01*
X145979737Y-110482391D01*
X145979735Y-110482394D01*
X145955833Y-110524384D01*
X145868325Y-110678114D01*
X145789663Y-110894825D01*
X145788714Y-110900074D01*
X145788713Y-110900077D01*
X145749377Y-111117608D01*
X145749376Y-111117615D01*
X145748639Y-111121692D01*
X145747500Y-111145844D01*
X145747500Y-111607890D01*
X143676500Y-111607890D01*
X143676500Y-110096136D01*
X143677578Y-110079690D01*
X143680672Y-110056188D01*
X143681750Y-110048000D01*
X143676500Y-110008120D01*
X143676500Y-110008115D01*
X143670393Y-109961725D01*
X143661916Y-109897338D01*
X143660838Y-109889150D01*
X143659886Y-109886851D01*
X143650605Y-109864444D01*
X143645675Y-109852541D01*
X143638086Y-109781952D01*
X143669866Y-109718465D01*
X143722206Y-109684801D01*
X143727995Y-109682870D01*
X143728002Y-109682867D01*
X143734946Y-109680550D01*
X143885348Y-109587478D01*
X144010305Y-109462303D01*
X144103115Y-109311738D01*
X144158797Y-109143861D01*
X144169500Y-109039400D01*
X144169500Y-108213600D01*
X144158526Y-108107834D01*
X144126804Y-108012750D01*
X144113022Y-107971442D01*
X144110438Y-107900493D01*
X144138910Y-107847256D01*
X144244621Y-107729852D01*
X144244622Y-107729851D01*
X144249040Y-107724944D01*
X144307314Y-107624010D01*
X144341223Y-107565279D01*
X144341224Y-107565278D01*
X144344527Y-107559556D01*
X144403542Y-107377928D01*
X144423504Y-107188000D01*
X144403542Y-106998072D01*
X144344527Y-106816444D01*
X144249040Y-106651056D01*
X144121253Y-106509134D01*
X143987242Y-106411769D01*
X143972094Y-106400763D01*
X143972093Y-106400762D01*
X143966752Y-106396882D01*
X143960724Y-106394198D01*
X143960722Y-106394197D01*
X143798319Y-106321891D01*
X143798318Y-106321891D01*
X143792288Y-106319206D01*
X143698888Y-106299353D01*
X143611944Y-106280872D01*
X143611939Y-106280872D01*
X143605487Y-106279500D01*
X143414513Y-106279500D01*
X143408061Y-106280872D01*
X143408056Y-106280872D01*
X143321112Y-106299353D01*
X143227712Y-106319206D01*
X143221682Y-106321891D01*
X143221681Y-106321891D01*
X143059278Y-106394197D01*
X143059276Y-106394198D01*
X143053248Y-106396882D01*
X143047908Y-106400761D01*
X143047904Y-106400764D01*
X143038094Y-106407892D01*
X142971227Y-106431752D01*
X142899891Y-106414411D01*
X142888596Y-106407731D01*
X142880985Y-106405520D01*
X142880983Y-106405519D01*
X142738644Y-106364166D01*
X142738645Y-106364166D01*
X142732466Y-106362371D01*
X142726059Y-106361867D01*
X142726055Y-106361866D01*
X142698444Y-106359693D01*
X142698438Y-106359693D01*
X142695989Y-106359500D01*
X142496122Y-106359500D01*
X142296012Y-106359501D01*
X142259534Y-106362371D01*
X142165064Y-106389817D01*
X142111017Y-106405519D01*
X142111015Y-106405520D01*
X142103404Y-106407731D01*
X142096579Y-106411767D01*
X142096575Y-106411769D01*
X142050139Y-106439231D01*
X141981323Y-106456691D01*
X141921861Y-106439231D01*
X141875425Y-106411769D01*
X141875421Y-106411767D01*
X141868596Y-106407731D01*
X141860985Y-106405520D01*
X141860983Y-106405519D01*
X141718644Y-106364166D01*
X141718645Y-106364166D01*
X141712466Y-106362371D01*
X141706059Y-106361867D01*
X141706055Y-106361866D01*
X141678444Y-106359693D01*
X141678438Y-106359693D01*
X141675989Y-106359500D01*
X141476122Y-106359500D01*
X141276012Y-106359501D01*
X141239534Y-106362371D01*
X141145064Y-106389817D01*
X141091017Y-106405519D01*
X141091015Y-106405520D01*
X141083404Y-106407731D01*
X141076582Y-106411766D01*
X141076581Y-106411766D01*
X140950280Y-106486460D01*
X140943459Y-106490494D01*
X140828494Y-106605459D01*
X140745731Y-106745404D01*
X140700371Y-106901534D01*
X140697500Y-106938011D01*
X140697501Y-107181435D01*
X140697501Y-107379500D01*
X140677499Y-107447621D01*
X140623844Y-107494114D01*
X140571501Y-107505500D01*
X140510600Y-107505500D01*
X140507354Y-107505837D01*
X140507350Y-107505837D01*
X140411692Y-107515762D01*
X140411688Y-107515763D01*
X140404834Y-107516474D01*
X140398298Y-107518655D01*
X140398296Y-107518655D01*
X140294540Y-107553271D01*
X140237054Y-107572450D01*
X140086652Y-107665522D01*
X139961695Y-107790697D01*
X139957855Y-107796927D01*
X139957854Y-107796928D01*
X139914744Y-107866866D01*
X139868885Y-107941262D01*
X139867322Y-107945975D01*
X139821044Y-107998535D01*
X139753766Y-108018000D01*
X139071636Y-108018000D01*
X139055190Y-108016922D01*
X139031688Y-108013828D01*
X139023500Y-108012750D01*
X139015312Y-108013828D01*
X138983629Y-108017999D01*
X138983620Y-108018000D01*
X138983615Y-108018000D01*
X138864946Y-108033623D01*
X138794797Y-108022684D01*
X138741699Y-107975556D01*
X138722500Y-107908701D01*
X138722500Y-106363600D01*
X138720806Y-106347270D01*
X138712238Y-106264692D01*
X138712237Y-106264688D01*
X138711526Y-106257834D01*
X138655550Y-106090054D01*
X138562478Y-105939652D01*
X138437303Y-105814695D01*
X138366829Y-105771254D01*
X138319337Y-105718483D01*
X138307913Y-105648411D01*
X138336187Y-105583288D01*
X138366642Y-105556851D01*
X138438348Y-105512478D01*
X138563305Y-105387303D01*
X138636986Y-105267771D01*
X138652275Y-105242968D01*
X138652276Y-105242966D01*
X138656115Y-105236738D01*
X138691217Y-105130909D01*
X138731648Y-105072549D01*
X138797212Y-105045312D01*
X138829434Y-105046945D01*
X138829488Y-105046436D01*
X138836046Y-105047125D01*
X138842513Y-105048500D01*
X139033487Y-105048500D01*
X139039939Y-105047128D01*
X139039944Y-105047128D01*
X139159377Y-105021741D01*
X139220288Y-105008794D01*
X139342188Y-104954521D01*
X139388722Y-104933803D01*
X139388724Y-104933802D01*
X139394752Y-104931118D01*
X139549253Y-104818866D01*
X139677040Y-104676944D01*
X139772527Y-104511556D01*
X139831542Y-104329928D01*
X139851504Y-104140000D01*
X139831542Y-103950072D01*
X139772527Y-103768444D01*
X139759924Y-103746616D01*
X139743187Y-103677622D01*
X139766407Y-103610530D01*
X139817796Y-103568510D01*
X139859742Y-103549835D01*
X139930110Y-103540401D01*
X139994406Y-103570508D01*
X140000008Y-103575769D01*
X140033618Y-103609320D01*
X140087697Y-103663305D01*
X140093927Y-103667145D01*
X140093928Y-103667146D01*
X140231090Y-103751694D01*
X140238262Y-103756115D01*
X140294382Y-103774729D01*
X140399611Y-103809632D01*
X140399613Y-103809632D01*
X140406139Y-103811797D01*
X140412975Y-103812497D01*
X140412978Y-103812498D01*
X140456031Y-103816909D01*
X140510600Y-103822500D01*
X143461400Y-103822500D01*
X143464646Y-103822163D01*
X143464650Y-103822163D01*
X143560308Y-103812238D01*
X143560312Y-103812237D01*
X143567166Y-103811526D01*
X143573702Y-103809345D01*
X143573704Y-103809345D01*
X143713437Y-103762726D01*
X143734946Y-103755550D01*
X143885348Y-103662478D01*
X144010305Y-103537303D01*
X144026199Y-103511518D01*
X144099275Y-103392968D01*
X144099276Y-103392966D01*
X144103115Y-103386738D01*
X144152302Y-103238444D01*
X144156632Y-103225389D01*
X144156632Y-103225387D01*
X144158797Y-103218861D01*
X144169500Y-103114400D01*
X144169500Y-102288600D01*
X144169163Y-102285350D01*
X144159238Y-102189692D01*
X144159237Y-102189688D01*
X144158526Y-102182834D01*
X144102550Y-102015054D01*
X144009478Y-101864652D01*
X143971864Y-101827103D01*
X143889483Y-101744866D01*
X143884303Y-101739695D01*
X143867835Y-101729544D01*
X143739968Y-101650725D01*
X143739966Y-101650724D01*
X143733738Y-101646885D01*
X143726976Y-101644642D01*
X143673750Y-101597778D01*
X143654289Y-101529501D01*
X143674830Y-101461541D01*
X143728853Y-101415475D01*
X143780285Y-101404500D01*
X149546633Y-101404500D01*
X149566018Y-101406000D01*
G37*
%TD.AperFunction*%
%TA.AperFunction,Conductor*%
G36*
X123754445Y-119666583D02*
G01*
X123795087Y-119693799D01*
X124462903Y-120361615D01*
X124465565Y-120363755D01*
X124505493Y-120395859D01*
X124505496Y-120395861D01*
X124511649Y-120400808D01*
X124518841Y-120404078D01*
X124604449Y-120443003D01*
X124658182Y-120489407D01*
X124666997Y-120505551D01*
X124701961Y-120582447D01*
X124709192Y-120598351D01*
X124714139Y-120604504D01*
X124714141Y-120604507D01*
X124727516Y-120621141D01*
X124748385Y-120647097D01*
X125651981Y-121550693D01*
X125686007Y-121613005D01*
X125680942Y-121683820D01*
X125636944Y-121741725D01*
X125626747Y-121749134D01*
X125622326Y-121754044D01*
X125622325Y-121754045D01*
X125512986Y-121875479D01*
X125498960Y-121891056D01*
X125446687Y-121981595D01*
X125417719Y-122031770D01*
X125403473Y-122056444D01*
X125344458Y-122238072D01*
X125343768Y-122244633D01*
X125343768Y-122244635D01*
X125327537Y-122399062D01*
X125324496Y-122428000D01*
X125325186Y-122434565D01*
X125342863Y-122602749D01*
X125344458Y-122617928D01*
X125403473Y-122799556D01*
X125406776Y-122805278D01*
X125406777Y-122805279D01*
X125418848Y-122826186D01*
X125498960Y-122964944D01*
X125503378Y-122969851D01*
X125503379Y-122969852D01*
X125606607Y-123084498D01*
X125626747Y-123106866D01*
X125684563Y-123148872D01*
X125750207Y-123196565D01*
X125781248Y-123219118D01*
X125787276Y-123221802D01*
X125787278Y-123221803D01*
X125949681Y-123294109D01*
X125955712Y-123296794D01*
X126049094Y-123316643D01*
X126136056Y-123335128D01*
X126136061Y-123335128D01*
X126142513Y-123336500D01*
X126333487Y-123336500D01*
X126339939Y-123335128D01*
X126339944Y-123335128D01*
X126426906Y-123316643D01*
X126520288Y-123296794D01*
X126526319Y-123294109D01*
X126688722Y-123221803D01*
X126688724Y-123221802D01*
X126694752Y-123219118D01*
X126725794Y-123196565D01*
X126791437Y-123148872D01*
X126849253Y-123106866D01*
X126869393Y-123084498D01*
X126972621Y-122969852D01*
X126972622Y-122969851D01*
X126977040Y-122964944D01*
X127057152Y-122826186D01*
X127069223Y-122805279D01*
X127069224Y-122805278D01*
X127072527Y-122799556D01*
X127122015Y-122647250D01*
X127162087Y-122588645D01*
X127181146Y-122575773D01*
X127314368Y-122502533D01*
X127314370Y-122502532D01*
X127320010Y-122499431D01*
X127348057Y-122475477D01*
X127638655Y-122184879D01*
X127662609Y-122156832D01*
X127670133Y-122143147D01*
X127717798Y-122056444D01*
X127741544Y-122013251D01*
X127746243Y-121994950D01*
X127782555Y-121933945D01*
X127836950Y-121904243D01*
X127843666Y-121902519D01*
X127847572Y-121901516D01*
X127847574Y-121901515D01*
X127855251Y-121899544D01*
X127930953Y-121857926D01*
X127993190Y-121823711D01*
X127993192Y-121823710D01*
X127998832Y-121820609D01*
X128003724Y-121816431D01*
X128003734Y-121816424D01*
X128006802Y-121813804D01*
X128008858Y-121812883D01*
X128009027Y-121812766D01*
X128009049Y-121812797D01*
X128071593Y-121784777D01*
X128141793Y-121795386D01*
X128195112Y-121842265D01*
X128213460Y-121892519D01*
X128215066Y-121904242D01*
X128228216Y-122000244D01*
X128228217Y-122000248D01*
X128229382Y-122008752D01*
X128232792Y-122016632D01*
X128236347Y-122024846D01*
X128286890Y-122141643D01*
X128340459Y-122209963D01*
X128694427Y-122563929D01*
X128723401Y-122592903D01*
X128757426Y-122655215D01*
X128752362Y-122726031D01*
X128723402Y-122771094D01*
X128526926Y-122967571D01*
X128331332Y-123163165D01*
X128279179Y-123229677D01*
X128223195Y-123359048D01*
X128204063Y-123498708D01*
X128223195Y-123638369D01*
X128279179Y-123767739D01*
X128331331Y-123834251D01*
X128520794Y-124023713D01*
X128561134Y-124055344D01*
X128582537Y-124076747D01*
X128614173Y-124117094D01*
X128803636Y-124306556D01*
X128822695Y-124321500D01*
X128843979Y-124338189D01*
X128865382Y-124359592D01*
X128897016Y-124399937D01*
X129086479Y-124589399D01*
X129126829Y-124621038D01*
X129148223Y-124642432D01*
X129179859Y-124682779D01*
X129273617Y-124776536D01*
X129290105Y-124793024D01*
X129324130Y-124855336D01*
X129319066Y-124926152D01*
X129275071Y-124984056D01*
X129259480Y-124995384D01*
X129182747Y-125051134D01*
X129178326Y-125056044D01*
X129178325Y-125056045D01*
X129094101Y-125149586D01*
X129054960Y-125193056D01*
X129010572Y-125269938D01*
X128968195Y-125343337D01*
X128916812Y-125392330D01*
X128847099Y-125405766D01*
X128781188Y-125379380D01*
X128769981Y-125369432D01*
X128370529Y-124969980D01*
X128359662Y-124957589D01*
X128345227Y-124938777D01*
X128340201Y-124932227D01*
X128308289Y-124907740D01*
X128308286Y-124907737D01*
X128272384Y-124880188D01*
X128219643Y-124839718D01*
X128219641Y-124839717D01*
X128213090Y-124834690D01*
X128065065Y-124773376D01*
X128056878Y-124772298D01*
X128056877Y-124772298D01*
X128035334Y-124769462D01*
X127946107Y-124757715D01*
X127946105Y-124757715D01*
X127946099Y-124757714D01*
X127946097Y-124757714D01*
X127946088Y-124757713D01*
X127914403Y-124753542D01*
X127906214Y-124752464D01*
X127874521Y-124756636D01*
X127858078Y-124757714D01*
X126943245Y-124757714D01*
X126875124Y-124737712D01*
X126854150Y-124720809D01*
X125691742Y-123558401D01*
X125667181Y-123538653D01*
X125649152Y-123524157D01*
X125649149Y-123524155D01*
X125642996Y-123519208D01*
X125579187Y-123490196D01*
X125518569Y-123462635D01*
X125518568Y-123462635D01*
X125510400Y-123458921D01*
X125501517Y-123457649D01*
X125501514Y-123457648D01*
X125375103Y-123439545D01*
X125366214Y-123438272D01*
X125357325Y-123439545D01*
X125230914Y-123457648D01*
X125230911Y-123457649D01*
X125222028Y-123458921D01*
X125213860Y-123462635D01*
X125213859Y-123462635D01*
X125153241Y-123490196D01*
X125089432Y-123519208D01*
X125083279Y-123524155D01*
X125083276Y-123524157D01*
X125065247Y-123538653D01*
X125040686Y-123558401D01*
X123558401Y-125040686D01*
X123553123Y-125047251D01*
X123524157Y-125083276D01*
X123524155Y-125083279D01*
X123519208Y-125089432D01*
X123515216Y-125098213D01*
X123472094Y-125193056D01*
X123458921Y-125222028D01*
X123457649Y-125230911D01*
X123457648Y-125230914D01*
X123446309Y-125310092D01*
X123438272Y-125366214D01*
X123439545Y-125375103D01*
X123453995Y-125476000D01*
X123458921Y-125510400D01*
X123519208Y-125642996D01*
X123524155Y-125649149D01*
X123524157Y-125649152D01*
X123544945Y-125675006D01*
X123558401Y-125691742D01*
X124792248Y-126925589D01*
X124826274Y-126987901D01*
X124821209Y-127058716D01*
X124778662Y-127115552D01*
X124729349Y-127137931D01*
X124685712Y-127147206D01*
X124679682Y-127149891D01*
X124679681Y-127149891D01*
X124517278Y-127222197D01*
X124517276Y-127222198D01*
X124511248Y-127224882D01*
X124356747Y-127337134D01*
X124352326Y-127342044D01*
X124352325Y-127342045D01*
X124241305Y-127465346D01*
X124228960Y-127479056D01*
X124182649Y-127559269D01*
X124156657Y-127604289D01*
X124133473Y-127644444D01*
X124074458Y-127826072D01*
X124073768Y-127832633D01*
X124073768Y-127832635D01*
X124066672Y-127900150D01*
X124061130Y-127952886D01*
X124060373Y-127960084D01*
X124033360Y-128025741D01*
X123975138Y-128066371D01*
X123904193Y-128069074D01*
X123843049Y-128032992D01*
X123824649Y-128007615D01*
X123752406Y-127876206D01*
X123752400Y-127876198D01*
X123749302Y-127870562D01*
X123724984Y-127842089D01*
X122800086Y-126917191D01*
X122771613Y-126892873D01*
X122625816Y-126812720D01*
X122464668Y-126771344D01*
X122438257Y-126771344D01*
X122370136Y-126751342D01*
X122323643Y-126697686D01*
X122313539Y-126627412D01*
X122327843Y-126584642D01*
X122344145Y-126554989D01*
X122344146Y-126554987D01*
X122347965Y-126548040D01*
X122388399Y-126390561D01*
X122388399Y-126227976D01*
X122347965Y-126070498D01*
X122295547Y-125975150D01*
X122272742Y-125933667D01*
X122272741Y-125933666D01*
X122269639Y-125928023D01*
X122245876Y-125900200D01*
X121963048Y-125617374D01*
X121947076Y-125603731D01*
X121940118Y-125597788D01*
X121940116Y-125597787D01*
X121935225Y-125593609D01*
X121927568Y-125589400D01*
X121922560Y-125586646D01*
X121872501Y-125536302D01*
X121857607Y-125466885D01*
X121882607Y-125400435D01*
X121894165Y-125387136D01*
X122120848Y-125160453D01*
X122133239Y-125149586D01*
X122152051Y-125135151D01*
X122158601Y-125130125D01*
X122183088Y-125098213D01*
X122183092Y-125098209D01*
X122256138Y-125003014D01*
X122282071Y-124940405D01*
X122309385Y-124899529D01*
X123284940Y-123923974D01*
X123302254Y-123902440D01*
X123319184Y-123881384D01*
X123319186Y-123881381D01*
X123324133Y-123875228D01*
X123384420Y-123742633D01*
X123389954Y-123703995D01*
X123403796Y-123607335D01*
X123405069Y-123598446D01*
X123396506Y-123538653D01*
X123406648Y-123468385D01*
X123453171Y-123414755D01*
X123521303Y-123394791D01*
X123539096Y-123396064D01*
X123589557Y-123403291D01*
X123607335Y-123403291D01*
X123733605Y-123385208D01*
X123750660Y-123380221D01*
X123867768Y-123326976D01*
X123881112Y-123318758D01*
X123920993Y-123286693D01*
X123926072Y-123282135D01*
X124224859Y-122983348D01*
X124232473Y-122969404D01*
X124232342Y-122967571D01*
X124228091Y-122960956D01*
X123080844Y-121813709D01*
X123046818Y-121751397D01*
X123048653Y-121725746D01*
X123715367Y-121725746D01*
X123715498Y-121727579D01*
X123719749Y-121734194D01*
X124584069Y-122598514D01*
X124598013Y-122606128D01*
X124599846Y-122605997D01*
X124606460Y-122601746D01*
X124908490Y-122299716D01*
X124913032Y-122294653D01*
X124945100Y-122254771D01*
X124953323Y-122241418D01*
X125006566Y-122124315D01*
X125011553Y-122107260D01*
X125029636Y-121980990D01*
X125029636Y-121963212D01*
X125011553Y-121836944D01*
X125006565Y-121819886D01*
X124953321Y-121702780D01*
X124945103Y-121689436D01*
X124913032Y-121649547D01*
X124908492Y-121644488D01*
X124362201Y-121098198D01*
X124348263Y-121090587D01*
X124346427Y-121090719D01*
X124339815Y-121094968D01*
X123722981Y-121711802D01*
X123715367Y-121725746D01*
X123048653Y-121725746D01*
X123051883Y-121680582D01*
X123080844Y-121635519D01*
X123977371Y-120738992D01*
X123984985Y-120725048D01*
X123984854Y-120723215D01*
X123980603Y-120716600D01*
X123431098Y-120167095D01*
X123426015Y-120162534D01*
X123386146Y-120130477D01*
X123382927Y-120128495D01*
X123380947Y-120126297D01*
X123379982Y-120125521D01*
X123380107Y-120125365D01*
X123335409Y-120075745D01*
X123323952Y-120005679D01*
X123352195Y-119940542D01*
X123363320Y-119928811D01*
X123620320Y-119690502D01*
X123683871Y-119658851D01*
X123754445Y-119666583D01*
G37*
%TD.AperFunction*%
%TA.AperFunction,Conductor*%
G36*
X130818621Y-121750838D02*
G01*
X130834574Y-121752938D01*
X130838014Y-121753391D01*
X130869210Y-121757498D01*
X130937587Y-121766500D01*
X130937590Y-121766500D01*
X130937598Y-121766501D01*
X130969283Y-121770672D01*
X130977472Y-121771750D01*
X131009165Y-121767578D01*
X131025608Y-121766500D01*
X131050151Y-121766500D01*
X131118272Y-121786502D01*
X131164765Y-121840158D01*
X131174869Y-121910432D01*
X131145375Y-121975012D01*
X131139246Y-121981595D01*
X130764369Y-122356472D01*
X130762229Y-122359134D01*
X130730125Y-122399062D01*
X130730123Y-122399065D01*
X130725176Y-122405218D01*
X130721908Y-122412406D01*
X130681347Y-122501617D01*
X130664889Y-122537814D01*
X130663617Y-122546697D01*
X130663616Y-122546700D01*
X130653416Y-122617928D01*
X130644240Y-122682000D01*
X130645513Y-122690889D01*
X130663138Y-122813957D01*
X130664889Y-122826186D01*
X130725176Y-122958782D01*
X130730123Y-122964935D01*
X130730125Y-122964938D01*
X130744928Y-122983348D01*
X130764369Y-123007528D01*
X133024472Y-125267631D01*
X133036729Y-125277486D01*
X133067062Y-125301875D01*
X133067065Y-125301877D01*
X133073218Y-125306824D01*
X133171479Y-125351500D01*
X133225212Y-125397903D01*
X133245328Y-125466201D01*
X133245328Y-125467811D01*
X133244250Y-125476000D01*
X133245328Y-125484188D01*
X133248422Y-125507690D01*
X133249500Y-125524136D01*
X133249500Y-125687448D01*
X133248422Y-125703891D01*
X133244250Y-125735584D01*
X133245328Y-125743773D01*
X133249500Y-125775464D01*
X133249500Y-125775470D01*
X133254230Y-125811399D01*
X133243290Y-125881548D01*
X133196162Y-125934646D01*
X133127808Y-125953836D01*
X133059930Y-125933025D01*
X133044259Y-125920241D01*
X133044060Y-125920466D01*
X133041230Y-125917958D01*
X133038540Y-125915268D01*
X132998197Y-125883635D01*
X132976794Y-125862232D01*
X132945160Y-125821887D01*
X132755697Y-125632425D01*
X132715357Y-125600794D01*
X132693952Y-125579389D01*
X132664662Y-125542034D01*
X132662318Y-125539044D01*
X132472855Y-125349582D01*
X132432505Y-125317943D01*
X132411111Y-125296549D01*
X132379475Y-125256202D01*
X132190012Y-125066740D01*
X132149669Y-125035107D01*
X132128266Y-125013704D01*
X132096632Y-124973359D01*
X131907169Y-124783897D01*
X131866829Y-124752266D01*
X131845424Y-124730861D01*
X131813790Y-124690516D01*
X131624327Y-124501054D01*
X131583984Y-124469421D01*
X131562581Y-124448018D01*
X131530947Y-124407673D01*
X131341484Y-124218211D01*
X131301134Y-124186572D01*
X131279740Y-124165178D01*
X131248104Y-124124831D01*
X131058641Y-123935369D01*
X131055665Y-123933036D01*
X131055660Y-123933031D01*
X131016646Y-123902440D01*
X130995240Y-123881033D01*
X130967224Y-123845303D01*
X130962195Y-123839628D01*
X130778152Y-123655586D01*
X130772488Y-123650568D01*
X130736755Y-123622548D01*
X130715350Y-123601143D01*
X130684764Y-123562136D01*
X130682419Y-123559145D01*
X130492956Y-123369683D01*
X130452606Y-123338044D01*
X130431212Y-123316650D01*
X130399576Y-123276303D01*
X130210113Y-123086841D01*
X130169770Y-123055208D01*
X130148367Y-123033805D01*
X130116733Y-122993460D01*
X129927270Y-122803998D01*
X129896878Y-122780167D01*
X129855616Y-122722396D01*
X129852137Y-122651485D01*
X129887547Y-122589949D01*
X129896880Y-122581862D01*
X129933420Y-122553211D01*
X129933422Y-122553210D01*
X129936399Y-122550875D01*
X130107603Y-122379669D01*
X130109936Y-122376693D01*
X130109941Y-122376688D01*
X130147261Y-122329093D01*
X130168668Y-122307687D01*
X130185291Y-122294653D01*
X130219242Y-122268032D01*
X130390446Y-122096826D01*
X130392779Y-122093850D01*
X130392784Y-122093845D01*
X130430102Y-122046252D01*
X130451509Y-122024846D01*
X130466297Y-122013251D01*
X130502085Y-121985190D01*
X130673289Y-121813984D01*
X130688802Y-121794201D01*
X130746573Y-121752938D01*
X130817456Y-121750355D01*
X130818621Y-121750838D01*
G37*
%TD.AperFunction*%
%TA.AperFunction,Conductor*%
G36*
X137770720Y-118028753D02*
G01*
X137813429Y-118085467D01*
X137821500Y-118129837D01*
X137821500Y-118146289D01*
X137801498Y-118214410D01*
X137784595Y-118235384D01*
X137479150Y-118540829D01*
X137416838Y-118574855D01*
X137346023Y-118569790D01*
X137289187Y-118527243D01*
X137264376Y-118460723D01*
X137279467Y-118391349D01*
X137294246Y-118369901D01*
X137310018Y-118351436D01*
X137317306Y-118340890D01*
X137389255Y-118210014D01*
X137395045Y-118195389D01*
X137397689Y-118185092D01*
X137434003Y-118124086D01*
X137488396Y-118094385D01*
X137507251Y-118089544D01*
X137634801Y-118019422D01*
X137704129Y-118004133D01*
X137770720Y-118028753D01*
G37*
%TD.AperFunction*%
%TD*%
%TA.AperFunction,Conductor*%
%TO.N,GND*%
G36*
X129990121Y-101424502D02*
G01*
X130036614Y-101478158D01*
X130048000Y-101530500D01*
X130048000Y-107037261D01*
X130027998Y-107105382D01*
X130011095Y-107126356D01*
X129905766Y-107231685D01*
X129893375Y-107242552D01*
X129868013Y-107262013D01*
X129843526Y-107293925D01*
X129843523Y-107293928D01*
X129770476Y-107389124D01*
X129770476Y-107389125D01*
X129709162Y-107537150D01*
X129693500Y-107656115D01*
X129693500Y-107656120D01*
X129688250Y-107696000D01*
X129689328Y-107704188D01*
X129692422Y-107727690D01*
X129693500Y-107744136D01*
X129693500Y-110693761D01*
X129673498Y-110761882D01*
X129656595Y-110782856D01*
X129081595Y-111357856D01*
X129019283Y-111391882D01*
X128948468Y-111386817D01*
X128891632Y-111344270D01*
X128866821Y-111277750D01*
X128866500Y-111268761D01*
X128866500Y-110730600D01*
X128858851Y-110656880D01*
X128856238Y-110631692D01*
X128856237Y-110631688D01*
X128855526Y-110624834D01*
X128852913Y-110617000D01*
X128801868Y-110464002D01*
X128799550Y-110457054D01*
X128706478Y-110306652D01*
X128581303Y-110181695D01*
X128543716Y-110158526D01*
X128436968Y-110092725D01*
X128436966Y-110092724D01*
X128430738Y-110088885D01*
X128350995Y-110062436D01*
X128269389Y-110035368D01*
X128269387Y-110035368D01*
X128262861Y-110033203D01*
X128256025Y-110032503D01*
X128256022Y-110032502D01*
X128212969Y-110028091D01*
X128158400Y-110022500D01*
X126937239Y-110022500D01*
X126869118Y-110002498D01*
X126848144Y-109985595D01*
X125794315Y-108931766D01*
X125783448Y-108919375D01*
X125769013Y-108900563D01*
X125763987Y-108894013D01*
X125732075Y-108869526D01*
X125732069Y-108869520D01*
X125643429Y-108801504D01*
X125643427Y-108801503D01*
X125636876Y-108796476D01*
X125488851Y-108735162D01*
X125480664Y-108734084D01*
X125480663Y-108734084D01*
X125469458Y-108732609D01*
X125438262Y-108728502D01*
X125369885Y-108719500D01*
X125369882Y-108719500D01*
X125369874Y-108719499D01*
X125338189Y-108715328D01*
X125330000Y-108714250D01*
X125298307Y-108718422D01*
X125281864Y-108719500D01*
X120082136Y-108719500D01*
X120065693Y-108718422D01*
X120034000Y-108714250D01*
X120025811Y-108715328D01*
X119994126Y-108719499D01*
X119994117Y-108719500D01*
X119994115Y-108719500D01*
X119994109Y-108719501D01*
X119994107Y-108719501D01*
X119894543Y-108732609D01*
X119883336Y-108734084D01*
X119883334Y-108734085D01*
X119875149Y-108735162D01*
X119727124Y-108796476D01*
X119681305Y-108831634D01*
X119631937Y-108869515D01*
X119631921Y-108869529D01*
X119606566Y-108888984D01*
X119606563Y-108888987D01*
X119600013Y-108894013D01*
X119594983Y-108900568D01*
X119580548Y-108919379D01*
X119569681Y-108931770D01*
X117494307Y-111007144D01*
X117431995Y-111041170D01*
X117372600Y-111039755D01*
X117318691Y-111025310D01*
X117318685Y-111025309D01*
X117313371Y-111023885D01*
X117094000Y-111004693D01*
X116874629Y-111023885D01*
X116661924Y-111080880D01*
X116580495Y-111118851D01*
X116467334Y-111171618D01*
X116467329Y-111171621D01*
X116462347Y-111173944D01*
X116457840Y-111177100D01*
X116457838Y-111177101D01*
X116286473Y-111297092D01*
X116286470Y-111297094D01*
X116281962Y-111300251D01*
X116126251Y-111455962D01*
X115999944Y-111636347D01*
X115997621Y-111641329D01*
X115997618Y-111641334D01*
X115950415Y-111742562D01*
X115906880Y-111835924D01*
X115849885Y-112048629D01*
X115830693Y-112268000D01*
X115849885Y-112487371D01*
X115906880Y-112700076D01*
X115948697Y-112789754D01*
X115997618Y-112894666D01*
X115997621Y-112894671D01*
X115999944Y-112899653D01*
X116003100Y-112904160D01*
X116003101Y-112904162D01*
X116103736Y-113047883D01*
X116126251Y-113080038D01*
X116281962Y-113235749D01*
X116286471Y-113238906D01*
X116286473Y-113238908D01*
X116312134Y-113256876D01*
X116462346Y-113362056D01*
X116661924Y-113455120D01*
X116874629Y-113512115D01*
X117094000Y-113531307D01*
X117313371Y-113512115D01*
X117526076Y-113455120D01*
X117725654Y-113362056D01*
X117875866Y-113256876D01*
X117901527Y-113238908D01*
X117901529Y-113238906D01*
X117906038Y-113235749D01*
X118061749Y-113080038D01*
X118084265Y-113047883D01*
X118184899Y-112904162D01*
X118184900Y-112904160D01*
X118188056Y-112899653D01*
X118190379Y-112894671D01*
X118190382Y-112894666D01*
X118239303Y-112789754D01*
X118281120Y-112700076D01*
X118338115Y-112487371D01*
X118357307Y-112268000D01*
X118338115Y-112048629D01*
X118336691Y-112043315D01*
X118336690Y-112043309D01*
X118322245Y-111989400D01*
X118323934Y-111918424D01*
X118354856Y-111867693D01*
X119839083Y-110383466D01*
X119901395Y-110349440D01*
X119972210Y-110354505D01*
X120029046Y-110397052D01*
X120053857Y-110463572D01*
X120053100Y-110489003D01*
X120041500Y-110577115D01*
X120041500Y-110577120D01*
X120036250Y-110617000D01*
X120037328Y-110625188D01*
X120040422Y-110648690D01*
X120041500Y-110665136D01*
X120041500Y-112979762D01*
X120021498Y-113047883D01*
X120004595Y-113068857D01*
X118402856Y-114670595D01*
X118340544Y-114704621D01*
X118313761Y-114707500D01*
X118269859Y-114707500D01*
X118201738Y-114687498D01*
X118166646Y-114653770D01*
X118064912Y-114508478D01*
X118064907Y-114508472D01*
X118061749Y-114503962D01*
X117906038Y-114348251D01*
X117725654Y-114221944D01*
X117526076Y-114128880D01*
X117313371Y-114071885D01*
X117094000Y-114052693D01*
X116874629Y-114071885D01*
X116661924Y-114128880D01*
X116568562Y-114172415D01*
X116467334Y-114219618D01*
X116467329Y-114219621D01*
X116462347Y-114221944D01*
X116457840Y-114225100D01*
X116457838Y-114225101D01*
X116286473Y-114345092D01*
X116286470Y-114345094D01*
X116281962Y-114348251D01*
X116126251Y-114503962D01*
X116123094Y-114508470D01*
X116123092Y-114508473D01*
X116003101Y-114679838D01*
X115999944Y-114684347D01*
X115997621Y-114689329D01*
X115997618Y-114689334D01*
X115950415Y-114790562D01*
X115906880Y-114883924D01*
X115849885Y-115096629D01*
X115830693Y-115316000D01*
X115849885Y-115535371D01*
X115906880Y-115748076D01*
X115919430Y-115774989D01*
X115997618Y-115942666D01*
X115997621Y-115942671D01*
X115999944Y-115947653D01*
X116003100Y-115952160D01*
X116003101Y-115952162D01*
X116123089Y-116123522D01*
X116126251Y-116128038D01*
X116281962Y-116283749D01*
X116286471Y-116286906D01*
X116286473Y-116286908D01*
X116321891Y-116311708D01*
X116462346Y-116410056D01*
X116661924Y-116503120D01*
X116874629Y-116560115D01*
X117094000Y-116579307D01*
X117313371Y-116560115D01*
X117526076Y-116503120D01*
X117725654Y-116410056D01*
X117866109Y-116311708D01*
X117901527Y-116286908D01*
X117901529Y-116286906D01*
X117906038Y-116283749D01*
X118061749Y-116128038D01*
X118064908Y-116123527D01*
X118064912Y-116123522D01*
X118166646Y-115978230D01*
X118222103Y-115933901D01*
X118269859Y-115924500D01*
X118368761Y-115924500D01*
X118436882Y-115944502D01*
X118483375Y-115998158D01*
X118493479Y-116068432D01*
X118463985Y-116133012D01*
X118457856Y-116139595D01*
X117494307Y-117103144D01*
X117431995Y-117137170D01*
X117372600Y-117135755D01*
X117318691Y-117121310D01*
X117318685Y-117121309D01*
X117313371Y-117119885D01*
X117094000Y-117100693D01*
X116874629Y-117119885D01*
X116661924Y-117176880D01*
X116568562Y-117220415D01*
X116467334Y-117267618D01*
X116467329Y-117267621D01*
X116462347Y-117269944D01*
X116457840Y-117273100D01*
X116457838Y-117273101D01*
X116286473Y-117393092D01*
X116286470Y-117393094D01*
X116281962Y-117396251D01*
X116126251Y-117551962D01*
X116123094Y-117556470D01*
X116123092Y-117556473D01*
X116003101Y-117727838D01*
X115999944Y-117732347D01*
X115997621Y-117737329D01*
X115997618Y-117737334D01*
X115950415Y-117838562D01*
X115906880Y-117931924D01*
X115849885Y-118144629D01*
X115830693Y-118364000D01*
X115849885Y-118583371D01*
X115906880Y-118796076D01*
X115950415Y-118889438D01*
X115997618Y-118990666D01*
X115997621Y-118990671D01*
X115999944Y-118995653D01*
X116003100Y-119000160D01*
X116003101Y-119000162D01*
X116082527Y-119113593D01*
X116126251Y-119176038D01*
X116281962Y-119331749D01*
X116462346Y-119458056D01*
X116661924Y-119551120D01*
X116874629Y-119608115D01*
X117094000Y-119627307D01*
X117313371Y-119608115D01*
X117526076Y-119551120D01*
X117725654Y-119458056D01*
X117906038Y-119331749D01*
X118061749Y-119176038D01*
X118105474Y-119113593D01*
X118184899Y-119000162D01*
X118184900Y-119000160D01*
X118188056Y-118995653D01*
X118190379Y-118990671D01*
X118190382Y-118990666D01*
X118237585Y-118889438D01*
X118281120Y-118796076D01*
X118338115Y-118583371D01*
X118357307Y-118364000D01*
X118338115Y-118144629D01*
X118336691Y-118139315D01*
X118336690Y-118139309D01*
X118322245Y-118085400D01*
X118323934Y-118014424D01*
X118354856Y-117963693D01*
X122904234Y-113414315D01*
X122916625Y-113403448D01*
X122935437Y-113389013D01*
X122941987Y-113383987D01*
X122966474Y-113352075D01*
X122966480Y-113352069D01*
X123034496Y-113263429D01*
X123034497Y-113263427D01*
X123039524Y-113256876D01*
X123042683Y-113249249D01*
X123042686Y-113249244D01*
X123072451Y-113177382D01*
X123116998Y-113122101D01*
X123184362Y-113099679D01*
X123253153Y-113117237D01*
X123277955Y-113136504D01*
X124583685Y-114442234D01*
X124594552Y-114454625D01*
X124614013Y-114479987D01*
X124620563Y-114485013D01*
X124645921Y-114504471D01*
X124645928Y-114504477D01*
X124695515Y-114542526D01*
X124741125Y-114577524D01*
X124889150Y-114638838D01*
X125008115Y-114654500D01*
X125008120Y-114654500D01*
X125008129Y-114654501D01*
X125039812Y-114658672D01*
X125048000Y-114659750D01*
X125079693Y-114655578D01*
X125096136Y-114654500D01*
X126121846Y-114654500D01*
X126189967Y-114674502D01*
X126236460Y-114728158D01*
X126246564Y-114798432D01*
X126242211Y-114817758D01*
X126231505Y-114852343D01*
X126231503Y-114852352D01*
X126229683Y-114858232D01*
X126229039Y-114864357D01*
X126229039Y-114864358D01*
X126227507Y-114878939D01*
X126209010Y-115054925D01*
X126226935Y-115251888D01*
X126228673Y-115257794D01*
X126228674Y-115257798D01*
X126245804Y-115316000D01*
X126282775Y-115441619D01*
X126374405Y-115616890D01*
X126498333Y-115771025D01*
X126503057Y-115774989D01*
X126579254Y-115838926D01*
X126618581Y-115898035D01*
X126619707Y-115969023D01*
X126582276Y-116029350D01*
X126518171Y-116059864D01*
X126498263Y-116061447D01*
X126494370Y-116061447D01*
X126485488Y-116060175D01*
X126476606Y-116061447D01*
X126350190Y-116079550D01*
X126350189Y-116079550D01*
X126341302Y-116080823D01*
X126208706Y-116141111D01*
X126202553Y-116146058D01*
X126202550Y-116146060D01*
X126176696Y-116166848D01*
X126159960Y-116180304D01*
X125101939Y-117238325D01*
X125099799Y-117240987D01*
X125067695Y-117280915D01*
X125067693Y-117280918D01*
X125062746Y-117287071D01*
X125002458Y-117419667D01*
X125001186Y-117428552D01*
X125001183Y-117428561D01*
X124988613Y-117516338D01*
X124959156Y-117580935D01*
X124899452Y-117619352D01*
X124881750Y-117623203D01*
X124794697Y-117635671D01*
X124777634Y-117640661D01*
X124660538Y-117693899D01*
X124647182Y-117702124D01*
X124607306Y-117734185D01*
X124602227Y-117738743D01*
X124268085Y-118072885D01*
X124260471Y-118086829D01*
X124260602Y-118088664D01*
X124264852Y-118095277D01*
X124419100Y-118249525D01*
X124046335Y-118595180D01*
X123908872Y-118457717D01*
X123894932Y-118450105D01*
X123893096Y-118450237D01*
X123886484Y-118454486D01*
X123549098Y-118791873D01*
X123544556Y-118796936D01*
X123512488Y-118836818D01*
X123504265Y-118850172D01*
X123451026Y-118967269D01*
X123446036Y-118984332D01*
X123427952Y-119110600D01*
X123427952Y-119113593D01*
X123427115Y-119116443D01*
X123426679Y-119119488D01*
X123426240Y-119119425D01*
X123407950Y-119181714D01*
X123387624Y-119205985D01*
X117205680Y-124938333D01*
X117142129Y-124969984D01*
X117113371Y-124971015D01*
X117113369Y-124971332D01*
X117107204Y-124971289D01*
X117101075Y-124970645D01*
X117018576Y-124978153D01*
X116910251Y-124988011D01*
X116910248Y-124988012D01*
X116904112Y-124988570D01*
X116898206Y-124990308D01*
X116898202Y-124990309D01*
X116823663Y-125012247D01*
X116714381Y-125044410D01*
X116708923Y-125047263D01*
X116708919Y-125047265D01*
X116628262Y-125089432D01*
X116539110Y-125136040D01*
X116384975Y-125259968D01*
X116257846Y-125411474D01*
X116254879Y-125416872D01*
X116254875Y-125416877D01*
X116251397Y-125423204D01*
X116162567Y-125584787D01*
X116160706Y-125590654D01*
X116160705Y-125590656D01*
X116128639Y-125691742D01*
X116102765Y-125773306D01*
X116102079Y-125779424D01*
X116091801Y-125871055D01*
X116064330Y-125936521D01*
X116005827Y-125976744D01*
X115965474Y-125983005D01*
X114229384Y-125967648D01*
X114161444Y-125947045D01*
X114115428Y-125892981D01*
X114104500Y-125841654D01*
X114104500Y-106197681D01*
X114659860Y-106197681D01*
X114659878Y-106197933D01*
X114665793Y-106206677D01*
X114697111Y-106235174D01*
X114702748Y-106239738D01*
X114978544Y-106437918D01*
X114984682Y-106441813D01*
X115281435Y-106606984D01*
X115287955Y-106610136D01*
X115601738Y-106740109D01*
X115608589Y-106742495D01*
X115935212Y-106835536D01*
X115942301Y-106837120D01*
X116277465Y-106892006D01*
X116284671Y-106892763D01*
X116623926Y-106908762D01*
X116631176Y-106908686D01*
X116970010Y-106885587D01*
X116977219Y-106884676D01*
X117311160Y-106822784D01*
X117318190Y-106821057D01*
X117642819Y-106721187D01*
X117649597Y-106718667D01*
X117960603Y-106582145D01*
X117967043Y-106578864D01*
X118260293Y-106407502D01*
X118266326Y-106403493D01*
X118524828Y-106209405D01*
X118533282Y-106198078D01*
X118526537Y-106185748D01*
X116608810Y-104268020D01*
X116594869Y-104260408D01*
X116593034Y-104260539D01*
X116586420Y-104264790D01*
X114667474Y-106183737D01*
X114659860Y-106197681D01*
X114104500Y-106197681D01*
X114104500Y-105937336D01*
X114124502Y-105869215D01*
X114178158Y-105822722D01*
X114248432Y-105812618D01*
X114297820Y-105830946D01*
X114307769Y-105825020D01*
X116235659Y-103897131D01*
X116960408Y-103897131D01*
X116960539Y-103898966D01*
X116964790Y-103905580D01*
X118882268Y-105823057D01*
X118895622Y-105830349D01*
X118905594Y-105823295D01*
X119012641Y-105695267D01*
X119016957Y-105689456D01*
X119203432Y-105405575D01*
X119207046Y-105399313D01*
X119359658Y-105095882D01*
X119362530Y-105089244D01*
X119479249Y-104770293D01*
X119481345Y-104763351D01*
X119560631Y-104433103D01*
X119561915Y-104425964D01*
X119602816Y-104087973D01*
X119603240Y-104082403D01*
X119609010Y-103898797D01*
X119608937Y-103893204D01*
X119589338Y-103553303D01*
X119588506Y-103546113D01*
X119530113Y-103211529D01*
X119528458Y-103204474D01*
X119431998Y-102878834D01*
X119429540Y-102872006D01*
X119296290Y-102559608D01*
X119293073Y-102553125D01*
X119124788Y-102258089D01*
X119120856Y-102252034D01*
X118919774Y-101978295D01*
X118915166Y-101972726D01*
X118909830Y-101966984D01*
X118896178Y-101958866D01*
X118895570Y-101958887D01*
X118887092Y-101964119D01*
X116968020Y-103883190D01*
X116960408Y-103897131D01*
X116235659Y-103897131D01*
X116596000Y-103536790D01*
X118523076Y-101609714D01*
X118530688Y-101595773D01*
X118530144Y-101588168D01*
X118512387Y-101535447D01*
X118529699Y-101466594D01*
X118581488Y-101418030D01*
X118638290Y-101404500D01*
X129922000Y-101404500D01*
X129990121Y-101424502D01*
G37*
%TD.AperFunction*%
%TD*%
%TA.AperFunction,NonConductor*%
G36*
X121467012Y-112508755D02*
G01*
X121475669Y-112517006D01*
X121604576Y-112652135D01*
X121608854Y-112655318D01*
X121682943Y-112710442D01*
X121725656Y-112767153D01*
X121730929Y-112837953D01*
X121696825Y-112900626D01*
X121473595Y-113123856D01*
X121411283Y-113157882D01*
X121340468Y-113152817D01*
X121283632Y-113110270D01*
X121258821Y-113043750D01*
X121258500Y-113034761D01*
X121258500Y-112603979D01*
X121278502Y-112535858D01*
X121332158Y-112489365D01*
X121402432Y-112479261D01*
X121467012Y-112508755D01*
G37*
%TD.AperFunction*%
%TA.AperFunction,NonConductor*%
G36*
X125586273Y-112944822D02*
G01*
X125863856Y-113222405D01*
X125897882Y-113284717D01*
X125892817Y-113355532D01*
X125850270Y-113412368D01*
X125783750Y-113437179D01*
X125774761Y-113437500D01*
X125352239Y-113437500D01*
X125284118Y-113417498D01*
X125263144Y-113400595D01*
X125062817Y-113200268D01*
X125028791Y-113137956D01*
X125033856Y-113067141D01*
X125076403Y-113010305D01*
X125147183Y-112985262D01*
X125162324Y-112984693D01*
X125174158Y-112984249D01*
X125399791Y-112936907D01*
X125450897Y-112916724D01*
X125521603Y-112910307D01*
X125586273Y-112944822D01*
G37*
%TD.AperFunction*%
M02*
