M48
; DRILL file {KiCad (6.0.9-0)} date Tuesday, December 13, 2022 at 01:55:31 PM
; FORMAT={-:-/ absolute / inch / decimal}
; #@! TF.CreationDate,2022-12-13T13:55:31-05:00
; #@! TF.GenerationSoftware,Kicad,Pcbnew,(6.0.9-0)
; #@! TF.FileFunction,Plated,1,2,PTH
FMAT,2
INCH
; #@! TA.AperFunction,Plated,PTH,ViaDrill
T1C0.0157
; #@! TA.AperFunction,Plated,PTH,ComponentDrill
T2C0.0236
; #@! TA.AperFunction,Plated,PTH,ComponentDrill
T3C0.0374
; #@! TA.AperFunction,Plated,PTH,ComponentDrill
T4C0.0394
; #@! TA.AperFunction,Plated,PTH,ComponentDrill
T5C0.1181
%
G90
G05
T1
X4.61Y-4.96
X4.74Y-5.18
X4.74Y-5.42
X4.75Y-5.02
X4.91Y-4.69
X4.92Y-5.04
X4.97Y-4.82
X4.97Y-5.18
X5.0088Y-4.53
X5.03Y-4.67
X5.0349Y-4.98
X5.09Y-4.99
X5.0945Y-4.7345
X5.11Y-4.95
X5.1456Y-4.4356
X5.1512Y-4.6588
X5.19Y-4.83
X5.2Y-4.57
X5.22Y-4.5
X5.22Y-4.8
X5.22Y-4.86
X5.23Y-5.08
X5.24Y-4.46
X5.2491Y-4.6958
X5.25Y-4.34
X5.25Y-4.77
X5.25Y-4.83
X5.25Y-4.89
X5.28Y-4.22
X5.28Y-4.8
X5.28Y-4.86
X5.3067Y-4.4922
X5.31Y-4.83
X5.3166Y-4.0434
X5.3193Y-4.5993
X5.3392Y-4.2
X5.3493Y-4.5693
X5.35Y-4.1
X5.35Y-4.4
X5.3716Y-4.6916
X5.38Y-4.01
X5.38Y-4.83
X5.4072Y-4.6672
X5.4094Y-4.3399
X5.41Y-4.24
X5.41Y-5.31
X5.4125Y-4.74
X5.42Y-4.5
X5.4225Y-4.6
X5.4399Y-4.4501
X5.44Y-4.01
X5.47Y-4.1
X5.4721Y-4.7171
X5.4765Y-4.35
X5.48Y-4.39
X5.49Y-5.12
X5.4934Y-4.0434
X5.52Y-4.62
X5.52Y-4.8
X5.53Y-5.09
X5.5872Y-4.3261
X5.6Y-5.09
X5.61Y-4.75
X5.61Y-5.31
X5.64Y-5.18
X5.64Y-5.42
X5.65Y-4.22
X5.71Y-4.52
X5.72Y-4.85
X5.72Y-4.89
X5.73Y-4.99
X5.77Y-4.66
X5.78Y-4.99
X5.8525Y-4.99
T3
X4.8231Y-4.39
X4.9216Y-4.39
X5.02Y-4.39
T4
X5.7916Y-4.3858
X5.89Y-4.3858
T5
X4.5904Y-4.0904
X4.5904Y-5.3896
X5.8896Y-5.3896
T2
G00X5.0799Y-5.2051
M15
G01X5.0799Y-5.2484
M16
G05
G00X5.0799Y-5.3795
M15
G01X5.0799Y-5.4031
M16
G05
G00X5.4201Y-5.2051
M15
G01X5.4201Y-5.2484
M16
G05
G00X5.4201Y-5.3795
M15
G01X5.4201Y-5.4031
M16
G05
T0
M30
